<?xml version="1.0" standalone="no"?>
<!DOCTYPE svg PUBLIC "-//W3C//DTD SVG 1.1//EN" "http://www.w3.org/Graphics/SVG/1.1/DTD/svg11.dtd" >
<svg xmlns="http://www.w3.org/2000/svg" xmlns:xlink="http://www.w3.org/1999/xlink" version="1.1">
<metadata></metadata>
<defs>
<font id="future_westregular" horiz-adv-x="995" >
<font-face units-per-em="2048" ascent="1638" descent="-410" />
<missing-glyph horiz-adv-x="508" />
<glyph horiz-adv-x="0" />
<glyph unicode="&#xd;" horiz-adv-x="508" />
<glyph unicode=" "  horiz-adv-x="508" />
<glyph unicode="&#x09;" horiz-adv-x="508" />
<glyph unicode="&#xa0;" horiz-adv-x="508" />
<glyph unicode="!" horiz-adv-x="933" d="M-10 816q57 116 57 161v19l-38 200q0 236 342 275h19q298 0 484 -351v-48l-38 -228v-9l57 -171q0 -25 -161 -181l-57 -209q142 -148 142 -247q0 -197 -285 -228q-176 0 -361 219q-76 66 -76 161q0 113 152 200q-40 232 -133 323q-104 79 -104 114zM47 806 q209 -196 209 -361l28 -28h152q17 0 86 237l152 162q-57 93 -57 180l38 228q-38 190 -228 190h-114q-247 -28 -247 -180v-57l28 -190l-47 -171v-10zM104 825q38 111 38 171v29l-38 180q36 171 256 171q247 -25 247 -161v-10l-38 -199v-19q0 -57 38 -171q-180 -157 -180 -314 l-38 -47h-57q-31 20 -95 218q-73 102 -133 152zM123 179q0 -180 237 -180q228 22 228 142v67q0 116 -228 142q-205 0 -237 -161v-10zM170 179q30 124 200 124q147 0 180 -133q0 -105 -199 -124q-181 19 -181 133z" />
<glyph unicode="&#x22;" horiz-adv-x="1329" d="M-29 1208q0 198 275 266h38q138 0 247 -114h19q115 114 247 114h19q214 0 418 -351l19 -152q0 -243 -228 -380q-37 -19 -104 -19h-57q-42 0 -190 152h-19q-114 -152 -257 -152h-47q-90 0 -228 190l-10 47v57q0 50 29 86q-171 161 -171 256zM28 1170q0 -95 209 -152v-9 q-7 -105 -76 -105v-133h114q202 0 247 352v28q0 241 -228 276h-19q-213 0 -247 -200v-57zM66 1199q0 142 199 180h19q163 0 190 -237v-29q-46 -294 -218 -294h-19l-29 19q76 88 76 152v19q0 61 -142 95q-76 59 -76 95zM550 1199q0 -130 209 -181v-19h10q-19 -95 -76 -95 v-133h104q178 0 247 285v143q-50 228 -218 228h-29q-211 0 -247 -209v-19zM598 1218q0 116 190 161h19q167 0 199 -247v-9q-56 -304 -228 -304h-19l-28 19q76 83 76 142v57q0 25 -143 67q-66 41 -66 114z" />
<glyph unicode="#" horiz-adv-x="1700" d="M-18 375q38 275 85 275l48 10h47v19l-104 114q38 275 85 275l48 10h142q16 0 86 332l85 19h200q104 0 180 -95h29q0 95 133 95h199q102 0 228 -180l10 -29l-19 -142q50 0 190 -181v-19q-23 -285 -95 -285l-48 -9v-19l76 -95q-28 -295 -104 -295l-114 -9h-76 q-50 -352 -95 -352l-48 -9h-247q-66 0 -161 104h-19q0 -104 -95 -104h-228q-81 0 -247 199l28 171zM39 375h199l29 -29q-57 -269 -57 -342h304q61 371 95 371h142l29 -19q-67 -288 -67 -352h323q61 371 86 371h209q17 0 57 209l-10 28h-209l-19 19q0 162 76 162h190l38 237 h-209l-19 19l57 323h-304q-22 0 -76 -332l-47 -10h-133l-19 19l57 323h-314q-47 -342 -85 -342h-209q-38 -157 -38 -237h199l29 -19q0 -162 -76 -162h-190q-38 -157 -38 -237zM86 432q22 133 48 133h190q66 43 66 247l-66 28l-105 -9h-28l-29 19q22 133 48 133h152 q95 0 114 285q17 66 38 66h171l19 -19l-48 -275v-19q16 -38 67 -38h161q85 0 105 266q0 85 66 85h152l19 -19l-47 -285v-9l38 -38h161l19 -19q-13 -133 -47 -133h-190q-40 0 -57 -228l38 -38h161l29 -19q-22 -133 -48 -133h-190q-45 0 -95 -352l-47 -9h-162l-19 19l57 323 l-28 19h-228q-42 0 -95 -352l-48 -9h-142q-19 0 -19 28l47 304l-28 29h-171zM590 603l38 -38h209q66 43 66 247l-28 19h-228q-44 0 -57 -200v-28zM637 631q10 162 48 162h142l29 -19q0 -162 -76 -162h-124z" />
<glyph unicode="$" horiz-adv-x="1726" d="M-26 780v9q80 168 237 314q160 95 437 152q0 85 124 85q64 0 171 -95q418 -58 418 -114q256 -220 256 -332q0 -96 -171 -209v-19q94 -90 257 -323l9 -10v-57q-104 -111 -161 -218q-214 -152 -494 -152q-38 -17 -38 -67q-37 -28 -86 -28h-57q-40 0 -123 85 q-475 60 -475 124q-247 202 -247 323q0 136 190 209v28zM21 799q190 -285 333 -285l332 -105l10 -47v-105q0 -34 -29 -57q-76 0 -76 86q0 142 -228 142h-28q-247 -28 -247 -152v-66q0 -174 503 -200q105 0 105 -76v-9h123q0 95 209 95q205 24 352 133q0 33 133 199 q-186 314 -323 314q-380 111 -380 161v124q0 40 38 66q76 -19 76 -38v-66q0 -112 209 -133h85q137 0 190 152v19q0 200 -427 237q-181 0 -181 95h-104v-28q0 -76 -200 -76q-313 -104 -389 -257zM88 799q130 235 342 304l294 66l19 57h10q29 -85 256 -85q239 0 352 -171v-19 q-45 -133 -190 -133q-200 0 -200 152q0 85 -104 85h-57q-48 -26 -48 -76h-19q0 76 -38 76h-66q-96 0 -114 -133q24 -142 123 -142h57l48 38h9q0 -96 323 -162q285 -91 285 -199q76 -86 76 -114l-152 -190q-128 -76 -484 -114l-48 -67q-30 76 -133 76q-465 45 -465 124 q-21 0 -38 76q0 110 218 133h10q139 0 190 -86v-85q0 -33 104 -48h57q38 16 38 67v180q0 60 -408 152q-125 54 -219 200zM572 932q0 60 105 85l19 -28v-143l-19 -28q-81 0 -105 114zM772 210q24 -48 76 -48h95l57 57v105q-68 104 -162 104h-28l-38 -38v-180zM810 267v66 l9 48q143 -27 143 -114q-31 -67 -76 -67q-76 0 -76 67z" />
<glyph unicode="%" horiz-adv-x="1658" d="M-51 1051q103 249 199 304q115 57 209 57h19q222 0 475 -313l247 323l95 9h19q91 0 238 -199q-67 -120 -361 -532v-29q187 0 427 -342l67 -171l-124 -237q-76 -82 -285 -114q-228 0 -484 313q-17 -1 -228 -304l-67 -9h-57q-90 0 -237 199q63 120 351 513v19l-171 76 q-294 259 -294 380q-19 0 -38 57zM-4 1051q48 -64 76 -171q103 -133 304 -133q267 0 333 276q19 0 19 28q-121 295 -257 295q0 14 -123 19q-239 0 -323 -266zM63 1070q13 1 57 124q70 93 190 123v-28q-41 0 -57 -114v-228q0 -54 47 -143h-19q-199 74 -199 219q-17 0 -19 47z M158 6h114q87 88 969 1359v9h-114q-57 -47 -969 -1349v-19zM253 73l28 28v-9l-19 -19h-9zM281 101v10q97 148 114 152v-10q-96 -148 -114 -152zM291 1042v38q6 162 57 180h28q67 -30 67 -190v-9q0 -193 -67 -219h-19q-66 35 -66 200zM395 263v9l48 57v-9zM424 1308h9 q209 -70 209 -228l19 -19q-61 -257 -228 -257v10q48 57 48 152v199q0 66 -57 143zM443 329v10l47 57v-10zM509 424v10l29 28v-9zM557 491v9l47 57v-9zM623 586v9l29 29v-10zM652 301q33 -32 95 -181q103 -104 237 -104h67q187 0 266 152q5 52 66 142q-120 285 -218 285 q-26 25 -95 29h-114q-200 0 -304 -323zM671 652v10l28 28v-9zM718 310v10q79 256 247 256q-66 -73 -66 -237q0 -195 57 -266l-10 -10q-218 83 -218 238zM785 814v9l28 29v-10zM946 291v76q0 124 57 162h29q47 0 66 -181q0 -213 -76 -247q-76 0 -76 190zM1079 567v9 q102 0 200 -161l38 -105q-70 -237 -219 -237h-9v9q47 63 47 162v152q0 102 -57 171z" />
<glyph unicode="&#x26;" horiz-adv-x="2427" d="M-10 280v28q129 158 151 246q118 134 332 246v10q-38 86 -57 217q0 278 359 398q99 28 199 28h48q470 0 671 -397l10 -85v-38l123 19h76q274 0 454 -303l9 -57v-47q0 -95 -94 -142q123 -118 123 -161v-95q0 -299 -502 -359h-57q-197 0 -530 142q-232 -152 -425 -152h-180 q-346 0 -530 256q-41 24 -76 123zM47 289q121 -127 142 -208q104 -104 511 -104q200 0 454 161q356 -152 539 -152q406 27 493 247v151h-133q0 -104 -114 -104q-159 0 -397 170l-9 38v28q72 95 142 95q99 -76 208 -76q243 0 284 171q0 158 -256 198h-66q-184 0 -502 -274h-9 l-161 151v19q18 32 265 152q57 66 57 132v57q0 202 -407 256h-152q-304 0 -435 -247q-28 -45 -28 -141l56 -228q-253 -153 -340 -255q-39 -111 -142 -227v-10zM104 299q59 72 151 246l312 217v29l-57 236q57 332 474 332h19q314 0 435 -161l19 -76v-19q0 -143 -237 -208 q-85 -54 -85 -76v-38q0 -66 208 -198h10q319 274 473 274h66q192 0 227 -132v-19q-32 -123 -208 -123h-85l-142 66h-19q-180 -42 -180 -161q0 -132 407 -246h76q102 0 123 95v9h57v-76q0 -168 -388 -236h-95q-145 0 -511 142l-237 -114q-94 -38 -189 -38h-151 q-388 0 -388 171zM548 441q0 -216 275 -246h19q142 0 142 94q0 55 -227 246q-54 76 -114 76q-95 0 -95 -170zM586 450q19 114 48 114h9q54 0 303 -275q0 -50 -104 -56q-216 0 -246 189zM794 289h76l-66 67l-10 -10v-57zM880 1094q50 -180 151 -180q208 66 208 199 q0 120 -170 151h-29q-135 0 -160 -170zM927 1103v10q0 97 132 113h10q123 -28 123 -113v-38q-27 -66 -161 -123q-104 49 -104 151zM1779 374l142 -37h28v9q-40 0 -142 57h-9l-19 -19v-10z" />
<glyph unicode="'" horiz-adv-x="807" d="M4 1405q0 168 218 246l66 10h47q192 0 388 -303l29 -142v-85q0 -178 -161 -322q-65 -47 -123 -47h-114q-41 0 -113 85q-95 79 -95 123v114q0 47 28 47v9q-170 139 -170 265zM61 1368q0 -101 217 -161v-10q-9 -104 -85 -104v-132h76q241 0 284 350v19q0 238 -227 284h-29 q-236 -44 -236 -209v-37zM99 1386q0 122 132 171l38 9h76q114 0 161 -198v-105q-65 -255 -190 -255h-75v38q75 54 75 170q0 28 -170 85q-47 49 -47 85z" />
<glyph unicode="(" horiz-adv-x="1410" d="M-3 762q123 158 123 217q167 682 880 682h142q80 0 199 -152q28 -9 28 -57v-189q0 -84 -151 -94q-210 0 -265 -388l-10 -161q17 -462 104 -530h105q80 0 198 -152q29 -9 29 -56v-199q0 -85 -67 -85h-170q-491 0 -776 369q-158 134 -227 444q-44 265 -95 265 q-47 58 -47 86zM54 743q123 -91 123 -284q57 -261 199 -436q235 -217 548 -217h246v227h-85q-185 0 -265 208q-85 224 -85 540q0 424 218 558q74 36 208 57v208h-227q-570 0 -757 -606q0 -103 -123 -246v-9zM111 752q102 120 132 331q194 483 757 483h123v-142h-9 q-322 0 -407 -445l-10 -217q0 -620 275 -757l94 -10h67v-151h-142q-554 0 -720 444q-43 132 -85 360z" />
<glyph unicode=")" horiz-adv-x="1445" d="M-1 32q0 57 57 57h66q228 0 284 360l19 227v180q0 322 -123 322q-112 0 -171 75q-123 109 -123 152v198q0 57 57 57h275q461 0 823 -558q38 -52 114 -341l94 -113v-57q-132 -131 -132 -331q-89 -336 -284 -493q-248 -160 -502 -160h-246q-41 0 -113 85q-95 79 -95 123 v217zM46 42v-237h123q634 0 805 426q66 171 94 398l104 132q-117 117 -141 275q0 132 -218 378q-218 189 -464 189v10l-9 -10l-48 10h-236v-218q265 0 369 -236q57 -158 57 -322v-95q0 -585 -265 -700h-171zM94 -5h28q321 0 388 501l9 189v180q0 435 -293 540l-123 28v133 h208q523 0 701 -597q0 -73 94 -208q-104 -130 -104 -312q-87 -332 -265 -454q-182 -142 -454 -142h-189v142z" />
<glyph unicode="*" horiz-adv-x="1024" d="M2 1235v104q0 66 66 66h123l-85 133q0 47 170 132h57l95 -85q19 0 28 57q26 38 66 38h10q120 -18 293 -208q19 0 19 -95q133 -118 133 -161v-142q0 -66 -76 -66h-28l-10 9l-57 -19l48 -104v-38q-14 -27 -152 -104h-38l-113 104h-10q-31 -104 -94 -104h-10 q-105 47 -293 237q-17 0 -19 47v19l9 10v9q-132 109 -132 161zM59 1216h217v-9l-104 -180l133 -76l113 189h10q83 -179 113 -179l114 66l-104 189h227v142h-227v9l95 199h-10l-123 66q-60 -155 -104 -208l-104 199l-142 -76l123 -189h-227v-142zM97 1254v57h161q45 0 75 47 l-104 180h10l47 28q71 -149 113 -180h10q60 0 85 105l38 85l57 -38l-85 -180q0 -47 85 -47h142v-57h-171q-56 0 -56 -47l94 -171l-57 -28q-78 180 -132 180q-33 0 -114 -171h-19l-47 38q83 102 95 161q-10 38 -57 38h-170z" />
<glyph unicode="+" horiz-adv-x="1483" d="M-1 629v227q0 94 95 94h321v293q0 104 132 104h180q116 0 208 -132q57 -33 57 -85v-180h198q90 0 208 -170l9 -47v-265q0 -94 -104 -94h-311v-303q0 -75 -76 -75h-255q-91 0 -236 198l-10 48v132h-132q-117 0 -208 132q-76 47 -76 123zM56 582h387l29 -29v-359h312v331 q0 57 56 57h369v321h-397l-28 29v359h-312v-359l-29 -29h-387v-321zM94 648v180l28 28h321q51 0 67 38v331l28 28h180l28 -28v-331q15 -38 66 -38h321l29 -28v-180l-29 -28h-359l-28 -29v-321l-28 -28h-180l-28 28v321l-29 29h-359z" />
<glyph unicode="," horiz-adv-x="832" d="M1 177q73 255 246 255l56 10h19q187 0 397 -303q38 -102 38 -170q0 -249 -312 -416l-85 -9h-47q-79 0 -218 170q-28 0 -28 104q0 57 95 104v19q-161 155 -161 236zM58 149q0 -98 207 -151v-29q-26 -59 -141 -132v-94h113q191 0 312 311v114q-46 227 -217 227h-57 q-167 0 -217 -199v-47zM105 149v28q0 131 189 170h19q161 0 198 -226q0 -201 -264 -331h-57l-19 19q142 80 142 179v29q0 24 -151 66z" />
<glyph unicode="-" d="M-2 439v246q0 85 85 85h643q63 0 208 -189v-303q0 -75 -76 -75h-624q-89 0 -227 189zM45 401h681v322h-681v-322zM93 477v170l28 28h539l28 -28v-170l-28 -28h-539z" />
<glyph unicode="." horiz-adv-x="807" d="M6 194q39 226 293 226h28q217 0 416 -311l10 -67q-47 -236 -303 -236q-175 0 -368 227q-76 64 -76 161zM53 184q0 -155 227 -179h28q237 28 237 151v66q0 123 -237 151h-18q-237 -28 -237 -170v-19zM101 194q0 97 179 132h19q177 0 208 -142q-38 -132 -208 -132 q-198 17 -198 142z" />
<glyph unicode="/" horiz-adv-x="1158" d="M-6 2q740 1364 784 1409l95 9h19q116 0 189 -113l66 -66v-48l-775 -1380l-66 -9h-85q-54 0 -227 198zM50 2h133q61 62 756 1342v19h-132q-33 -10 -473 -831q-284 -493 -284 -530zM136 59v10q671 1230 699 1247l28 10v-10q-659 -1217 -709 -1266h-9z" />
<glyph unicode="0" horiz-adv-x="1974" d="M-12 670q123 183 123 227q189 548 784 548q473 0 832 -501q54 -77 104 -274q94 -98 94 -142v-28q-102 -84 -170 -350q-232 -368 -699 -368h-29q-524 0 -879 567q-24 152 -160 321zM35 679q129 -153 161 -330q208 -369 690 -369q548 0 708 425q0 101 133 265 q-106 124 -161 340q-222 378 -652 378h-94q-462 0 -653 -463q-23 -126 -132 -246zM101 670q76 96 142 321q218 359 643 359q472 0 671 -453q0 -67 104 -236q-68 -43 -133 -293q-189 -341 -623 -341h-29q-568 0 -699 548zM678 689q0 -548 198 -548h19q199 0 199 397l9 208v28 q0 444 -208 444h-19q-198 0 -198 -482v-47zM716 746q0 425 160 425q180 0 180 -340v-274q0 -255 -104 -350l-57 -19h-38q-132 51 -132 444zM923 528q0 -246 29 -246q57 0 57 454l-10 208h-9q-67 -20 -67 -350v-66z" />
<glyph unicode="1" horiz-adv-x="1207" d="M0 52v104q0 113 170 113l28 38v161q0 78 -113 207q0 26 95 171q-180 195 -180 217v94q0 104 161 104q142 0 236 142l57 10h255q98 0 217 -189l10 -416v-19q0 -66 113 -227v-19q-113 -153 -113 -217v-66q198 -150 198 -237v-132q0 -85 -85 -85h-803q-91 0 -237 198zM57 4 h879v189q-208 0 -208 161v57q0 142 123 283q-123 154 -123 293v378h-303q-121 -170 -368 -170v-151q198 -45 198 -113q-30 -136 -123 -237q123 -155 123 -283v-29q0 -179 -189 -179h-9v-199zM95 80v57q0 16 132 56q66 54 66 123v170q0 59 -95 218q95 101 95 198v66 q-15 65 -189 123l-9 38q0 31 217 66q84 47 132 114l38 9h170l28 -19l10 -255v-132q0 -66 94 -227q-94 -102 -94 -199v-189q0 -104 189 -151l9 -9v-57l-28 -28h-737z" />
<glyph unicode="2" horiz-adv-x="1796" d="M-23 1094q0 243 674 361l143 9q578 0 940 -617q-149 -225 -209 -285q124 -136 124 -181v-76q0 -361 -409 -503l-114 -19h-19q-68 0 -522 133h-29q-36 -3 -76 -95l-66 -10h-152q-62 0 -228 209v152q0 71 76 276q0 152 76 152q0 16 95 57v19q-304 235 -304 418zM34 1046 q0 -176 247 -199h104q247 27 247 171v9l-28 133q41 41 142 48q137 0 171 -200q0 -117 -484 -294q-266 -167 -266 -190q0 -76 -76 -285l-10 -124v-95l143 -9h66q54 104 133 104q462 -133 532 -133h38q263 0 437 314l10 66v181h-181l-9 -10q-42 -123 -152 -123l-314 85 l-171 -9l-47 9v10q0 55 570 142q249 89 304 219l85 114v9q-149 245 -228 266q-201 152 -503 152h-10q-536 0 -750 -266v-95zM72 1094q116 232 712 275q341 0 589 -247l86 -133v-9q-162 -238 -238 -238q-116 -61 -570 -133q-133 -47 -133 -104q0 -67 76 -67l181 10 q256 -86 351 -86q105 0 171 143h76l29 -29v-19q0 -353 -437 -427q-77 0 -523 133h-38q-74 0 -152 -105h-95l-28 29v76q0 50 76 275q0 100 152 152q0 41 541 276q57 70 57 104v95q-36 181 -180 181h-95q-83 0 -124 -67v-47l29 -114q-51 -133 -266 -133q-247 23 -247 209z M813 999l9 -48h10l28 29v19h-47z" />
<glyph unicode="3" horiz-adv-x="1854" d="M-20 303q0 255 352 304h66v104q-84 35 -304 257q-47 84 -47 142q0 227 380 314q167 47 351 47h19q643 0 883 -456l19 -114v-28q0 -154 -180 -257v-9q112 -108 237 -314q25 0 38 -76q-169 -253 -209 -275q-246 -162 -598 -162h-66q-622 0 -836 323q-105 91 -105 200z M37 274q0 -251 627 -285l152 -9q496 0 665 228q0 26 114 161l-162 238q-54 53 -228 114l-9 9v19q304 107 304 247v48q0 271 -428 351l-218 19h-142q-448 0 -599 -218l-9 -57v-76q0 -131 256 -152h86q184 0 218 133v104q0 67 114 67q171 -36 171 -171q0 -170 -275 -209h-219 v-209h181q202 0 304 -200v-28q-32 -200 -190 -200v-9q-105 31 -105 57l10 123q0 157 -304 190h-10q-304 -27 -304 -228v-57zM75 303q0 174 257 209h28q247 -32 247 -162l-9 -123q40 -76 133 -76h38q209 38 209 209v95q0 127 -276 209h-180l-29 28v76l29 29h228 q237 57 237 218v57q-38 190 -190 190h-28q-143 0 -143 -85q0 -219 -171 -219l-47 -9q-266 0 -266 161q0 215 598 266h38q503 0 655 -237l19 -86v-38q0 -117 -285 -228l-19 -28v-48q0 -18 228 -123q57 -57 86 -133l66 -76q-129 -213 -190 -238q-213 -114 -522 -114h-47 q-547 0 -684 219zM759 398l86 -105q38 16 38 67v38l-19 19h-105v-19z" />
<glyph unicode="4" horiz-adv-x="1750" d="M-13 449v114q0 92 257 313q530 551 570 551l76 10h275q117 0 209 -133q57 -34 57 -86v-114q0 -74 124 -237l-95 -152v-19q99 0 218 -190l10 -48v-133q0 -133 -114 -133h-38v-19q66 -60 66 -123v-152q0 -86 -85 -86h-722q-90 0 -228 190l-10 48v142h-332q-65 0 -228 209z M44 401h618q57 0 85 -57q0 -111 -142 -133v-199h798v209h-38q-124 0 -124 133q13 47 67 47h171v247h-190q-67 0 -67 86q0 94 124 275v10q-124 115 -124 332v29h-389q-55 0 -447 -418q-342 -318 -342 -371v-190zM82 468v85q0 60 371 390q373 399 427 399h276l28 -29v-57 q0 -104 95 -256q-95 -133 -95 -219v-95q0 -85 86 -85h142l29 -29v-104l-29 -29h-171q-47 -21 -47 -95v-19q0 -124 152 -161l9 -10v-66l-28 -29h-646l-29 29v57q143 95 143 199q-29 95 -67 95h-617zM386 648l48 -47h323l28 28v323q-24 48 -76 48q-62 0 -323 -304v-48z M434 667v10l275 275q38 -5 38 -76v-180q0 -57 -57 -57h-180q-70 0 -76 28z" />
<glyph unicode="5" horiz-adv-x="1858" d="M-15 303q0 146 162 256q-38 57 -38 105v684q0 95 123 95h181q72 0 209 -76q42 -19 123 -19h114q129 0 219 85l85 10h237q91 0 238 -200q0 -174 -304 -342q370 -300 370 -418q105 -114 105 -161q-100 -129 -171 -266q-261 -257 -627 -257h-85q-640 0 -855 333 q-37 0 -86 171zM42 284q0 -216 485 -266l275 -19q578 0 731 389q55 40 76 86q-86 107 -180 285q-169 161 -456 161h-104q-156 0 -361 -38l-19 29v66q0 41 38 67q106 -29 209 -29h57q380 0 617 276l19 76v19h-323q-30 0 -114 -67l-171 -28q-227 0 -342 95h-323v-760h333 q89 78 171 85q285 -43 285 -266q-56 -256 -209 -256l-86 28l38 133q-69 200 -323 200h-47q-238 0 -276 -219v-47zM80 303q45 209 276 209q285 -59 285 -181l-48 -104q29 -76 114 -76h76q134 0 200 247v104q0 190 -266 247h-95q-47 0 -190 -85h-200l-28 28v627l28 29h181 q179 -95 332 -95h124q135 0 275 95h209l19 -19q-241 -276 -608 -276l-228 29h-47q-48 -25 -48 -76v-95q7 -76 67 -76q281 47 418 47q412 0 531 -285l76 -123q-112 -189 -180 -257q-193 -171 -494 -171h-85q-502 0 -656 171q-28 37 -28 86h-10zM717 464q0 -24 123 -133h29 l19 86v85h-133z" />
<glyph unicode="6" horiz-adv-x="1944" d="M-13 623v38q104 106 161 312q183 445 719 445h189q464 0 701 -369l19 -76v-47q0 -135 -180 -199l-10 -9q178 -130 237 -294q95 -85 95 -142q0 -21 -123 -161q0 -129 -265 -264q-237 -95 -511 -95h-38q-518 0 -824 549q-70 241 -170 312zM44 642q110 -91 161 -322 q188 -350 586 -350h104q543 0 701 303q0 35 113 161q-113 132 -132 208q-162 189 -549 189h-19l-255 -28l-19 19v189q35 170 170 170q66 -21 66 -66q0 -166 171 -208l75 -10q350 22 350 171l10 28q0 180 -388 256l-246 19q-570 0 -729 -379q-69 -201 -113 -274l-57 -67v-9z M101 651q91 110 142 313q174 359 624 359h170q352 0 493 -189v-57q-35 -132 -265 -132h-76q-189 0 -189 227q-55 47 -95 47h-10q-182 0 -208 -246v-132q0 -72 76 -85l256 37q485 0 577 -293l57 -66q-102 -118 -123 -208q-215 -218 -663 -218h-38q-456 0 -605 388 q-23 141 -123 255zM697 368q26 -247 198 -247h10q174 0 218 228v47q-33 255 -199 255h-38q-159 0 -189 -246v-37zM735 386q0 199 160 228h10q152 0 180 -228v-9q0 -184 -190 -218q-160 38 -160 227zM943 226q47 0 85 123v56h-9q-38 0 -76 -123v-56zM943 888h85 q-28 47 -66 47v-9l-19 -29v-9z" />
<glyph unicode="7" horiz-adv-x="1753" d="M3 856v473q0 76 76 76h227q45 0 113 -66q160 66 265 66q91 0 426 -104h19q16 0 85 104h246q81 0 199 -151q29 -10 29 -57v-57q0 -285 -322 -530l-19 -66l9 -114q0 -24 -161 -104l-28 -38v-19l57 -189q0 -277 -360 -322h-38q-252 0 -473 284q-66 66 -66 199q0 106 57 265 l-19 95l38 56h-142q-64 0 -218 199zM60 856h293q38 208 180 208q199 -94 388 -94l9 -10v-19q-41 -43 -359 -217l-189 -123l9 -67v-38q-47 -155 -47 -255v-47q0 -187 303 -227h56q313 31 313 227v38l-57 189v9q0 86 199 161l-19 76q0 132 198 265q142 183 142 331v85h-236 q-65 -104 -142 -104q-339 104 -398 104h-47q-67 0 -331 -94l-10 9v85h-255v-492zM98 903v407h170q0 -94 66 -94l322 94h38q44 0 388 -104h28q92 0 161 104h170v-28q0 -228 -302 -464q-38 -94 -38 -161v-19l9 -9v-9q-189 -89 -189 -171v-47l57 -189q0 -177 -275 -209h-38 q-247 0 -283 209v9q0 94 56 293l-9 67q208 142 501 293l48 66q0 85 -227 85l-218 76h-10q-125 0 -189 -151l-9 -48h-227zM599 809l85 38v9h-28q-39 -13 -57 -47z" />
<glyph unicode="8" horiz-adv-x="1950" d="M-22 340q0 31 170 246q67 40 67 66q-123 233 -123 303v10q0 344 596 463l170 10q724 0 918 -454v-105q0 -92 -113 -198q123 -113 160 -246q95 -97 95 -142v-10q0 -26 -114 -170q-44 -129 -179 -208q-249 -142 -597 -142h-94q-532 0 -786 340l-104 142q-66 42 -66 95z M25 340q103 -103 152 -199q229 -179 662 -179q572 0 757 293q0 44 123 180q-81 67 -161 255l-113 133v9q132 129 132 237q0 235 -530 303l-198 9h-29q-357 0 -624 -237q-48 -83 -57 -179q0 -56 132 -303v-38q-102 -93 -246 -284zM82 350q45 30 133 170q104 51 104 132 q-133 266 -133 303v38q0 225 492 331q59 19 180 19q672 -44 672 -255v-57q0 -44 -123 -180v-47q157 -191 199 -303l57 -76q-58 -36 -133 -198q-208 -218 -653 -218h-95q-514 0 -643 274zM423 340q0 -157 265 -208h75q213 0 265 170v48q0 138 -369 198h-85q-122 0 -151 -208z M461 340q22 170 142 170q388 -42 388 -179v-10q-44 -151 -246 -151h-19q-265 40 -265 170zM678 227h104q46 0 133 47v9l-161 19h-28q-48 -24 -48 -75zM716 1078q0 -170 331 -170q0 -14 114 -19q95 36 95 142v38q0 134 -284 170h-57q-199 -18 -199 -132v-29zM754 1097v10 q38 94 180 94q249 0 284 -151q0 -79 -67 -123l-208 38v-10q-189 19 -189 142z" />
<glyph unicode="9" horiz-adv-x="1910" d="M-23 905l123 179q0 111 256 256q192 95 473 95q633 0 908 -625q0 -101 133 -265v-19q0 -36 -95 -142q-28 -42 -38 -132q-200 -483 -852 -483q-529 0 -757 397l-9 86v37q0 121 199 180q-227 220 -227 284q-114 122 -114 152zM34 905q82 -92 161 -237q154 -133 378 -133 l426 48l19 -29v-170q-31 -237 -189 -237l-76 38l19 114q-57 151 -237 151h-19q-242 0 -340 -132l-10 -66q0 -194 369 -265l161 -10h76q590 0 766 454q0 95 124 237q-110 132 -161 350q-177 360 -691 360h-19q-458 0 -634 -284q-14 -63 -123 -189zM91 905q81 97 123 208 q197 227 596 227q478 0 643 -331l76 -227l76 -123q-59 -23 -142 -303q-196 -341 -738 -341q-321 0 -483 142q-28 36 -28 85v29q0 118 321 141q152 0 190 -123l-10 -123q71 -56 114 -56h9q218 43 218 255v189q0 67 -66 67l-388 -38h-95q-244 0 -360 255zM611 933 q40 -227 199 -227h47q152 0 180 227v19q-32 265 -189 265h-48q-189 -49 -189 -284zM658 923v57q36 199 161 199h10q141 0 161 -218v-56q-21 -161 -152 -161h-9q-139 0 -171 179zM857 800h10q75 26 75 161h-9q-76 -62 -76 -161zM867 327l66 -56h9l19 85q-94 -10 -94 -29z" />
<glyph unicode=":" horiz-adv-x="804" d="M-5 173q34 236 312 236h29v10q-88 0 -322 284l-19 94q48 228 284 228h85q168 0 379 -294l9 -85q0 -196 -255 -246h-67v-10q97 0 294 -246q28 -61 28 -113q0 -172 -199 -237l-85 -9h-38q-189 0 -416 303q-6 85 -19 85zM52 173q0 -163 246 -189h9q237 27 237 179v19 q-30 180 -246 180h-10q-182 0 -236 -170v-19zM52 778q0 -146 246 -179h9q193 0 237 170v47q-40 161 -256 161q-186 0 -236 -170v-29zM90 173q0 99 161 142h85q170 -29 170 -152q-38 -132 -170 -132h-76q-170 35 -170 142zM99 778v29q0 83 152 123h85q170 -28 170 -133v-9 q0 -111 -170 -142h-76q-161 28 -161 132z" />
<glyph unicode=";" horiz-adv-x="826" d="M-3 156q0 222 302 274h57q139 0 369 -321l28 -151q0 -250 -312 -416l-85 -10h-47q-79 0 -217 170q-23 0 -29 85q0 81 95 123v19q-151 145 -161 227zM-3 837q56 226 293 226h28q232 0 416 -302l10 -76q0 -212 -293 -245h-57q-129 0 -359 283q-22 27 -38 114zM54 137 q0 -102 208 -151v-28q-27 -60 -142 -133v-94h113q191 0 312 312v113q0 199 -255 227q-189 0 -236 -199v-47zM54 799q0 -133 236 -161h9q217 0 246 180v37q0 133 -236 161h-19q-236 -28 -236 -151v-66zM92 156q0 136 207 180h10q161 0 198 -227q0 -181 -236 -322l-76 -9h-9 l-19 19q142 81 142 179v29q0 28 -132 57q-63 40 -85 94zM92 837q0 106 207 132q199 0 199 -161q-49 -123 -208 -123q-198 29 -198 152z" />
<glyph unicode="&#x3c;" horiz-adv-x="1342" d="M-6 591v265q0 83 368 227q670 340 719 340q189 -145 189 -208v-359q0 -80 -341 -218l-38 -37q331 -159 379 -312v-359q0 -46 -48 -76q-1134 521 -1134 586q-94 85 -94 151zM50 553q959 -491 1012 -491v284l9 94l-520 274q511 258 511 274v378q-1012 -463 -1012 -491v-322 zM88 620v189q0 61 180 122q714 360 746 360l10 -10v-227q0 -66 -246 -160q-280 -137 -283 -161v-38q6 -31 510 -264l19 -57v-218l-19 -18l-907 444z" />
<glyph unicode="=" horiz-adv-x="1471" d="M-6 438v161q0 94 66 94v19q-66 60 -66 123v161q0 94 94 94h1097q90 0 208 -170l9 -47v-199q0 -61 -47 -94q47 -45 47 -104v-198q0 -86 -85 -86h-1078q-90 0 -236 199zM50 391h1153v255h-1153v-255zM50 788h1153v255h-1153v-255zM88 467v104l29 28h1011l28 -28v-104 l-28 -29h-1011zM88 864v103l29 29h1011l28 -29v-103l-28 -29h-1011z" />
<glyph unicode="&#x3e;" horiz-adv-x="1348" d="M-6 92v340q0 89 284 189l104 66q-321 164 -388 331v340q0 56 57 76q57 -7 1068 -510q151 -139 151 -208v-265q0 -99 -198 -161l-870 -425q-208 166 -208 227zM51 73q52 0 1011 491v227l10 95q-896 453 -1021 491v-378l501 -274l-501 -274v-378zM89 158v227q0 66 245 161 q276 139 284 160v38l-520 284l-9 37v218q0 19 28 19l898 -445l9 -37v-189q0 -61 -160 -114q-736 -368 -766 -368z" />
<glyph unicode="?" horiz-adv-x="1646" d="M-22 1065v28q0 247 557 365l135 10q588 0 806 -365l125 -163v-39q0 -33 -125 -173q0 -64 -297 -172v-20q28 0 28 -48v-86q0 -130 -192 -192q96 -91 96 -211q-33 -231 -269 -231h-9q-163 0 -365 231q-67 69 -67 163q0 122 115 173q-192 164 -192 384q-84 17 -173 105 q-173 152 -173 241zM26 1084q26 -163 221 -163h67q202 0 202 163l-10 86q55 48 96 48h87q129 0 153 -105q-3 -28 -297 -164q-164 -115 -164 -230v-29q0 -229 221 -298l106 -9q288 49 288 153l10 29v67h-87q-48 -67 -77 -67l-38 29v10q0 105 269 172q153 60 240 173 q0 20 86 106q-107 114 -144 202q-203 153 -595 153h-39q-281 0 -537 -201q-58 -74 -58 -125zM74 1074v19q68 225 576 279q431 0 586 -173l96 -134v-20q-138 -198 -317 -240q-259 -83 -259 -192q12 -86 86 -86h10q77 12 77 57h29v-19q0 -93 -212 -134h-67q-176 0 -240 163 l-19 125q0 151 442 336l19 58v19q-33 134 -240 134q-113 0 -183 -86l10 -96v-48q-45 -77 -173 -77h-29q-171 0 -192 115zM458 133q0 -131 212 -154h48q182 33 182 144v58q-43 144 -182 144h-77q-140 0 -183 -144v-48zM497 143v19q0 109 192 125h9q164 -29 164 -125v-19 q0 -96 -164 -125h-9q-192 18 -192 125z" />
<glyph unicode="@" horiz-adv-x="2066" d="M-7 688q123 184 123 218q0 173 302 491q293 189 558 189q557 0 907 -614q0 -98 133 -255v-48q-91 -77 -170 -331q-157 -236 -256 -236l-19 -19q48 -54 95 -264q0 -94 -435 -133h-113q-567 0 -945 634q-80 285 -170 349v19h-10zM40 698q121 -129 152 -312 q212 -501 793 -501q239 0 473 66v9q0 97 -47 189q-262 -75 -426 -75q-456 0 -614 425q-28 116 -28 199q0 427 444 614q101 28 170 28h57q529 -66 529 -520q-60 -359 -198 -359h-10q-16 0 -47 57l104 567h-208q-10 -66 -28 -66q-79 94 -227 94q-270 0 -388 -330 q-19 -43 -19 -123v-57q0 -224 227 -331l66 -9h85q227 59 227 123h19q83 -104 170 -104h29q266 0 387 444l85 113q-98 106 -161 322q-218 368 -680 368h-19q-629 0 -822 -709zM116 698q65 83 151 359q262 435 709 435q488 0 680 -473q0 -57 95 -180q-66 -75 -151 -330 q-130 -180 -246 -180h-19q-90 0 -170 123h-28q-148 -139 -274 -151q-244 0 -303 330q75 435 378 435q108 0 208 -104h38q18 0 47 76l38 9h47l19 -19q-85 -439 -85 -519v-10q0 -52 57 -85h56q187 51 218 369v113q0 353 -454 482l-142 10q-539 0 -680 -577v-189 q0 -424 501 -577l132 -9h76q149 0 368 47l19 -94q-174 -57 -397 -57h-37q-563 0 -757 558q0 75 -94 208zM607 291q19 -94 95 -94h9q0 31 -104 104v-10zM721 613q31 -180 170 -180h38q175 0 227 246v75q-32 170 -161 170h-57q-164 0 -217 -245v-66zM759 641q54 246 208 246 q116 0 151 -170q-46 -237 -208 -237q-115 0 -151 161zM976 556h28l48 85l-10 9q-43 0 -66 -94zM1108 1132l19 -19h29l9 29h-57v-10z" />
<glyph unicode="A" horiz-adv-x="2122" d="M-8 83v133q0 105 152 105q50 0 142 304v76l-28 95q247 253 247 294q119 333 180 333h580q72 0 228 -219q121 -332 228 -408q123 -103 123 -143l-38 -142q42 -209 133 -209q171 -146 171 -200v-209q0 -85 -85 -85h-874q-37 0 -86 47h-19q-33 -47 -95 -47h-712 q-79 0 -219 171q-28 0 -28 104zM49 7h788v228l-133 48l-19 38q0 85 114 95h190q133 0 133 -86q0 -60 -152 -85l10 -67v-171h931v238l-124 47q-155 171 -180 371v9q12 84 38 114q-238 241 -238 276q-92 243 -142 304h-580q-26 -22 -190 -390q-190 -173 -190 -190 q38 -76 38 -133q-94 -389 -256 -389h-38v-257zM87 83v105l142 76q126 191 152 342v66l-9 114q174 102 332 532l48 10h446q66 0 124 -200q49 -159 256 -351l-19 -114q0 -139 162 -390q142 -64 142 -85v-105l-28 -28h-789l-28 28v105q0 19 123 57l19 38v76q0 79 -95 95h-323 q-85 0 -95 -114v-57q36 -76 143 -76l9 -48v-76l-28 -28h-656zM761 615l29 -28h199l29 28v10q-79 285 -114 285h-29q-41 0 -114 -285v-10zM809 644q66 199 85 199q67 -164 67 -209l-10 -9h-123z" />
<glyph unicode="B" horiz-adv-x="2195" d="M10 80v95q6 114 114 114l38 47v124q0 42 -114 199q114 168 114 228v38q0 50 -143 171l-9 57v181q0 76 76 76h1282q445 0 684 -428l19 -95q0 -157 -161 -294q218 -219 218 -390q0 -345 -684 -408h-1149q-117 0 -190 114q-95 57 -95 171zM67 4h1244q438 0 589 237l19 76v76 q0 202 -332 314v19l180 85q95 93 95 181v76q0 208 -408 285l-209 9h-1178v-247q138 0 152 -190q0 -116 -124 -256q124 -155 124 -266q0 -135 -143 -181l-9 -9v-209zM105 70v95q134 88 142 124l10 57v114q0 92 -95 199q95 141 95 219v114q0 108 -143 171l-9 38v85l28 29h1216 q348 0 466 -238l9 -38q0 -172 -199 -237q-95 -27 -95 -57v-19q0 -63 228 -152q123 -107 123 -228q0 -266 -655 -304h-1093zM789 279q19 -47 66 -47h295q94 0 142 142v67q0 126 -142 171h-295q-47 0 -66 -48v-285zM789 849q21 -47 95 -47h237q152 25 152 161v29 q0 111 -123 142h-295q-47 0 -66 -47v-238zM827 355v133q0 86 66 86h200q134 0 161 -171q-40 -133 -180 -133h-181q-66 0 -66 85zM827 916v95q0 85 66 85h200q106 0 142 -114q-31 -133 -133 -133h-209q-66 0 -66 67zM1036 327h85l48 9v19l-10 10v9l-47 -9h-76v-38z" />
<glyph unicode="C" horiz-adv-x="1999" d="M-40 684v19q113 142 152 295q292 456 826 456h86q133 0 351 -95q73 76 133 76h190q91 0 209 -171l9 -48v-522q0 -67 -66 -105v-9q57 -60 66 -95q0 -471 -323 -608q-228 -95 -484 -95q-602 0 -1007 636q-12 110 -142 266zM7 694q101 -105 171 -333q272 -370 770 -370h19 q533 0 683 275q57 122 57 371h-446q0 -342 -237 -342q-202 0 -219 266v228q0 275 171 323l38 9q215 0 247 -313h456v579h-238l-104 -85q-213 104 -399 104q-620 0 -845 -484q0 -66 -124 -228zM74 694q76 94 133 285q281 380 722 380h66q126 0 352 -95h47q34 0 123 76h124 l28 -29v-437l-28 -28h-294q-76 0 -76 161q-75 152 -209 152h-76q-219 -37 -219 -275v-418q47 -209 219 -209h85q201 0 238 323l9 9h323l19 -19v-38q0 -305 -275 -427q-181 -67 -333 -67h-19l-9 -9l-10 9h-9l-57 -9q-493 0 -751 418q-44 165 -123 247zM1014 352h57 q104 0 124 161q0 171 104 171v19q-104 94 -104 209h-57q-95 0 -124 -161v-399z" />
<glyph unicode="D" horiz-adv-x="2300" d="M0 80v67q0 142 114 142q38 33 38 95v38q0 89 -123 228q123 176 123 247v29q0 42 -142 180l-10 57v162q0 95 95 95h1045q683 0 969 -637q0 -50 133 -247v-9q0 -21 -76 -105q-36 -45 -95 -228q-271 -389 -665 -389h-1159q-79 0 -218 171q-29 0 -29 104zM57 4h1159 q567 0 741 570l85 95q-128 167 -142 285q-106 239 -342 342q-173 76 -608 76h-893v-237q142 -63 142 -190v-19q0 -121 -113 -266v-10q113 -131 113 -247v-28q-26 -152 -142 -152v-219zM95 80v57q0 58 76 76q76 46 76 190v10q0 110 -95 247q95 146 95 228v38q0 170 -114 228 q-38 0 -38 28v114l29 29h987q558 0 732 -380q53 -174 123 -257v-19q-70 -70 -123 -266q-240 -351 -589 -351h-1130zM760 270q19 -47 66 -47h219q247 53 247 456q0 375 -247 465h-219q-47 0 -66 -47v-827zM798 346v675q0 85 66 85h124q203 0 256 -399v-57q0 -319 -228 -389 h-152q-66 0 -66 85zM1007 318h28q162 51 162 361q-12 218 -48 218h-142v-579z" />
<glyph unicode="E" horiz-adv-x="2152" d="M0 37v161q0 95 104 95q47 30 47 76v85q0 53 -113 199v18l85 133q28 48 28 95v56q-151 148 -151 190v198q0 67 66 67h1808q40 0 151 -123q38 -23 38 -67v-605q0 -67 -85 -67l85 -94v-596q0 -57 -57 -57h-1788q-54 0 -209 180zM57 0h1807v567h-473v-104q0 -182 -161 -217 h-350q-85 12 -85 85v208q6 57 28 57h57q93 0 114 -123h227v454h-237q0 -45 -28 -104h-114q-49 0 -57 28v180q0 51 38 66h417q128 0 151 -217v-123h473v605h-1807v-236q151 -26 151 -133v-85q0 -98 -123 -246q123 -120 123 -227v-57q0 -142 -151 -142v-236zM95 47v151 q120 0 151 161v95q0 87 -104 217q104 124 104 218v123q0 102 -151 152v151h1722v-520h-388v132q0 158 -199 208h-426q-58 0 -66 -189v-76q13 -94 104 -94h66q114 9 114 104h161v-369h-142q-56 93 -76 94q-26 29 -104 38q-113 0 -113 -123v-142q0 -170 113 -170h369 q173 0 199 236v86h388v-483h-1722zM994 302h94l-85 86h-9v-86z" />
<glyph unicode="F" horiz-adv-x="2066" d="M-4 1138v208q0 67 66 67h1760q63 0 199 -180v-559q0 -75 -76 -75h-416q-39 0 -104 66v-322q0 -94 -76 -94h-180q-66 0 -170 113v-85q170 -118 170 -208v-199q0 -66 -66 -66h-889q-41 0 -114 85q-95 79 -95 123v237q0 37 86 37q66 38 66 133q0 98 -123 246v19l85 132 q38 67 38 133q-161 136 -161 189zM53 3h908v217q0 19 -47 19q-123 71 -123 133v189l19 38h66q104 0 114 -142h227v473h-237q-7 -104 -38 -104h-104q-49 0 -57 28v180q0 51 38 66h369q171 -54 171 -189v-104h454v558h-1760v-246q132 0 151 -142v-66q0 -98 -123 -237 q123 -109 123 -246v-66q0 -99 -151 -132v-227zM91 1157v161h1684v-473h-378v85q0 139 -190 208h-350l-9 10q-104 -20 -104 -95v-218q34 -56 113 -56h47q114 9 114 104h161v-388h-142q-19 0 -28 75q-63 67 -114 67h-95l-47 -57v-227q0 -74 151 -152h19v-151h-823v151 q152 27 152 218q0 117 -105 255v10q105 137 105 265q0 162 -152 208h-9z" />
<glyph unicode="G" horiz-adv-x="2367" d="M-12 655v47q108 121 151 265q240 464 975 464q253 0 502 -104q53 76 113 76h218q78 0 170 -123l57 -57v-445q151 -147 151 -189v-189q0 -76 -113 -76q-38 -26 -38 -66v-379q0 -66 -76 -66h-179q-76 0 -123 66h-19q-458 -104 -653 -104q-584 0 -985 596q-39 190 -151 284z M35 674q133 -111 133 -237q236 -454 823 -454q211 0 644 104h9q76 -7 76 -66h255v435q51 86 152 86v189h-899v-199q151 -17 151 -104q0 -131 -208 -151q-213 0 -284 217v341q0 175 170 246l76 19h28q162 0 294 -142l19 -123h492v19h9l-9 9v483h-256l-85 -76h-9 q-260 104 -521 104q-748 0 -937 -501q0 -48 -123 -199zM102 683q78 101 132 275q252 378 861 378q234 0 502 -104h47l95 76h189v-426h-407q-19 0 -19 76q-132 180 -322 180h-66q-265 -62 -265 -265l-9 -123v-123q0 -388 340 -388q237 21 237 180v9q0 132 -151 132v133h813 v-114q-151 -45 -151 -151v-369h-180q0 49 -85 66h-47q-437 -104 -653 -104q-419 0 -682 312q-61 79 -113 256zM1086 504l9 -161l95 -10q113 17 113 48q-132 111 -132 161v179q0 67 66 67h208q-28 30 -28 85l-57 19h-85q-126 0 -180 -161l-9 -161v-66z" />
<glyph unicode="H" horiz-adv-x="2281" d="M-10 1129v217q0 67 66 67h890q39 0 104 -67q0 67 57 67h918l170 -171v-293q-6 -25 -132 -66l-19 -76q0 -106 123 -256v-47q-123 -142 -123 -218l170 -170v-274l-38 -38h-908q-39 0 -105 66q0 -66 -66 -66h-889q-41 0 -114 85q-95 79 -95 123v237q0 37 105 37l47 48v113 q0 56 -114 199v19l95 161l19 85v19q-161 154 -161 199zM47 3h908v236q-131 0 -151 104l-10 38v189l38 38h398l28 -28v-218q0 -95 -151 -123v-236h899v236q-100 0 -161 95v113q0 95 113 218v9q-113 132 -113 256v66q0 96 142 114v255h-890v-255h29q53 0 123 -76v-189 q-10 -29 -57 -29h-331q-76 0 -76 57v95q0 142 151 142v255h-889v-255q122 0 151 -114v-113q0 -89 -113 -218q113 -125 113 -208v-152q-47 -75 -132 -75h-19v-227zM85 1148v170h813v-170q-119 0 -151 -161v-133q0 -75 95 -75h369q85 0 85 85v94q0 138 -114 180l-37 10v170 h804v-170q-127 0 -151 -190v-19q0 -120 104 -265v-9q-104 -116 -104 -274q0 -132 132 -180l38 -10v-151h-823v151q151 48 151 142v237q0 66 -66 66h-398q-75 0 -75 -76v-208q0 -102 113 -151l47 -10v-28l-9 -10l9 -9v-104h-823v142q133 0 152 161v94q0 87 -105 218 q105 130 105 256v9q0 157 -105 199zM1003 286l47 -47q0 47 113 66l38 48v47h-198v-114zM1012 873h189v38q0 39 -47 76v9h-9q0 -94 -105 -94z" />
<glyph unicode="I" horiz-adv-x="1213" d="M-10 80v57q0 142 123 142q29 24 29 57v132q0 51 -114 189q114 163 114 208v75q0 45 -152 190v207q0 76 76 76h851q90 0 208 -170l9 -47v-180q0 -94 -104 -94q-38 -33 -38 -67v-122q0 -30 114 -218q-114 -158 -114 -198v-48q161 -148 161 -217v-161q0 -85 -85 -85h-832 q-78 0 -217 170q-29 0 -29 104zM47 5h907v217q-170 19 -170 142v38q0 115 114 255v9q-114 145 -114 265v19q0 180 151 180v236h-888v-236q138 0 151 -190v-9q0 -120 -113 -265v-9q113 -135 113 -255v-47q0 -116 -151 -142v-208zM85 80v48q0 50 113 94q38 40 38 76v170 q0 65 -85 198q85 127 85 199v142q0 104 -142 170l-9 38v75l28 29h747l28 -29v-75q0 -54 -94 -85q-48 -64 -48 -114v-151q0 -78 95 -208q-40 0 -95 -189v-180q18 -57 161 -123v-85l-28 -28h-766z" />
<glyph unicode="J" horiz-adv-x="1698" d="M-10 344q0 207 199 284q76 28 141 28h10q194 0 293 -76h28v369q-170 161 -170 217v180q0 85 85 85h841q91 0 208 -170l10 -47v-189q0 -95 -95 -95q-28 -36 -28 -85v-47q0 -83 123 -246q-123 -181 -123 -236q0 -366 -416 -482l-265 -38q-525 0 -765 340q-76 69 -76 208z M37 344q0 -340 643 -340h38q480 0 595 359q0 215 104 303l10 28q-114 145 -114 264v19q0 161 123 161v246h-898v-246q170 -28 170 -151v-643q0 -52 -56 -85h-38l-19 19v19q47 58 47 113v29q0 170 -283 170q-322 0 -322 -265zM85 354q28 198 198 198l57 10q233 0 264 -133 q-9 -50 -56 -113v-57l47 -47h38q123 9 123 123v671q0 113 -171 189v113l29 29h746l29 -29v-85q0 -44 -76 -85q-47 -46 -47 -170v-28q0 -104 94 -256v-9q-101 -89 -103 -340q-161 -293 -577 -293q-586 37 -586 245z" />
<glyph unicode="K" horiz-adv-x="2241" d="M-13 1174v142q0 94 95 94h813q55 0 94 -38q39 38 95 38h803q90 0 208 -170l9 -47v-208q0 -85 -179 -85l-303 -208v-19q321 -369 369 -369q50 0 198 -189v-227q0 -85 -85 -85h-860q-60 0 -113 57h-19q0 -57 -85 -57h-794q-89 0 -227 189l-9 48v151q0 104 104 104l47 57v75 q0 81 -123 227q113 167 113 227v56q0 43 -141 180zM44 2h869v246q-141 23 -141 113v57q0 58 151 123l198 -227v-19q-28 -47 -66 -47v-246h936v236q0 23 -76 28l-520 558v19q350 274 511 274v246h-860v-236q75 -54 75 -76q0 -49 -321 -208q-28 9 -28 57v75q0 110 141 142v246 h-869v-236q122 0 151 -161v-29q0 -110 -113 -283q113 -135 113 -255v-19q0 -110 -151 -151v-227zM82 1212v75l28 29h728l28 -29v-113q0 -22 -75 -47q-57 -53 -57 -95v-170q9 -76 85 -76q272 145 340 218v66q0 39 -66 94v123l28 29h709l29 -29v-104q0 -28 -142 -56 q-357 -230 -369 -265v-28q0 -68 416 -482q102 -130 180 -152v-123l-29 -28h-794l-28 28v85q0 32 76 114v57q-178 255 -256 255h-28q-161 -89 -161 -151v-85q0 -100 133 -152l9 -38v-85l-28 -28h-718l-29 28v95q151 99 151 180v56q0 109 -94 255v10q85 121 85 189v161 q0 82 -142 151zM980 276l18 -19q43 38 67 38v9q0 19 -29 19q-39 -13 -56 -47z" />
<glyph unicode="L" horiz-adv-x="1925" d="M-16 1179v142q0 94 94 94h832q91 0 208 -170l10 -47v-180q0 -104 -114 -104l-28 -38v-567h66q76 48 76 104v170q0 95 94 95h416q90 0 208 -170l9 -48v-567q0 -85 -85 -85h-1540q-90 0 -227 189l-10 48v170q0 69 123 94l19 57v113q0 51 -113 189q113 172 113 227v47 q0 43 -142 180zM41 7h1616v624h-473v-152q0 -226 -217 -226h-57q-132 0 -132 113v576q0 190 151 190v236h-888v-236q122 0 151 -161v-19q0 -136 -123 -274q123 -136 123 -265v-19q-32 -160 -151 -160v-227zM78 1217v75l29 29h746l29 -29v-75q0 -48 -104 -95 q-38 -72 -38 -113v-700q13 -94 95 -94h198q148 0 189 198v142l28 28h331l29 -28v-473l-29 -28h-1465l-28 28v67q0 59 94 85q48 63 48 113v132q0 79 -85 189v19q85 120 85 199v142q0 80 -142 151z" />
<glyph unicode="M" horiz-adv-x="2656" d="M-20 1173v142q0 94 95 94h832q114 0 245 -236q57 -167 95 -189q157 408 208 425h917q90 0 208 -170l9 -47v-180q0 -104 -113 -104l-29 -38v-104q0 -66 114 -226v-19q-114 -154 -114 -218v-19q161 -148 161 -217v-180q0 -85 -85 -85h-794q-66 0 -170 114h-19 q-19 0 -38 -85q-36 -29 -85 -29h-246q-69 0 -198 142q0 -142 -104 -142h-643q-89 0 -227 189l-9 48v170q0 64 142 113l9 47v48q0 74 -123 236q114 160 114 208v75q0 43 -142 180zM37 1h718v236q-160 0 -160 170v407l9 47h19q28 -2 359 -860h312q24 21 350 860h28l10 -47 v-435q0 -91 -142 -161v-217h869v236q-170 23 -170 142v9q0 142 123 284q-123 157 -123 283q16 171 152 171v236h-927q-21 -18 -264 -605h-10l-264 605h-889v-236q122 0 151 -161v-38q0 -126 -113 -265v-18q113 -127 113 -256v-28q0 -69 -151 -142v-217zM75 1211v75l28 29 h747q68 0 94 -133q192 -456 227 -491h38q40 32 274 614l47 10h785l28 -29v-75q0 -48 -104 -95q-38 -72 -38 -113v-114q0 -66 95 -227q-95 -101 -95 -198v-132q0 -78 161 -152v-104l-28 -28h-728l-28 28v95q141 94 141 151v558q-15 38 -66 38q-67 0 -170 -341l-217 -519 l-38 -10h-170q-65 0 -114 199l-283 661h-66l-38 -38v-529q0 -105 151 -151l10 -10v-104l-29 -28h-576l-29 28v76q0 51 123 104l29 95v47q0 108 -95 264q85 125 85 199v161q0 82 -142 151z" />
<glyph unicode="N" horiz-adv-x="2247" d="M-9 1199v84q0 123 93 123h789q143 -18 338 -357l141 -188h9v76q0 42 -140 178l-10 56v141q0 94 94 94h647q90 0 206 -169l10 -47v-179q0 -93 -94 -93l-38 -47v-103q0 -80 113 -217v-46q-113 -134 -113 -207v-366q0 -122 -93 -122h-601q-77 0 -290 291l-170 263h-28v-75 q0 -42 131 -169l10 -84v-122q0 -104 -94 -104h-676q-61 0 -225 207v178q0 94 84 94q67 40 67 57v74q0 87 -122 235q122 175 122 253v19q0 41 -151 188zM47 1124q150 -20 150 -151v-46q0 -119 -113 -262v-10q113 -139 113 -254v-37q0 -72 -141 -140v-217h732v235 q-141 30 -141 140v357l19 19q453 -701 507 -741h657v365q0 142 122 283v18q-122 122 -122 273q26 168 141 168v235h-704v-235q137 0 150 -197v-310h-10l-525 742h-835v-235zM84 1190v93l29 29h713q62 0 235 -291q285 -426 337 -470h28l29 29v422q0 109 -141 169l-9 38v74 l28 29h563l28 -29v-74q0 -44 -85 -94q-46 -52 -46 -113v-113q5 -99 93 -215v-9q-93 -125 -93 -207v-376l-29 -27h-535q-58 0 -159 196q-387 572 -404 572h-28l-27 -27v-469q0 -72 131 -132l9 -56v-57l-28 -27h-601l-28 27v94q141 91 141 141l9 38v56q0 136 -103 244 q103 136 103 263v28q0 158 -103 206q-38 0 -57 38z" />
<glyph unicode="O" horiz-adv-x="2288" d="M-28 677v10q0 31 103 168q76 288 244 395q274 197 696 197h27q728 0 1052 -611q21 -123 141 -272v-19q0 -20 -84 -122q-120 -326 -263 -413q-295 -225 -705 -225q-687 0 -1070 619q-24 144 -141 273zM18 695q77 -87 179 -356q280 -348 771 -348h150q552 0 789 460 q17 114 132 236q-93 107 -170 347q-244 357 -770 357h-160q-603 0 -789 -441q-29 -126 -132 -255zM84 695q75 103 151 329q225 329 799 329q662 0 835 -460q16 -82 103 -206q-44 -17 -159 -320q-273 -338 -789 -338q-555 0 -808 385q-60 190 -132 281zM751 659 q0 -451 254 -451h47q208 0 245 365v179q-37 432 -245 432h-37q-264 -67 -264 -451v-74zM789 687q39 425 226 450h19q146 0 206 -272l19 -170q0 -441 -235 -441t-235 433zM996 508q5 -207 38 -207h8q141 0 160 291v141q0 123 -27 207h-29q-150 -92 -150 -376v-56z" />
<glyph unicode="P" horiz-adv-x="2130" d="M-12 1161v150q0 95 94 95h1391q307 0 564 -405q29 -100 29 -169q0 -326 -366 -442l-133 -10h-564v-84q188 -137 188 -225v-169q0 -95 -93 -95h-866q-88 0 -225 188l-10 48v169q0 69 122 94l29 74v57q0 86 -113 217v9q0 26 94 169l19 75v10q0 41 -151 188zM45 5h939v244 q-187 0 -187 179v75q0 85 84 85h649q217 0 328 300v160q0 205 -318 301l-160 10h-1335v-244q150 -29 150 -151v-28q0 -120 -113 -263q113 -145 113 -255v-28q0 -114 -141 -160l-9 -9v-216zM82 1199v84l28 28h1344q368 -54 368 -338q0 -220 -255 -329l-131 -19h-630l-47 -47 v-216q0 -137 179 -159l9 -10v-114l-28 -27h-800l-28 27v95q141 92 141 160l10 84v10q0 114 -94 245q94 144 94 225v38q0 154 -94 196q-66 13 -66 67zM740 860q21 -46 94 -46h282q123 8 123 122v84q0 62 -85 112h-348q-66 0 -66 -65v-207zM778 926v103q0 67 65 67h236 q122 -12 122 -123q-13 -113 -95 -113h-263q-65 0 -65 66z" />
<glyph unicode="Q" horiz-adv-x="2397" d="M-40 689v37q75 75 182 347q302 394 905 394h9q764 0 1106 -616q33 -155 154 -288v-48q-144 -161 -144 -298l115 -135l19 -77v-29q0 -230 -240 -327q-102 -29 -173 -29q-199 0 -356 183h-10l-355 -19h-10q-703 0 -1067 644q0 113 -135 261zM7 707q130 -162 154 -317 q233 -404 886 -404l326 19l193 -154l125 -19h134q270 59 270 231v135h-144q0 -52 -87 -87q-60 19 -67 48v20q211 176 211 364q107 116 107 154q-55 0 -183 357q-253 366 -953 366q-458 0 -779 -337q-61 -107 -115 -269zM75 707q73 99 135 298q285 366 827 366 q734 0 914 -500q0 -64 96 -182q-70 -80 -144 -327l-154 -154v-78q33 -57 86 -57h58q36 0 115 77h20q29 0 29 -39q0 -204 -308 -240q-176 0 -308 163l-58 20l-318 -20h-76q-598 0 -808 452q-8 95 -106 221zM767 650q0 -154 87 -154l183 39l192 -49h58l48 49v220 q0 318 -173 433l-77 20h-67q-251 0 -251 -558zM816 660v76q0 352 212 433h28q241 -53 241 -462v-105q0 -47 -49 -77l-173 48h-57q-113 -4 -154 -30q-48 0 -48 117zM874 294q0 -91 134 -106h96q135 0 135 125q0 106 -125 106h-115q-125 -12 -125 -96v-29zM921 313v10 q0 48 144 58q126 0 126 -78q0 -58 -135 -76q-135 0 -135 86zM1028 631l201 -39h10v173q0 109 -29 193h-57q-125 -93 -125 -289v-38z" />
<glyph unicode="R" horiz-adv-x="2343" d="M-21 1169v152q0 94 94 94h1397q368 0 632 -416l19 -122q0 -198 -236 -283v-28q108 -142 142 -142q92 0 197 -142q48 -13 48 -122q0 -222 -179 -311q-147 -66 -283 -66q-328 0 -538 283q-113 87 -113 311h-161v-57q0 -42 151 -188l10 -85v-132q0 -104 -94 -104h-841 q-89 0 -226 189l-10 47v169q0 71 123 95l28 75v47q0 85 -122 237q122 181 122 235v28q0 31 -151 179zM36 9h914v245q-160 17 -160 151v95q0 85 85 85h85q265 0 265 -359q0 -168 320 -236h179q287 0 340 236v141l-28 10l-104 -10h-9q-6 -66 -28 -66h-29q-26 0 -56 237 q-79 120 -190 160l-28 28q3 19 198 85q124 75 124 179v75q0 252 -491 303h-1387v-246q122 0 150 -160v-19q0 -138 -122 -264q122 -148 122 -274v-10q0 -114 -141 -160l-9 -9v-217zM73 1207v86l28 28h1350q275 0 406 -218l19 -75q0 -167 -312 -245l-19 -29v-56l151 -104 q104 -86 104 -302q26 -38 66 -38h48l75 75h9l29 -28q0 -273 -359 -273q-415 0 -415 349q-32 246 -217 246h-236l-47 -48v-217q0 -115 150 -151l10 -9v-114l-28 -28h-774l-28 28v95q141 92 141 160l9 85q0 100 -94 255q94 134 94 254v19q0 159 -150 217zM743 858 q31 -56 104 -56h265q169 0 169 131v85q-20 142 -141 142h-312q-57 0 -85 -57v-245zM781 933v95q0 94 122 94h171q170 0 170 -151q-12 -122 -123 -122h-255q-85 0 -85 84zM998 896h133l18 19h-151v-19z" />
<glyph unicode="S" horiz-adv-x="2030" d="M-61 927l163 268q283 270 663 270h67q124 0 519 -96q38 67 115 67h153q118 0 211 -134q49 -22 49 -97v-326q0 -77 -78 -77h-86v-19q202 -192 231 -327q96 -110 96 -144q-115 -147 -163 -259q-226 -268 -691 -268q-345 0 -567 86h-29q-61 -76 -125 -76h-183 q-90 0 -230 191l-10 48v345q0 97 96 97h154v10q-250 242 -250 316zM-3 927l163 -240q313 -231 758 -231q102 -25 134 -86v-58q-49 -86 -259 -86q-230 0 -374 192h-327v-422h251q57 77 105 77q222 -77 499 -77h183q409 0 585 288q7 43 115 172v11q-112 146 -125 230 q-68 123 -316 201q-644 112 -644 182v20q59 86 183 86q237 0 442 -182h297v375h-240q-59 -58 -86 -58q-393 96 -528 96q-602 -23 -730 -365q-86 -97 -86 -125zM64 937q127 217 182 268q261 164 538 164h29q122 0 518 -96q58 0 135 67h134l29 -28v-232l-29 -28h-173 q-32 0 -182 105q-120 67 -308 67h-38q-201 -13 -201 -134v-10q0 -105 249 -143q634 -112 634 -192q57 -20 153 -240l29 -38l-134 -231q-216 -202 -586 -202h-10q-325 0 -566 87h-38q-40 0 -135 -77h-125l-29 29v278l29 28h183q48 0 96 -86q185 -105 269 -105h172 q212 15 212 134v29q0 164 -346 164q-410 70 -548 201l-115 182z" />
<glyph unicode="T" horiz-adv-x="2168" d="M-4 861v485q0 85 85 85h1803q90 0 208 -171l10 -48v-502q0 -95 -95 -95h-417q0 -64 -104 -191l-10 -47v-66q180 -174 180 -218v-190q0 -85 -85 -85h-863q-79 0 -219 171q-29 0 -29 104v104q7 114 114 114l47 57v152q0 56 -56 95h-323q-90 0 -237 199zM43 823h474v152 q0 114 76 152h48q38 -13 38 -86v-47q0 -110 -114 -284q114 -136 114 -257v-10q0 -148 -152 -199l-10 -9v-218h940v218q0 23 -76 28q-114 57 -114 180v19q0 119 114 257v10q-114 158 -114 275v37q0 86 57 86q105 -30 105 -105v-199h474v561h-1860v-561zM91 890v418l28 28 h1708l28 -28v-418l-28 -29h-322l-29 29v142q0 123 -162 142q-95 0 -95 -142v-47q0 -118 95 -247q-85 -164 -85 -199v-162q0 -109 181 -180v-104l-29 -29h-797l-29 29q0 142 76 142q86 73 86 142v143q0 62 -86 199v10q96 141 96 218l-10 104v66q-19 38 -57 57h-48 q-133 -16 -133 -133v-151l-28 -29h-332z" />
<glyph unicode="U" horiz-adv-x="2177" d="M-12 1174v162q0 95 96 95h854q60 0 113 -57h10q0 45 76 57h759q90 0 208 -171l10 -48v-199q0 -95 -104 -95q-38 -26 -38 -66v-19q0 -86 113 -227v-48q-123 -120 -123 -285q-86 -261 -284 -360q-216 -114 -503 -114q-681 0 -1006 540l-57 248l-86 104v9q0 26 96 171l9 38 v38q0 43 -134 170zM45 1127q117 0 143 -152q0 -117 -114 -265q124 -148 124 -333q65 -178 341 -303q213 -67 437 -67h104q533 0 674 389q0 166 132 333q-123 164 -123 275q0 91 152 123v257h-797v-248q147 0 180 -123v-493q0 -210 -275 -238q-216 0 -247 267v407 q7 180 181 180v248h-912v-257zM84 1212v96l28 28h769l28 -28v-105l-133 -86q-38 -39 -38 -95v-550q0 -171 238 -228h113q206 0 256 238v531q0 125 -180 171l-9 9v115l28 28h655l28 -28v-96q0 -49 -94 -85q-48 -54 -48 -95v-85q0 -75 95 -218q-74 -77 -123 -342 q-150 -342 -674 -342q-577 0 -778 342q0 174 -104 323q94 146 94 237q-16 208 -123 208q-28 24 -28 57zM985 339h85q180 31 180 143v427q0 50 -75 104h-19q0 -85 -124 -85q-47 -37 -47 -76v-513z" />
<glyph unicode="V" horiz-adv-x="2146" d="M-19 1143v192q0 96 95 96h834q63 0 134 -77h19q0 77 96 77h689q102 0 230 -202v-219q0 -97 -115 -97q-84 -56 -153 -277l-9 -68l38 -153q-221 -227 -221 -248q-125 -364 -191 -364h-575q-99 0 -268 239q-89 279 -287 450q-31 0 -57 58l28 105v67q-55 211 -115 211 q-172 166 -172 210zM29 1134l115 -58q132 -156 182 -382l-38 -144q193 -140 268 -316q70 -193 104 -221h623q25 15 153 354q192 192 192 212l-28 143q83 402 277 402v249h-766v-249q105 0 133 -114v-20q0 -53 -210 -440h-9l-192 469q30 105 106 105v249h-910v-239zM76 1181 v125l29 29h767l29 -29v-96q0 -47 -87 -96l-19 -66v-49q0 -69 210 -507h49q55 26 239 489v29q0 107 -125 162l-9 38v96l29 29h613l28 -29v-96q0 -53 -86 -76q-96 -52 -192 -364v-58l20 -133q-166 -98 -316 -518l-39 -9h-488q-68 0 -115 182q-108 243 -258 325l9 115v67 q0 82 -162 364q-116 55 -126 76zM1044 866l29 -96h19q96 160 96 201v10l-29 29q-32 -97 -105 -97z" />
<glyph unicode="W" horiz-adv-x="2834" d="M2 1143v190q0 95 95 95h760q60 0 113 -57h28q0 57 114 57h636q61 0 114 -57h9q38 57 105 57h597q90 0 228 -190l9 -47v-171q0 -123 -94 -123q-121 0 -172 -304v-19q0 -55 48 -133v-47q-247 -230 -247 -418q-51 -161 -85 -161l-47 -9h-475q-41 0 -189 152q-22 4 -86 161 h-9q-99 -304 -133 -304l-48 -9h-492q-89 0 -248 208q-132 436 -217 436l-86 105q48 108 48 152v28q0 142 -124 200q-152 139 -152 208zM59 1115q0 -14 114 -48q79 0 152 -360l-38 -161q189 -153 219 -295q67 -231 94 -246h559l181 521h19l199 -521h532q12 0 132 360l170 199 q-47 83 -47 171q55 370 247 370h10v266h-674v-256q104 0 104 -105q-13 -86 -170 -493h-10q-54 69 -189 512q0 86 113 86v256h-730v-256q80 0 104 -114l-170 -465h-10q-23 0 -180 436l-9 38q15 105 103 105v256h-825v-256zM97 1191v114l29 28h693l27 -28v-105q0 -52 -76 -76 l-27 -76v-76q169 -502 208 -502h29q47 0 208 502v57q0 82 -94 133l-10 38v105l28 28h588l29 -28v-124q-4 -22 -76 -47q-38 -50 -38 -105v-9q177 -570 218 -570h29q44 0 208 513v95q0 57 -85 104l-9 38v105l28 28h531l29 -28v-133q0 -19 -134 -67q-65 -59 -132 -351v-28 l29 -162q-190 -176 -190 -302l-76 -201l-38 -9h-408q-41 36 -228 522l-9 10h-47q-30 0 -199 -512l-29 -20h-436q-69 0 -105 190q-71 221 -218 332q28 89 28 161v10q-86 351 -161 351q0 13 -104 57zM989 840q6 -57 29 -57h9l38 114v18q-70 0 -76 -28v-47zM1862 878l28 -95h10 q19 0 56 123h-76q-18 0 -18 -28z" />
<glyph unicode="X" horiz-adv-x="2186" d="M-23 1155v183q0 96 124 96h873q55 0 105 -38h19q37 38 125 38h613q111 0 239 -202v-220q0 -105 -172 -105q-63 -17 -345 -307q245 -316 422 -316q163 -157 163 -201v-192q0 -86 -87 -86h-890q-61 0 -106 48h-29q0 -48 -86 -48h-718q-62 0 -230 210v212q0 86 181 86 q50 0 383 345q-192 267 -402 267q-182 173 -182 230zM25 1127q186 0 450 -316l163 -153q-410 -403 -498 -403h-86v-249h776v230q-43 0 -68 67q0 33 135 134q81 0 154 -134q-32 -67 -77 -67v-230h968v221q0 23 -97 28q-60 8 -517 489q379 383 488 383h58v249h-728v-230 q38 0 77 -57v-38q-73 -90 -134 -115q-54 17 -144 124v29l67 66v221h-987v-249zM73 1194v115l28 29h835l28 -29v-86q0 -30 -67 -115v-29q0 -92 163 -191h29q181 75 181 163v38q0 38 -76 115v105l29 29h575l29 -29v-115q0 -22 -154 -57q-331 -287 -403 -384v-29 q434 -484 614 -536l9 -38v-67l-28 -29h-825l-28 29v67q0 38 77 105l9 48q0 118 -191 191q-86 -26 -183 -143v-67q0 -34 68 -115v-86l-30 -29h-641l-29 29v95q0 23 192 77q402 363 402 383v20q0 65 -431 450q-182 60 -182 86z" />
<glyph unicode="Y" horiz-adv-x="2146" d="M-55 1166v180q0 85 104 85h918q91 0 132 -47h20q45 47 104 47h615q116 0 189 -114q75 -47 75 -122v-171q0 -114 -151 -114l-491 -464v-151q179 -147 179 -227v-170q0 -85 -85 -85h-852q-91 0 -236 199l-9 47v122q0 105 132 105q47 37 47 76v198q-298 314 -530 388 q-161 148 -161 218zM2 1119q123 0 568 -417q113 -91 113 -142v-208q0 -99 -170 -122v-218h927v227h-56q-119 0 -133 170v142q0 87 198 236q343 332 399 332l47 9v246h-720v-237q29 0 76 -66v-38q-29 -44 -141 -123q-43 0 -152 142q0 42 66 94v228h-1022v-255zM40 1204v104 l29 28h889l28 -28v-95q0 -33 -66 -104v-76q0 -68 161 -170h47q142 91 170 151v48q0 40 -85 142v104l29 28h586l29 -28v-113q0 -16 -132 -76q-512 -461 -512 -492v-285q0 -111 171 -161l9 -9v-85l-29 -28h-784l-29 28v76q0 24 95 47q85 59 85 132v227q0 100 -285 303 q-250 260 -397 285z" />
<glyph unicode="Z" horiz-adv-x="1944" d="M-3 43v178q0 55 255 302q38 40 38 76v10h-19q-69 0 -209 151q-46 14 -46 122v444q0 94 94 94h1614q100 0 227 -198v-160q0 -79 -170 -218l-132 -141v-19h104q90 0 208 -170l9 -47v-567q0 -94 -104 -94h-1586q-116 0 -208 132q-75 54 -75 105zM53 14h1719v623h-416 q-38 -292 -95 -292q-70 -76 -197 -76h-57l-10 -10l-103 29v19q246 269 481 377q0 151 303 406q65 65 65 104v170h-1671v-548h397q0 227 113 283l170 28q104 -9 104 -37v-19q-264 -281 -472 -368q-44 -168 -180 -293q-151 -127 -151 -179v-217zM91 80v104q0 43 208 245 q70 73 132 245q245 106 472 378v38q0 75 -103 75h-143q-216 -29 -216 -217q-12 -94 -38 -94h-264l-29 28v415l29 29h1539l27 -29v-65q0 -45 -302 -340q-42 -53 -85 -189q-181 -52 -472 -377v-48q34 -57 113 -57h95q233 0 312 180q13 189 65 189h266l27 -29v-481l-27 -29 h-1577z" />
<glyph unicode="[" horiz-adv-x="1067" d="M-15 684v9q107 157 107 223v563q0 98 126 98h527q110 0 196 -125q54 -31 54 -80v-152q0 -81 -125 -81h-125v-1010h36q94 0 214 -187v-170q0 -71 -71 -71h-599q-86 0 -224 187l-9 45v554q0 66 -98 188zM30 693q116 -134 116 -260v-545h652v188h-214l-27 27v1206l27 27h214 v188h-652v-554q0 -129 -116 -277zM92 693q90 135 90 205v563l27 27h527l27 -27v-62l-27 -27h-72l-98 9q-37 -13 -54 -45v-1260l36 -36h188l27 -27v-53l-27 -27h-527l-27 27v536q0 82 -90 197z" />
<glyph unicode="\" horiz-adv-x="1040" d="M-18 1307q0 62 116 62h44q162 0 394 -482l536 -966v-44q-12 -36 -81 -36h-80q-51 0 -214 188zM35 1316q0 -41 715 -1287h125v9q-19 72 -697 1278h-143zM116 1271v9h9q32 0 295 -501l384 -697l-9 -9q-33 0 -250 412q-429 758 -429 786z" />
<glyph unicode="]" horiz-adv-x="1058" d="M-5 31q0 98 90 98h161v1010q-86 0 -197 143q-54 21 -54 125v45q0 125 108 125h571q104 0 224 -187v-599q0 -70 116 -224l-107 -178l-9 -54v-554q0 -80 -81 -80h-589q-75 0 -206 160q-27 0 -27 99v71zM49 76v-188h661v563q0 114 107 242v17q-107 111 -107 233v581h-661 v-188h197q53 0 53 -54v-1153q0 -53 -53 -53h-197zM85 13l26 27h197l27 27v1278l-27 27h-197l-26 27v62l26 27h528l27 -27v-527q0 -100 89 -241q-89 -125 -89 -206v-527l-27 -27h-528l-26 27v53z" />
<glyph unicode="_" horiz-adv-x="1298" d="M3 -36q0 80 80 80h1064q85 0 197 -161l8 -45v-160q0 -81 -80 -81h-1046q-84 0 -214 179l-9 45v143zM48 -1v-214h1117v214h-1117zM92 -72l27 27h974l27 -27v-72l-27 -26h-974l-27 26v72z" />
<glyph unicode="`" horiz-adv-x="875" d="M-1 1327q0 146 171 162q133 0 514 -442q117 -114 117 -153q-18 -54 -72 -54h-63q-371 123 -550 315q-117 93 -117 172zM44 1318q0 -89 397 -262q20 -27 63 -27h99v18q-338 397 -433 397h-9q-117 0 -117 -126zM89 1327v9q29 63 72 63q70 0 325 -307v-9q-397 192 -397 244z " />
<glyph unicode="a" horiz-adv-x="1707" d="M-10 299q0 131 171 262q-117 125 -117 207q0 206 397 270l153 9h171q419 0 676 -396q0 -114 126 -271v-54q-27 -33 -27 -63q99 -71 99 -144v-9q0 -268 -351 -307h-27q-109 0 -271 100h-9q-259 -90 -441 -90q-317 0 -532 378zM44 245q0 -164 225 -225l109 -9h54 q221 0 414 90q144 -108 280 -108q324 0 324 261v27h-63q-42 -54 -72 -54q-45 15 -45 54q0 49 108 216v9q-117 126 -117 262q-161 225 -460 225h-342q-370 -41 -370 -234q0 -153 216 -153h36q190 0 190 189q31 27 108 27q143 0 198 -144q0 -81 -90 -81l-126 -9l-27 9 q-441 0 -541 -217l-9 -54v-81zM80 290q0 227 460 262h243q90 0 90 90v54q-41 162 -180 162h-126q-90 0 -90 -144q-34 -63 -145 -63h-18q-180 0 -180 117q67 189 442 189h153q400 -16 496 -243q0 -77 90 -226q-90 -133 -90 -207v-9q12 -90 90 -90h9l72 27v-9 q-46 -162 -261 -162h-18q-113 0 -244 108h-27q-268 -99 -432 -99q-325 26 -325 207zM468 290q36 -126 153 -126h99q106 0 162 90v162q-31 63 -108 63h-81q-160 0 -225 -108v-81zM504 326q45 117 234 117q108 0 108 -99v-18q0 -126 -189 -126q-153 27 -153 126z" />
<glyph unicode="b" horiz-adv-x="1747" d="M-7 1191v36q0 127 154 127h405q132 0 252 -181q19 0 19 -90v-54l153 18q376 0 667 -450l36 -190v-72q0 -310 -361 -486q-169 -45 -360 -45q-74 0 -442 108q0 -90 -108 -99h-54q-84 0 -234 198l-9 45v306q0 66 -100 199l-9 9v9q109 166 109 189v198q0 41 -109 144zM47 579 q118 -142 118 -271v-288l18 -18h108q20 1 54 90l9 9h18q344 -108 478 -108q468 0 603 306q36 101 36 198q0 368 -351 478l-171 18h-9q-102 0 -316 -63h-9l-9 45v307l-18 18h-532l-27 -27v-127q0 -35 91 -108q27 -31 27 -108v-81q0 -123 -118 -270zM84 1182v54l27 28h450 l27 -28v-315l36 -36h45q135 45 289 72q486 -55 486 -442v-36q0 -282 -342 -414q-153 -27 -261 -27q-109 0 -460 108h-45q-34 -16 -72 -99h-36l-27 27v306q0 74 -90 199q90 134 90 207v207q0 78 -108 153zM561 515q0 -308 207 -360h46q136 0 189 207l9 108q0 229 -135 316 l-73 18h-36q-207 -45 -207 -289zM606 506q30 253 180 253q181 -29 181 -271v-36q-25 -252 -172 -252q-160 0 -189 306zM804 290q3 -45 19 -45q99 45 99 225v9l-9 91h-18q-91 -58 -91 -154v-126z" />
<glyph unicode="c" horiz-adv-x="1722" d="M-31 457v18q97 110 162 298q247 297 640 297q314 0 640 -153q234 -194 234 -342q0 -82 -90 -172v-18q81 -78 81 -117q0 -163 -234 -351q-229 -118 -442 -118h-99q-433 0 -748 424q-45 108 -144 234zM14 466q114 -141 135 -234q197 -243 613 -243q476 0 640 279l45 144 l-9 9h-460q-17 -216 -171 -216h-18q-127 0 -163 243q0 334 172 334q90 0 90 -108q0 -154 324 -154q174 0 235 163v63q0 227 -658 270h-63q-427 0 -604 -360q0 -64 -108 -190zM77 466q50 60 153 289q222 225 532 225q649 -50 649 -270q-55 -144 -226 -144h-18 q-243 0 -243 180q0 81 -117 81h-18q-199 0 -199 -334v-108q46 -216 163 -216h99q141 0 162 207l45 9h325v-18q0 -140 -289 -288q-177 -45 -297 -45h-81q-412 0 -559 306q0 26 -81 126zM825 259h36q38 0 90 198l18 18q0 22 -72 82h-18q-54 -37 -54 -208v-90z" />
<glyph unicode="d" horiz-adv-x="1790" d="M-5 481q0 289 351 496q139 45 253 45h45l198 -9v9q-72 68 -72 135v63q0 136 135 136h433q123 0 234 -154q27 0 27 -99v-261q0 -63 108 -216v-18q-108 -147 -108 -208v-171q0 -41 108 -144l18 -72v-126q0 -72 -72 -72h-514q-27 0 -81 36q-223 -73 -351 -73h-18 q-353 0 -649 469q-45 144 -45 234zM49 427q0 -341 397 -450l108 -9q147 0 396 81l36 -45h541v180q0 18 -90 45q-36 35 -36 117v135q0 136 117 271q-117 150 -117 270l9 45l-9 99v136h-559l-18 -18v-181q94 0 117 -126l-9 -36h-18q-102 27 -315 36q-395 0 -541 -378l-9 -82 v-90zM85 481q0 253 324 424l172 27h81l261 -36h18q45 25 45 72q0 130 -117 180l-9 36v54l27 28h451l27 -28v-279q0 -63 90 -216q-90 -97 -90 -189v-280q0 -76 117 -117l9 -36v-45l-27 -27h-415q-34 0 -81 45h-45q-218 -81 -360 -81h-18q-317 0 -442 333zM527 454 q0 -252 225 -297h36q168 0 198 270v81q0 252 -189 298h-45q-164 0 -216 -243zM572 454v27q0 241 189 280h27q162 -61 162 -289q-34 -270 -162 -270h-18q-166 0 -198 252zM761 319l9 -72h36q90 54 90 189v109l-18 18h-18q-99 -56 -99 -244z" />
<glyph unicode="e" horiz-adv-x="1704" d="M-36 461v9q0 26 111 176q0 124 240 305q191 120 444 120h9q529 0 786 -453q46 -27 84 -222q-37 -246 -130 -360q-243 -241 -564 -241h-83q-468 0 -777 481q0 48 -120 185zM10 479q111 -144 157 -268q198 -222 601 -222q472 0 638 361l10 55h-426q-57 -184 -185 -184 q-144 0 -185 194q13 46 65 46h694q55 0 55 55v56q0 167 -250 360q-177 93 -406 93q-523 0 -666 -398zM75 479q58 74 148 269q194 231 555 231q505 0 619 -435q-9 -37 -55 -37h-666q-102 0 -102 -83v-19q0 -183 204 -221h27q173 0 222 175l47 9h258l19 -18 q-172 -314 -555 -314h-74q-376 0 -545 268q-14 60 -102 175zM583 674q15 -56 65 -56h287l37 37v46q-28 148 -194 148h-10q-185 -31 -185 -175zM630 683q34 120 175 120q121 -30 121 -120q-10 -28 -56 -28h-185q-33 0 -55 28z" />
<glyph unicode="f" horiz-adv-x="1161" d="M-2 53v75q0 123 141 123l20 29q0 70 -114 199l94 151q-141 152 -141 208v85q0 113 114 113v85q0 285 388 285h47q355 0 501 -227q58 -34 58 -114q0 -65 -58 -142q47 -64 47 -94v-152q0 -95 -141 -95h-86v-18q0 -45 114 -219v-9l-47 -104q171 -164 171 -217v-114 q0 -95 -96 -95h-766q-90 0 -237 199zM54 5h843v171l-19 18h-48q-124 0 -160 67q0 85 113 218q-102 136 -123 245q0 58 76 67h142l19 18v161l-19 19h-171q-189 0 -189 123l10 9q96 -56 199 -56q179 15 179 142v10q0 132 -303 132h-179q-265 0 -265 -228v-37l9 -38 q0 -57 -104 -57l-10 -9v-180q0 -22 114 -29q38 -40 38 -75q0 -56 -105 -217q100 -123 114 -199q0 -57 -161 -95v-180zM92 80v20q0 60 123 85l38 47v66q0 60 -85 190q85 127 85 198v20q0 123 -152 123l-9 9v76q0 28 58 28l56 57v133q0 179 312 179h10q331 0 331 -114 q-32 -85 -152 -85q-46 0 -189 67h-9l-29 -29v-114q49 -85 152 -85h189l29 -28v-66l-29 -28h-151q-48 -25 -48 -76v-57q0 -87 95 -208q-95 -138 -95 -208v-19q23 -105 143 -105h65l29 -28v-48l-29 -27h-709z" />
<glyph unicode="g" horiz-adv-x="1756" d="M-31 -22q0 78 111 157q-76 108 -92 185q0 105 175 222q-131 138 -138 268q0 234 397 305l213 19q169 0 444 -65q204 74 277 74q143 0 324 -259l9 -55q-37 -185 -157 -185l-74 18v-9q0 -123 -148 -240l-9 -10v-9q273 -200 323 -323q93 -110 93 -139q-160 -251 -315 -296 q-331 -65 -573 -65h-46q-552 0 -712 259q-69 42 -102 148zM25 -3v-28q0 -166 490 -194l157 -9q507 0 721 138q12 40 120 167v9q-172 277 -286 277l-65 19l-222 -9h-333q-120 0 -120 73q18 43 37 47h9l204 -10q378 0 517 259l10 47l-37 157v9l27 28h19l65 -130l74 -9 q73 31 73 120v56q-48 83 -138 83q-60 0 -268 -74q-248 55 -407 55h-93q-426 0 -499 -212v-93q0 -136 185 -212v-28q-222 -93 -222 -185v-37q0 -79 111 -176v-27q-129 -39 -129 -111zM71 -3q18 30 120 83l19 55l-121 158l-9 27q32 87 231 194l9 37q0 37 -157 130 q-30 34 -46 139q0 188 499 221q139 0 463 -64l111 27v-9l-19 -55l46 -167q-123 -249 -499 -249l-213 9q-50 0 -64 -102q0 -89 92 -101h592q182 0 323 -250q-124 -241 -425 -241q-164 -27 -351 -27h-37q-499 0 -564 166v19zM422 34q0 -139 268 -139h121q221 0 221 139v9 q0 77 -101 102h-389q-120 0 -120 -102v-9zM468 43q0 59 139 65h268q74 0 111 -65v-28q-48 -83 -212 -83q-306 0 -306 111zM487 746q0 -122 194 -139q166 26 166 166v37q-26 157 -157 157h-83q-120 -30 -120 -138v-83zM524 792q19 139 129 139q148 -21 148 -139 q0 -139 -148 -139q-98 0 -129 139zM1273 1041l74 10q46 0 101 -74q-11 -63 -55 -93q-27 0 -74 120z" />
<glyph unicode="h" horiz-adv-x="1836" d="M-7 55v105q0 105 115 105l9 48v96q0 81 -124 229q124 176 124 248v106q0 44 -124 181v182q0 76 76 76h564q64 0 211 -191v-144h18v-9q78 29 164 29h57q316 0 583 -430l28 -173l-9 -296l114 -153v-162q0 -96 -95 -96h-631l-86 20l-76 -20h-670q-91 0 -239 201zM41 1374 l9 -163v-38q115 -58 115 -201v-57q0 -127 -115 -268v-9q115 -137 115 -258v-77q0 -78 -115 -105v-191h746v191q-143 0 -143 162v240q16 210 171 210q182 0 182 -316v-134q0 -100 -115 -162v-77l-9 -114h707v191q-105 72 -105 182v324q0 244 -316 354l-153 10 q-167 0 -344 -115h-9l-19 19v402h-602zM88 83v29q0 40 115 115l10 67v124q0 74 -96 229q88 127 96 230v86q0 187 -125 248v96l29 29h450l28 -29v-344q0 -67 58 -67q236 124 373 124h38q381 -61 381 -354l-9 -315q0 -118 106 -172l9 -38v-58l-29 -28h-564l-28 28v49 q0 40 105 114l9 67v344q-37 200 -210 200h-28q-201 -30 -201 -229v-258q0 -210 124 -210l19 -28v-49l-28 -28h-603zM853 256q74 0 96 47v297h-29q-67 -41 -67 -125v-219z" />
<glyph unicode="i" horiz-adv-x="1032" d="M-4 828v120q12 84 83 84h139v18q-120 110 -120 194q0 163 305 195q274 0 434 -287l10 -65q0 -77 -74 -148q74 -78 74 -166v-130q0 -73 111 -212v-47q-111 -118 -111 -203q111 -124 111 -166v-121q0 -83 -84 -83h-628q-89 0 -232 194l-9 47v83q0 86 102 120l9 9v389 q-120 111 -120 175zM51 782q99 0 111 -129v-361q0 -81 -92 -111l-9 -9v-167h702v158q-111 74 -111 101l-9 37q7 100 120 250q-120 154 -120 287v129l-18 18h-555l-19 -18v-185zM88 865v46l28 28h462l28 -28v-147q0 -73 93 -213q-93 -134 -93 -213v-83q0 -57 111 -120v-56 l-28 -27h-564l-27 27v28q0 53 64 65q47 39 47 102v397q0 98 -111 157zM153 1189q55 -102 204 -102h74q221 0 221 139v9q0 148 -203 148h-120q-176 -27 -176 -120v-74zM190 1235q36 111 213 111q203 0 203 -129q0 -72 -212 -93q-165 0 -204 111z" />
<glyph unicode="j" horiz-adv-x="1035" d="M-12 -82q0 146 219 173h19v9q-82 90 -82 193v384q0 48 -128 156l-10 65v63q0 137 138 137h63v19q-119 118 -119 183q0 170 303 202q264 0 440 -284l9 -64q-8 -73 -64 -138v-18q73 -74 73 -119v-174q0 -69 119 -229q-110 -164 -110 -202v-54l82 -358q-68 -293 -430 -293 h-9q-283 0 -422 193q-91 68 -91 156zM34 -65v-17q0 -156 357 -156q348 48 348 219v46l-83 357q0 68 111 230q-111 135 -111 247v165l-17 18h-560l-18 -18v-184q129 -20 129 -128v-449q0 -90 201 -238v-9h-9l-138 28h-27q-183 -17 -183 -111zM79 -73q35 73 128 73h47l146 -37 l37 37v55q-200 160 -202 201v476q0 99 -137 166v82l27 27h459l27 -27v-129q0 -99 91 -247v-9q-55 -42 -91 -183q0 -79 91 -412q0 -149 -339 -193h-9q-275 0 -275 120zM144 1282q0 -109 210 -128h46q239 0 239 119v55q0 119 -220 119h-73q-202 -14 -202 -128v-37zM190 1300 v28q59 82 192 82q220 -18 220 -110q0 -85 -183 -109q-229 0 -229 109z" />
<glyph unicode="k" horiz-adv-x="1854" d="M-9 1150v167q0 83 103 83h519q108 0 232 -195v-139h658q114 0 205 -130q55 -32 55 -83v-139q0 -110 -176 -130l-167 -84v-9q0 -49 158 -222q74 0 213 -186l9 -47v-148q0 -74 -74 -74h-696l-92 28l-74 -28h-622q-78 0 -214 167q-28 0 -28 102v28q0 133 112 158v157 q0 69 -102 194l-10 10v9q112 171 112 195v149q0 32 -121 167zM47 639q120 -139 120 -269v-56q-18 -120 -111 -120v-186h677v186q-74 71 -74 111v9q0 75 130 103h19q111 -98 111 -158v-18q-4 -22 -74 -47v-186h752v205q-130 0 -344 343q-47 37 -47 83q156 123 278 149 q75 18 75 37v186h-807v-195q0 -19 56 -28l28 -38q0 -38 -167 -92h-10l-9 46v640h-603v-204q113 0 120 -157v-66q0 -132 -120 -278zM84 1223v56l28 28h463l28 -28v-584q0 -71 38 -84h46q194 69 194 112v10q0 74 -83 120v92l28 28h668l28 -28v-73q-3 -20 -186 -84 q-174 -98 -176 -121v-74q295 -427 390 -427l9 -10v-73l-28 -28h-621l-29 28v37q0 51 75 74l10 47v18q0 104 -149 213h-19q-185 -39 -185 -158v-17q0 -54 84 -149v-65l-28 -28h-547l-28 28v56q111 83 111 102v204q0 78 -93 194q93 131 93 205v212q0 72 -111 130z" />
<glyph unicode="l" horiz-adv-x="1022" d="M-10 1177v150q0 84 103 84h516q108 0 234 -197v-291q0 -141 122 -281v-19l-113 -186v-226q0 -33 113 -159v-160q0 -74 -75 -74h-657q-88 0 -224 188l-10 46v94q0 79 113 131v712q0 43 -113 150zM37 1168q0 -19 75 -38q47 -41 47 -131v-703q0 -62 -112 -113v-169h712v169 q-113 66 -113 123v196q0 137 122 262q-122 153 -122 282v308h-590l-19 -17v-169zM84 1233v56l28 29h459l28 -29v-216q0 -187 103 -300q-93 -129 -93 -205v-328q0 -21 112 -94v-56l-28 -29h-572l-28 29v28q0 51 75 74q38 40 38 95v702q0 198 -113 198z" />
<glyph unicode="m" horiz-adv-x="2559" d="M-3 806v119q0 91 100 91h474q49 0 118 -55q180 82 310 82h26q160 0 337 -128h37q199 146 382 146q345 0 592 -400q46 -141 46 -283l-9 -191q109 -122 109 -164v-118q0 -82 -82 -82h-601q-53 0 -91 37h-27q0 -37 -73 -37h-611l-90 18l-74 -18h-627q-88 0 -229 191l-9 45 v74q0 95 101 127l9 9q0 47 -110 182v9q0 27 92 155v18q0 27 -92 118zM42 779l92 -54l26 -55q0 -49 -109 -201q98 -138 109 -200q0 -49 -100 -82v-173h701v164q0 18 -109 45q-27 35 -27 82v328q0 146 173 146q155 0 164 -173v-301q0 -85 -109 -127v-164h683v154 q-119 77 -119 129v299q0 183 182 183q164 0 164 -183v-299q0 -59 -109 -119v-164h673v154l-109 92v319q0 304 -245 401q-99 27 -192 27h-36q-155 0 -364 -146h-28q-174 137 -354 137q-127 0 -356 -101q-31 0 -46 64h-555v-182zM88 815v82l27 28h401q46 0 81 -64l9 -9h37 l310 100h55q129 0 336 -137h18q45 0 264 128l155 27q245 0 365 -219q36 -136 36 -218l-9 -291q0 -30 110 -100v-55l-28 -28h-537l-27 28v27q0 51 90 82l19 37v428q0 130 -164 154h-82q-173 -27 -173 -154v-401q0 -55 109 -118l9 -37v-18l-28 -28h-555l-27 28v18q0 54 91 91 l19 37v437q0 118 -164 145h-92q-141 0 -164 -173v-354q0 -100 128 -137l9 -37v-27l-27 -28h-565l-27 28v27q0 52 63 64q46 38 46 100q0 48 -91 191q82 119 82 182v46q0 61 -109 118zM816 223q48 0 91 46v310h-37q-54 -27 -54 -82v-274zM1617 233q72 0 92 45v301h-9 q-74 0 -83 -73v-273z" />
<glyph unicode="n" horiz-adv-x="1759" d="M-15 798v137q0 83 100 83h486l118 -37q118 82 275 82q434 0 613 -421l37 -219l-9 -101v-119q0 -40 100 -137l9 -82v-74q0 -91 -91 -91h-595q-48 0 -83 28q-34 -28 -82 -28h-631q-76 0 -210 165q-28 0 -28 100v28q0 137 91 137l19 28q0 33 -110 173v9q0 24 91 156v18h10 q-110 123 -110 165zM31 789q0 -17 100 -64l19 -46q0 -61 -110 -211q99 -138 110 -201q-5 -35 -100 -92v-165h704v165l-9 10q-128 40 -128 110v310q0 174 173 174q165 -24 165 -155v-321q0 -79 -110 -128v-165h669v165q-111 60 -111 102l9 283q0 328 -191 412 q-125 37 -257 37h-19q-174 0 -310 -111h-9q-22 0 -28 65h-548l-19 -19v-155zM76 816v82l28 28h430q54 -73 92 -73h9l201 100l119 19q420 0 420 -412l-8 -46v-283q0 -24 110 -92v-55l-28 -27h-530l-28 27v28q0 39 100 109v458q0 103 -164 137h-92q-131 0 -155 -146v-439 q11 -28 128 -92v-55l-28 -27h-567l-28 27v46q111 76 111 128q0 72 -92 210q92 132 92 220q0 63 -120 128zM817 231h10q73 16 73 36v312h-9q-50 0 -74 -46v-302z" />
<glyph unicode="o" horiz-adv-x="1842" d="M-30 491v27q93 102 154 280q203 279 703 279q579 0 847 -496q0 -54 117 -198v-45q-94 -104 -180 -288q-266 -253 -613 -253h-81q-471 0 -820 487q-11 62 -127 207zM15 500q108 -129 136 -234q226 -279 667 -279q492 0 675 333q0 50 109 180q-87 100 -154 280 q-187 243 -594 243h-127q-471 0 -612 -351q0 -28 -100 -172zM79 500v9q57 64 126 244q180 234 604 234q453 0 621 -279q30 -111 109 -208q-66 -81 -136 -243q-238 -225 -549 -225h-82q-421 0 -612 333q0 38 -81 135zM574 491q0 -324 235 -324h27q171 0 198 261v135 q0 260 -234 289q-217 -44 -217 -280zM619 464v63q0 245 199 280q180 -50 180 -316q0 -279 -180 -279h-18q-156 0 -181 252zM809 365l9 -108h9q117 20 117 171v162l-18 19h-18q-99 -56 -99 -244z" />
<glyph unicode="p" horiz-adv-x="1765" d="M-10 355q117 176 117 243v64q0 45 -108 135l-9 54v108q0 99 99 99h505q39 0 126 -54q154 81 279 81q329 0 640 -442q54 -137 54 -270q0 -425 -414 -532l-190 -27l-162 27v-189q0 -81 -81 -81h-613q-86 0 -225 189l-9 45v63q0 136 99 136l9 9v126q0 77 -117 216zM35 364 q117 -129 117 -252v-81q0 -66 -99 -90v-181h685v181q0 21 -63 27q-45 43 -45 99l27 18q156 -72 270 -72h63q363 0 487 306l18 135v135q0 307 -415 442h-117q-102 0 -288 -90q-21 0 -63 63h-568v-180q108 -55 108 -135v-64q0 -129 -117 -261zM80 887v54l27 27h460 q56 -72 99 -72l261 90l63 9q285 0 451 -324l18 -163q0 -307 -289 -423q-92 -27 -225 -36q-44 0 -297 81h-9q-37 -13 -54 -45v-36q0 -89 99 -136l9 -36v-45l-27 -27h-550l-27 27v54q0 22 72 45q36 38 36 91v99q0 123 -90 234v18q90 126 90 243v91q0 100 -108 144zM585 472 q25 -279 180 -279h63q189 0 189 342q-29 307 -198 307h-54q-180 -36 -180 -253v-117zM621 526q27 262 126 262l45 18q180 -44 180 -271v-54q-26 -252 -171 -252q-171 31 -171 243zM819 292h9q99 0 99 261l-9 54h-18q-81 -37 -81 -171v-144z" />
<glyph unicode="q" horiz-adv-x="1722" d="M-3 490q0 461 658 577q99 0 478 -117q0 90 99 90h117q60 0 198 -180l9 -45v-244q0 -68 117 -234q-117 -177 -117 -198v-180q0 -32 99 -145l9 -54v-99q0 -90 -90 -90h-567q-86 0 -217 180l-9 45v18l-108 -9q-370 0 -640 460q-36 147 -36 225zM42 463q0 -391 415 -459h108 q122 0 333 54h9l9 -27q0 -52 -90 -100v-171h640v171l-90 55l-18 81v108q0 154 117 297q-117 149 -117 307v198l-18 18h-99q-51 0 -81 -90l-9 -9h-9q-345 117 -487 117h-45q-568 -96 -568 -550zM87 499q0 363 559 478h9q86 0 469 -126h36q20 0 90 99h45l27 -27v-234 q0 -76 90 -217q-90 -125 -90 -234v-225q0 -53 108 -127v-54l-27 -27h-505l-27 27v36q0 37 72 91l9 9v108l-27 27h-45q-254 -63 -351 -63q-313 0 -415 288q-27 70 -27 171zM520 517q0 -333 189 -333h45q159 0 189 234v180q-47 235 -162 235h-81q-180 0 -180 -316zM565 472v81 q0 210 162 244h9q171 -39 171 -271v-27q-24 -261 -126 -261l-45 -18q-171 0 -171 252zM754 328l9 -45q90 14 90 135v180h-18q-73 0 -81 -234v-36z" />
<glyph unicode="r" horiz-adv-x="1425" d="M-11 452q99 151 99 181v9q-99 90 -99 153v108q0 90 90 90h496q48 0 108 -45q102 63 225 63h18q179 0 361 -234q63 -54 63 -171q0 -256 -298 -289q-92 0 -243 144h-9v-252q0 -41 117 -153l9 -54v-117q0 -73 -72 -73h-631q-85 0 -216 181l-9 45v90q0 75 81 108l18 18v9 q0 43 -108 189zM34 461q92 -118 117 -207q-9 -44 -108 -90v-162h685v162q0 15 -99 54l-18 72v234l-9 36q49 172 99 172h18q0 -200 189 -226q253 29 253 208v54q0 165 -244 198h-9q-142 0 -261 -90h-36q-9 72 -27 72h-532l-18 -18v-171q67 0 108 -63v-27q0 -80 -108 -208z M79 840v36l27 27h433q20 0 36 -63l54 -18q192 99 243 99h54q190 -33 190 -171v-18q0 -160 -217 -181q-107 0 -144 208l-27 18h-27q-105 0 -135 -208v-315q0 -66 117 -117l9 -36v-27l-27 -27h-550l-27 27v27q0 47 72 72l27 36v54q0 88 -90 189q90 137 90 208v27q0 63 -99 117 z" />
<glyph unicode="s" horiz-adv-x="1455" d="M-52 639q207 351 406 351q85 36 216 36q111 0 324 -54q42 45 135 45h28q97 0 225 -180l9 -45v-171q-6 -100 -72 -100v-18q207 -256 207 -306q0 -19 -99 -135q-105 -238 -568 -262q-96 0 -306 82q-27 0 -27 -37l-81 -36l-27 9l-55 -9q-95 0 -243 199l-9 45v198 q12 81 81 81h81v18q-83 84 -171 216q-54 39 -54 73zM-7 639q174 -253 261 -253q46 -34 388 -81q36 -38 36 -72q0 -63 -126 -63q-138 0 -234 117h-235l-27 -27v-234l18 -18h153l63 63q231 -81 343 -81q414 0 550 288q39 22 54 63l-153 216q-158 118 -451 118l-36 9l-45 54 q24 63 108 63q65 0 198 -90h217l18 18v234h-136l-54 -45q-186 54 -288 54h-99q-340 0 -487 -288q-18 -4 -36 -45zM56 648l135 180q191 108 370 108q103 0 333 -63h9q30 0 99 54h27l28 -27v-117l-28 -27h-135l-135 72l-54 9h-81q-108 0 -108 -81v-54q0 -76 333 -90 q262 -87 262 -190l63 -81q-160 -252 -271 -252q-133 -54 -279 -54q-76 0 -334 81l-126 -72h-36l-27 27v144l27 27h135q38 0 127 -90l90 -18h144q99 15 99 99v18q0 126 -279 126q-325 77 -325 189z" />
<glyph unicode="t" horiz-adv-x="1099" d="M-6 824v110q0 102 157 102q84 0 148 231l84 19h203q110 0 231 -194q0 -47 83 -93q130 -108 130 -222v-83q0 -111 -139 -111h-74v-166q213 -175 213 -278v-9q0 -299 -379 -333h-9q-259 0 -500 361q0 147 -129 296v9q101 148 101 185q0 20 -110 120zM41 796l18 -19h83 q37 -15 37 -64q0 -99 -120 -250q105 -116 139 -305q80 -157 231 -157h129q278 26 278 268v9q0 71 -37 83h-56q-22 0 -46 -129l-9 -9h-46q-28 9 -28 55v407q0 102 92 102h120v203h-148q-55 0 -55 74v166h-296q-36 -249 -249 -249q-37 0 -37 -19v-166zM87 842v74q0 28 101 28 q167 77 167 222q24 27 55 27h148l28 -27v-176l37 -37h139l27 -28v-74q-5 -27 -74 -27h-83q-55 -28 -55 -84v-499q0 -46 46 -65h74q65 29 65 139h18l9 -46q0 -205 -277 -231h-18q-278 27 -278 259l-83 175q92 135 92 250q0 111 -129 111z" />
<glyph unicode="u" horiz-adv-x="1772" d="M0 796v120q0 102 84 102h499q65 0 157 -102h19q0 102 92 102h490q88 0 222 -185q0 -259 111 -351l18 -37q-120 -179 -120 -222l111 -130l19 -74v-74q0 -138 -102 -138h-472q-37 0 -120 46q-156 -74 -286 -74h-19q-282 0 -564 388q-28 75 -28 139v333q0 33 -111 157z M56 787q111 -31 111 -102v-434q0 -193 323 -269l74 -9q139 0 352 93q22 -65 37 -65h527l18 18v185q-120 0 -120 139q0 99 111 231v9q-111 142 -111 259v102l-28 28h-517l-28 -28v-139q0 -15 111 -55q28 -34 28 -65v-324q0 -138 -176 -138q-157 16 -157 138v592l-19 19h-518 l-18 -19v-166zM93 842v56l28 27h425l28 -27v-592q0 -112 203 -129q213 0 213 212v305q-11 121 -120 121l-19 55v28l28 27h425l28 -27v-93q0 -56 92 -240q-92 -92 -92 -222q0 -155 120 -176l9 -46v-46l-27 -28h-435l-65 65h-18q-258 -93 -305 -93h-37q-361 53 -361 241l-9 55 v435zM814 278q83 0 83 83v250q0 52 -64 93h-19v-426z" />
<glyph unicode="v" horiz-adv-x="1683" d="M4 790v129q0 102 139 102h536q75 0 120 -28q45 28 120 28h426q136 0 249 -157q28 0 28 -102v-102q0 -111 -120 -111q-39 0 -74 -157q0 -58 37 -157l-194 -203q-77 -222 -148 -222h-472q-77 0 -212 166q-19 12 -93 194q-185 167 -185 204l37 129v46q-194 185 -194 241z M50 947l9 -176v-18q155 0 185 -213v-18l-27 -158q205 -177 240 -342l19 -18h527q66 229 268 370v9q-37 68 -37 148v9q39 222 185 222l9 9v176l-19 18h-554l-19 -18v-176q62 0 102 -92q0 -106 -139 -296q-139 197 -139 305q0 34 93 102l-9 148v27h-675zM96 818v83l28 27h555 l28 -27v-56q0 -38 -74 -92l-10 -9v-102q86 -305 185 -305h19q148 188 148 305v83q-2 20 -102 102v74l28 27h453l28 -27v-74l-130 -102q-65 -95 -65 -194v-19l19 -129q-159 -102 -231 -314q0 -19 -46 -19h-389q-60 0 -111 167l-157 175l19 120v19q-33 259 -176 259z" />
<glyph unicode="w" horiz-adv-x="2555" d="M1 781v147q0 84 102 84h610q109 -5 111 -28q45 28 120 28h620l111 -28q32 28 111 28h462q114 0 203 -130q56 -32 56 -83v-157q0 -95 -130 -111q-30 0 -64 -148v-28l27 -129l-194 -194q-86 -222 -148 -222h-480q-33 0 -232 185q-72 -185 -138 -185h-472q-117 0 -277 277 q0 55 -231 277v10l27 111v55q-194 185 -194 241zM47 762q0 -14 102 -46q46 0 102 -204l-37 -129q0 -17 139 -129q42 -45 147 -250h527q125 310 158 342h9l148 -342h518q120 251 249 342q37 0 37 28l-27 138q0 199 175 232l19 18v194h-592l-19 -18v-157q93 -65 93 -111 q-46 -206 -139 -306q-148 190 -148 333q0 47 93 56v203h-731v-185q92 -47 102 -101q0 -117 -148 -306h-9q-123 184 -130 306q28 92 93 92v194h-712l-19 -18v-176zM94 799v93l27 27h583l28 -27v-74q-84 -73 -84 -121v-55q0 -156 158 -333h27q85 0 176 333v55q0 50 -102 121 v74l28 27h601l28 -27v-74q0 -22 -74 -47q-28 -35 -28 -83q0 -172 176 -379h37q157 195 157 324v92q-2 21 -83 83v84l27 27h463l27 -27v-84q0 -13 -110 -64q-84 -116 -84 -232v-9l19 -111q-187 -141 -250 -333l-46 -9h-379q-62 0 -120 194q-72 154 -102 167h-28 q-25 -12 -175 -352l-37 -9h-389q-67 0 -102 148l-194 203l19 74v74q0 165 -194 250z" />
<glyph unicode="x" horiz-adv-x="1753" d="M-8 819v93q0 102 84 102h688l65 -19l84 19h549q62 0 205 -186l9 -74v-66q0 -139 -139 -139q-69 0 -242 -158v-10q156 -149 260 -149q158 -145 158 -214v-74q0 -140 -102 -140h-679q-44 0 -65 28q-48 -28 -93 -28h-531q-78 0 -223 177q-16 0 -19 47v121q0 111 186 111 q214 156 214 186q-96 97 -242 131q-167 152 -167 242zM48 18l18 -18h587l18 18v159l-46 46v19q56 74 93 74q71 -34 102 -84v-9q0 -15 -65 -37v-186h735l19 18v168l-131 56q-302 226 -335 270v9q278 242 428 242v186l-18 19h-568l-18 -19v-149l65 -65v-19q-24 -46 -112 -83 q-62 24 -102 83v19l56 56v177h-708l-18 -19v-195q111 0 446 -298v-10q-273 -251 -418 -251q-28 0 -28 -18v-159zM85 819v74l28 28h595l28 -28v-37q0 -36 -65 -102v-66q85 -102 149 -102q158 44 158 140v28l-74 83v56l28 28h474l28 -28v-46q0 -66 -130 -66 q-304 -216 -316 -251v-9q0 -78 428 -354q55 0 55 -55v-38l-27 -28h-624l-28 28v38q0 43 75 83l9 10v18q0 83 -168 149q-130 -65 -130 -102v-75l47 -56v-65l-28 -28h-475l-28 28v56q0 21 159 56l288 242v46q-112 122 -391 307q-65 17 -65 38z" />
<glyph unicode="y" horiz-adv-x="1707" d="M-12 820v130q0 102 130 102h614l93 -18l121 18h438q114 0 186 -111q84 -46 84 -158v-56q0 -149 -140 -149q-64 -95 -65 -168v-46q0 -53 37 -121q0 -46 -149 -158l-195 -326q-159 -214 -437 -214h-10q-404 0 -493 177q-121 88 -121 177q0 152 214 186l140 -38v10 q0 66 -252 307v9l19 102v66q0 49 -205 214zM35 783q122 0 167 -112q56 -125 56 -168l-28 -121l149 -139q88 -103 149 -270l-28 -46q-121 102 -186 102h-65q-121 -32 -121 -112v-56q49 -111 279 -111l139 -10q395 0 549 438q40 62 186 195l-37 158q43 261 205 261v205h-596 v-196q103 -18 103 -93q-69 -288 -121 -288h-19q-149 146 -149 297q0 69 103 84v196h-717l-18 -19v-195zM81 838v93l28 28h586l28 -28v-74q-102 -64 -102 -130v-19q0 -188 186 -344h28q100 0 167 353q0 84 -102 131l-9 37v46l28 28h465l28 -28v-74q0 -16 -112 -65 q-93 -135 -93 -223v-66l19 -121q-171 -122 -233 -307q-142 -288 -437 -288h-28q-354 8 -354 93v37q56 75 112 75q57 0 186 -112h37q38 13 56 47v74q-72 246 -279 391l9 65v93q-73 279 -205 279z" />
<glyph unicode="z" horiz-adv-x="1458" d="M-10 55v75q0 65 121 195l37 158q-121 130 -121 196v214q0 130 103 130h1032q75 0 214 -186l10 -84v-9q0 -113 -121 -233l-28 -83l130 -149l9 -38v-334q0 -94 -93 -94h-1051q-89 0 -233 196zM46 9h1116l19 18v363l-19 19h-158q-22 0 -37 -84q-74 -111 -205 -111 q-68 0 -74 27v10q114 133 344 270q0 125 149 288v149l-9 9v10l-698 -10h-279l-84 10l-28 -10v-344h177q0 118 158 149h47q68 0 74 -28v-9q-142 -172 -354 -280q0 -134 -139 -279v-167zM83 83v28q0 44 102 158q53 168 66 168q181 88 334 270v65q0 39 -195 46q-97 0 -177 -149 l-37 -9h-28l-28 28v214l28 28h968l28 -28v-28q0 -44 -103 -158q-44 -85 -55 -177q-192 -84 -345 -260v-65q15 -38 65 -38h121q127 0 214 186h66l27 -27v-252l-27 -28h-996z" />
<glyph unicode="{" horiz-adv-x="1118" d="M3 622v158q0 68 111 103l10 46v242q0 311 111 391q121 74 261 74h316q88 0 224 -186l9 -74v-56q0 -130 -102 -130h-103l-28 -28v-298q0 -183 -83 -288q83 -103 83 -289v-195q88 0 224 -186l9 -47v-84q0 -130 -84 -130h-316q-241 0 -437 261q-84 58 -84 353v196 q0 32 -121 167zM59 631q121 -54 121 -195v-326q0 -270 362 -270h140l158 10v186h-18v9l-28 -9q-186 0 -186 167v326q0 102 -112 186q112 91 112 186v326q0 167 148 167h84v186l-204 10h-10q-428 0 -428 -168q-16 0 -18 -111v-326q-10 -168 -112 -168l-9 -9v-177zM96 696v56 q121 79 121 168v251q0 335 121 335q5 28 167 37h270l28 -28v-56l-28 -27h-74q-131 0 -131 -131v-307q0 -174 -130 -260v-38q130 -83 130 -260v-307q0 -130 140 -130h65l28 -28v-56l-28 -28h-279q-279 0 -279 298v325q0 91 -112 149z" />
<glyph unicode="|" horiz-adv-x="774" d="M5 -96v1601q0 93 121 93h344q108 0 233 -196v-1647q0 -83 -84 -83h-381q-88 0 -223 186zM52 -133h456v1675h-456v-1675zM98 -59v1536l28 28h307l28 -28v-1536l-28 -28h-307z" />
<glyph unicode="}" horiz-adv-x="1118" d="M1 -3q0 76 75 76h94q47 0 57 28v197q0 325 94 395v19q-94 85 -94 376v85q-226 183 -226 244v123q0 94 94 94h301q263 0 404 -207q123 -94 123 -292v-301q0 -42 122 -160l9 -56v-113q0 -89 -103 -122l-28 -38v-357q0 -118 -62 -259q-46 -76 -149 -106h-316 q-176 0 -358 149q-37 60 -37 84v141zM57 16v-188l188 -9q428 0 442 131q29 33 29 94v358q0 160 131 216v179q-113 0 -131 188v367q0 235 -348 235h-104l-207 -10v-188h66q160 0 160 -122v-329q0 -151 122 -235q-122 -71 -122 -245v-320q0 -122 -207 -122h-19zM95 -50 q0 24 179 47q47 47 47 85v235q0 310 84 310l57 57v37q-132 90 -132 245l-9 132v225q0 90 -132 104h-66l-28 28v56l28 29h273q282 0 282 -264v-357q0 -99 122 -169l10 -38v-28q0 -43 -94 -94q-38 -57 -38 -113v-339q0 -272 -282 -272h-273l-28 28v56z" />
<glyph unicode="&#xa2;" horiz-adv-x="1650" d="M-42 472v9q118 141 142 244q211 283 545 283q0 103 132 103h18q66 0 179 -103q367 0 593 -358l18 -103q0 -71 -65 -170q56 -70 56 -131q0 -245 -404 -405l-141 -28v-56q0 -94 -94 -94h-38q-71 0 -216 160q-297 75 -452 263q-131 108 -197 273q-76 70 -76 113zM6 462 q103 -127 169 -273q226 -178 517 -178l9 -47v-94h132v94q0 65 151 65q183 0 376 273l9 38v84h-432v-18q0 -188 -170 -188l-9 -10q-169 52 -169 282q47 282 169 282q113 0 113 -169q61 -94 282 -94q235 0 235 198q0 188 -320 235q-235 0 -235 84v29h-132v-29q0 -84 -225 -84 q-259 -90 -348 -254q0 -57 -122 -226zM71 462v10q57 56 132 244q212 207 498 207l66 85q47 -94 151 -94q315 0 414 -170l9 -56q0 -132 -198 -132h-37q-188 14 -188 94q-19 160 -141 160h-29q-159 0 -197 -282v-85q0 -240 188 -272h47q169 0 198 197l18 19h301l29 -19 q0 -85 -245 -254q-85 -42 -282 -66q-24 -131 -38 -131q-19 0 -19 103q-23 47 -206 47q-217 47 -358 198q-37 112 -113 197zM795 293l19 -19h10q61 0 66 179l28 28q-24 56 -66 56q-57 -75 -57 -141v-103z" />
<glyph unicode="&#xa6;" horiz-adv-x="679" d="M8 323q0 94 94 94h47v19q-141 127 -141 197v762q0 103 132 103h207q108 0 235 -197v-828q0 -84 -85 -84h-37v-19q122 -118 122 -160v-809q0 -84 -85 -84h-244q-90 0 -235 197l-10 47v762zM65 360v-846h319v846h-319zM65 586h319v856h-319v-856zM102 295l29 28h178l28 -28 v-706l-28 -28h-178l-29 28v706zM102 661v715l29 28h178l28 -28v-715l-28 -28h-178z" />
<glyph unicode="&#xa7;" horiz-adv-x="1575" d="M-46 771l122 179q0 42 141 141q-113 136 -122 244q0 249 320 367q108 28 263 38q480 0 686 -377l19 -84q-47 -188 -150 -188v-28q188 -189 301 -377v-9q0 -24 -122 -160q0 -28 -104 -132q122 -136 122 -272v-19q0 -188 -197 -329q-150 -102 -555 -94q-216 37 -329 122 q-254 230 -254 367q52 207 179 207v18q-207 207 -320 386zM1 771l150 -197q108 -90 677 -273q85 -66 85 -122q0 -132 -226 -151h-47l-150 28l37 104v19q0 150 -206 150q-137 0 -170 -132v-75q0 -221 471 -254h37q494 0 574 329v57q0 174 -179 263v28q89 0 235 226 q38 19 38 47h9q-216 329 -357 329q-414 146 -489 198l-19 56q0 108 226 141l131 -28q0 -33 -28 -66v-56q33 -123 151 -123h66q126 0 159 123v56q-51 235 -442 235h-75q-362 0 -479 -197l-29 -113v-66q0 -99 151 -226v-9q-146 -42 -235 -216zM67 780q164 245 254 245 q37 33 37 66v9q-160 137 -169 235q56 301 414 301l66 10q470 -29 470 -226q-52 -113 -151 -113q-89 0 -141 85v28l47 66v28q-33 66 -188 66h-37q-245 -19 -245 -169v-10q0 -150 395 -235q376 -146 376 -254l75 -94l-159 -197q-113 -43 -113 -66v-19q0 -38 141 -151 q47 -51 47 -141v-18q0 -268 -546 -320q-451 37 -451 254q0 122 160 122q89 0 131 -85v-18l-47 -104v-9q0 -76 226 -85q292 0 292 169v47q0 156 -395 245q-405 136 -405 235zM321 856q0 -179 498 -273h19q169 28 169 160v28q0 141 -461 254h-66q-131 0 -159 -151v-18z M368 865q0 94 141 122q451 -117 451 -235v-9q0 -94 -141 -113q-451 94 -451 235zM593 743l226 -66h9q47 0 57 28v19l-198 56h-75l-19 -18v-19zM650 207l84 -123h10q70 0 103 47v10q0 14 -188 75zM725 1307q0 -23 66 -28v19l-28 28h-19z" />
<glyph unicode="&#xa9;" horiz-adv-x="2234" d="M-18 704q136 177 159 346q288 571 916 571q511 0 926 -589q77 -143 131 -337q94 -86 94 -140q-133 -161 -150 -318q-297 -589 -879 -589h-28q-524 0 -963 626q-62 121 -112 309q-92 87 -94 121zM29 704q112 -113 168 -364q289 -496 823 -496q610 0 860 598q0 113 131 262 q-91 88 -187 393q-292 468 -729 468h-131q-489 0 -767 -505q-60 -245 -168 -356zM104 695v19q67 72 140 336q276 477 804 477q471 0 758 -505q46 -195 130 -318q-74 -94 -130 -327q-286 -486 -767 -486h-38q-498 0 -767 505q-73 248 -130 299zM272 714q0 -544 570 -730 l122 -9h140q372 0 617 458q38 136 38 206v112q0 478 -543 673l-131 19h-140q-380 0 -626 -458q-38 -126 -47 -271zM319 714q0 467 514 664q98 28 187 28q465 0 673 -505l28 -206q0 -439 -495 -655l-197 -28q-491 0 -682 505q-28 98 -28 197zM393 667q41 -53 131 -253 q196 -205 431 -205h121q430 0 430 402v19h-290q-22 -225 -159 -225q-116 0 -140 150v205q19 187 140 187q125 0 159 -205h290v374h-131q-42 0 -84 -47q-140 65 -271 65q-398 0 -552 -317q0 -35 -75 -150zM459 686l112 215q190 187 421 187h47q78 0 243 -66q27 0 121 56h38 l28 -28v-243l-28 -28h-169q-17 0 -65 150q-56 56 -122 56h-56q-159 0 -159 -262v-159q0 -162 141 -196h74q169 19 169 205l47 10h130q29 0 29 -38q0 -185 -206 -261q-67 -29 -234 -38q-426 0 -561 440zM609 237q57 -94 121 -94q-99 112 -121 112v-18zM1048 1181 q103 0 234 -56q42 16 65 56l-112 19h-168zM1114 489h9q31 0 47 159l28 28v19l-38 37q-40 0 -46 -149v-94z" />
<glyph unicode="&#xad;" d="M-2 439v246q0 85 85 85h643q63 0 208 -189v-303q0 -75 -76 -75h-624q-89 0 -227 189zM45 401h681v322h-681v-322zM93 477v170l28 28h539l28 -28v-170l-28 -28h-539z" />
<glyph unicode="&#xae;" horiz-adv-x="2189" d="M-43 699q108 132 169 337q318 458 851 458h46q548 0 945 -561q43 -71 121 -280q60 -59 75 -103q0 -24 -112 -178q-82 -289 -327 -439q-265 -178 -617 -178q-507 0 -945 552q-62 88 -112 252q-94 101 -94 140zM4 690q129 -154 140 -271q288 -458 767 -458h140 q493 0 767 449q56 185 150 271q-125 158 -150 308q-281 459 -813 459q-632 0 -879 -524q0 -77 -122 -234zM70 690q72 97 159 337q294 374 757 374h19q539 0 795 -496q0 -90 102 -224q-43 -19 -159 -309q-291 -374 -757 -374q-555 0 -814 486q-8 95 -102 206zM238 699 q0 -513 664 -645h75q508 0 710 421q38 87 38 159v112q0 407 -552 580l-196 19q-541 -23 -720 -477zM285 699q0 390 486 571q98 28 196 28h28q454 0 664 -430l28 -169q0 -400 -495 -570l-178 -37q-499 0 -711 458zM490 353h477v131q-84 0 -84 113q0 56 56 56h19 q159 0 159 -187q0 -96 168 -122h112q131 0 159 122v74h-74q0 -28 -19 -28h-19q0 146 -121 216v18q159 0 159 159q-47 159 -234 159h-758v-112q78 -56 85 -103q0 -42 -66 -150q66 -94 66 -140q0 -54 -85 -84v-122zM490 531h10l18 19v56l-18 19h-10v-94zM528 1008l28 19h598 q281 0 281 -150q-1 -46 -159 -112l-9 -37v-19q10 -25 84 -66q31 -17 56 -168l47 -9h56v-10q-60 -74 -169 -74q-196 0 -196 215q-40 93 -112 93h-150l-37 -37v-122q0 -47 84 -112l-28 -28h-337l-28 28q75 75 75 112v56l-37 122q37 64 37 112v56q0 54 -75 103zM846 812 q0 -56 56 -56h215q47 24 47 74v85q-34 65 -94 65h-159q-50 0 -65 -37v-131zM883 849v28q0 56 56 56h112q75 -4 75 -75q0 -56 -75 -65h-112q-56 0 -56 56zM1164 176l9 -10l94 28v29l-75 74h-19v-56z" />
<glyph unicode="&#xb4;" horiz-adv-x="1024" d="M2 1047v28q378 458 505 458h18q122 0 290 -243q7 -56 19 -56q0 -163 -486 -356q0 -18 -66 -18h-47q-78 0 -233 187zM58 1056h93q477 190 477 299v28q-18 103 -103 103h-9q-122 0 -458 -411v-19zM179 1121v10q266 308 337 308q58 -19 65 -46v-19q0 -86 -402 -253z" />
<glyph unicode="&#xb6;" horiz-adv-x="1583" d="M-2 1036q0 286 318 383q139 38 523 38h477q115 0 187 -112q75 -38 75 -150v-75q0 -131 -112 -131h-56v-299q0 -65 112 -224l-112 -187v-487q0 -121 -94 -121h-177q-66 0 -159 103h-19q-6 -103 -84 -103h-206q-60 0 -224 205v636q-449 265 -449 524zM54 1017 q0 -237 299 -308q140 0 140 -28v-805h262v1291l28 28h141l28 -28v-1291h252v459q0 134 122 262q-122 152 -122 280v290l28 28h140v206h-748q-570 0 -570 -309v-75zM91 1045q0 192 234 281q140 37 524 37h458l28 -28v-75l-28 -28h-112l-28 -28v-392q0 -89 93 -206 q-93 -129 -93 -206v-458l-28 -28h-122l-28 28v1262l-28 28h-215l-28 -28v-1262l-28 -28h-122l-28 28v767l-37 37h-47q-365 39 -365 299z" />
<glyph unicode="&#xb7;" horiz-adv-x="710" d="M0 561q47 262 262 262h9q202 0 393 -318l19 -84q-48 -272 -272 -272h-9q-156 0 -374 300zM56 523q0 -142 187 -177h38q196 37 196 187v47q-38 196 -187 196h-47q-187 -40 -187 -178v-75zM93 561q37 168 169 168h9q136 0 159 -168h9q0 -149 -196 -168q-150 45 -150 168z " />
<glyph unicode="&#xc0;" horiz-adv-x="2115" d="M0 76v130q0 103 149 103q49 0 139 298v74l-27 93l186 195l195 410l47 9v19q-205 74 -287 240l-9 47q0 131 177 167q135 0 444 -380q78 -93 121 -93h112q71 0 223 -214q119 -325 223 -400q121 -100 121 -140l-37 -139q41 -205 130 -205q168 -143 168 -195v-205 q0 -84 -84 -84h-856q-35 0 -84 47h-18q-33 -47 -93 -47h-698q-77 0 -214 168q-28 0 -28 102zM56 2h772v223l-130 47l-19 37q0 84 112 93h186q130 0 130 -84q0 -74 -139 -74v-242h912v242q-216 0 -298 409q12 82 37 112q-233 236 -233 270q-90 238 -139 297h-568 q-26 -21 -186 -381q-186 -170 -186 -186q37 -75 37 -131q-92 -381 -251 -381h-37v-251zM93 76v103l140 74q123 187 148 335v65l-9 112q170 100 326 521l46 9h438q64 0 121 -195q48 -156 251 -345l-19 -121q45 -239 168 -372l130 -74v-112l-28 -28h-772l-28 28v103 q0 19 121 55l18 38v74q0 78 -93 93h-316q-84 0 -93 -112v-55q35 -75 140 -75l9 -46v-75l-28 -28h-642zM449 1675q0 -96 388 -212h93v18q-256 324 -342 324h-74q-44 -21 -65 -65v-65zM486 1694q0 49 75 74q70 0 239 -231v-9q-314 106 -314 166zM754 597l28 -28h195l28 28v10 q-78 279 -112 279h-28q-40 0 -111 -279v-10zM800 625q65 196 84 196q65 -161 65 -205l-9 -9h-121z" />
<glyph unicode="&#xc1;" horiz-adv-x="2112" d="M1 73v130q0 103 149 103q49 0 139 298v74l-28 93q242 248 242 288q117 326 177 326h242v28q-28 0 -46 47q0 47 298 348q34 30 121 46q119 0 297 -251l10 -56q-25 -140 -243 -199l-9 -9v-10q130 -139 186 -316q49 -161 261 -335l18 -47l-37 -139q41 -205 130 -205 q168 -143 168 -195v-205q0 -84 -84 -84h-856q-36 0 -84 47h-18q-33 -47 -93 -47h-698q-77 0 -214 168q-28 0 -28 102zM57 -1h772v223l-130 47l-19 37q0 84 112 93h186q130 0 130 -84q0 -74 -139 -74v-242h911v242q-216 0 -297 409q11 82 37 112q-233 236 -233 270 q-90 238 -139 297h-568q-26 -21 -186 -381q-186 -170 -186 -186q37 -75 37 -131q-92 -381 -251 -381h-37v-251zM94 73v103l140 74q122 187 148 335v65l-9 112q170 100 326 521l46 9h438q64 0 121 -195q48 -156 251 -345l-19 -121q45 -239 168 -372l130 -74v-112l-28 -28 h-772l-28 28v103q0 19 121 55l18 38v74q0 78 -93 93h-316q-84 0 -93 -112v-55q35 -75 140 -75l9 -46v-75l-28 -28h-642zM755 594l28 -28h195l28 28v10q-78 279 -112 279h-28q-40 0 -111 -279v-10zM801 622q65 196 84 196q65 -161 65 -205l-9 -9h-121zM931 1460h93 q382 118 382 208v28q-33 102 -74 102h-65q-88 0 -336 -320v-18zM1062 1525v9q166 227 223 227q50 0 75 -74q-5 -65 -298 -162z" />
<glyph unicode="&#xc2;" horiz-adv-x="2109" d="M-10 74v130q0 103 148 103q49 0 140 298v74l-28 93q242 248 242 288l121 298l-74 93v10q0 38 269 403l93 9h66q183 0 353 -301q149 -208 149 -251q-13 -56 -56 -56v-18q44 -59 177 -382q214 -195 214 -233l-37 -139q41 -205 130 -205q167 -143 167 -195v-205 q0 -84 -83 -84h-856q-36 0 -84 47h-19q-32 -47 -93 -47h-698q-77 0 -214 168q-27 0 -27 102zM45 0h773v223l-131 47l-18 37q0 84 111 93h187q130 0 130 -84q0 -74 -140 -74v-242h912v242q-216 0 -298 409q12 82 38 112q-233 236 -233 270q-91 238 -140 297h-567 q-26 -21 -186 -381q-186 -170 -186 -186q37 -75 37 -131q-92 -381 -251 -381h-38v-251zM83 74v103l139 74q123 187 149 335v65l-9 112q170 100 325 521l47 9h437q65 0 121 -195q49 -156 251 -345l-18 -121q44 -239 167 -372l131 -74v-112l-28 -28h-773l-28 28v103 q0 19 121 55l19 38v74q0 78 -93 93h-316q-84 0 -93 -112v-55q34 -75 139 -75l9 -46v-75l-27 -28h-642zM585 1461h84q29 0 260 176h10q204 -176 251 -176h74q0 53 -242 357h-186q-43 -39 -251 -339v-18zM678 1516v10q160 254 223 254h56q59 0 168 -171l56 -83h-19 q-196 158 -233 158h-28zM743 595l28 -28h196l27 28v10q-77 279 -111 279h-28q-40 0 -112 -279v-10zM790 623q65 196 83 196q66 -161 66 -205l-10 -9h-121zM1032 1386h93v9q-15 38 -65 38l-28 -38v-9z" />
<glyph unicode="&#xc3;" horiz-adv-x="2122" d="M-4 76v130q0 103 148 103q49 0 140 298v74l-28 93q223 232 223 251l131 307l-56 84q48 335 298 335h9l260 -47q15 0 75 94l74 9q78 0 224 -177v-9q0 -151 -131 -307q104 -106 214 -410l224 -242l9 -28l-37 -139q41 -205 130 -205q167 -143 167 -195v-205q0 -84 -83 -84 h-856q-36 0 -84 47h-19q-32 -47 -93 -47h-698q-77 0 -214 168q-27 0 -27 102zM51 2h773v223l-131 47l-18 37q0 84 111 93h186q131 0 131 -84q0 -74 -140 -74v-242h912v242q-216 0 -298 409q12 82 37 112q-232 236 -232 270q-91 238 -140 297h-567q-26 -21 -186 -381 q-186 -170 -186 -186q37 -75 37 -131q-93 -381 -251 -381h-38v-251zM89 76v103l139 74q123 187 149 335v65l-9 112q170 100 325 521l47 9h437q65 0 121 -195q49 -156 251 -345l-18 -121q44 -239 167 -372l130 -74v-112l-27 -28h-773l-28 28v103q0 19 121 55l19 38v74 q0 78 -93 93h-316q-84 0 -93 -112v-55q34 -75 139 -75l9 -46v-75l-28 -28h-642zM600 1416h75q67 102 121 102l270 -55q190 0 232 288h-74q-67 -102 -121 -102q-177 55 -261 55h-18q-171 0 -224 -279v-9zM684 1528v18q61 112 158 112l251 -47h28q46 0 93 28v-18 q-61 -112 -167 -112q-216 56 -279 56zM749 597l28 -28h195l28 28v10q-77 279 -111 279h-28q-41 0 -112 -279v-10zM796 625q65 196 83 196q66 -161 66 -205l-10 -9h-121z" />
<glyph unicode="&#xc4;" horiz-adv-x="2132" d="M-2 74v132q0 104 151 104q51 0 141 301v75l-29 94l207 216l179 395l-141 160l-19 85q0 14 3 28h-4q13 153 253 188q99 0 254 -141h9q80 141 236 141q132 0 290 -196q78 -90 78 -171q0 -127 -178 -207l197 -414q207 -188 207 -225l-38 -141q43 -207 132 -207 q169 -146 169 -198v-207q0 -84 -84 -84h-866q-37 0 -84 47h-19q-33 -47 -94 -47h-705q-80 0 -217 169q-28 0 -28 103zM54 -1h781v226l-132 47l-18 38q0 84 112 94h189q131 0 131 -85q0 -75 -141 -75v-245h922v245q-217 0 -301 414q14 84 37 112q-235 240 -235 273 q-89 240 -141 301h-573q-29 -23 -189 -385q-188 -170 -188 -189q38 -75 38 -131q-94 -386 -254 -386h-38v-254zM92 74v104l141 75q122 188 151 339v66l-10 112q174 99 329 527l47 9h442q66 0 123 -197q47 -155 254 -348l-19 -122q47 -245 169 -376l132 -76v-113l-28 -28 h-781l-28 28v104q0 19 122 56l19 38v75q0 80 -94 94h-320q-85 0 -94 -113v-56q38 -75 141 -75l9 -47v-76l-28 -28h-649zM542 1671h4q-1 -4 -2 -7v-66q0 -99 178 -122q179 19 179 122v59h-2v17q-28 122 -151 122h-56q-118 0 -150 -122v-3zM581 1636l13 26h-7q51 96 133 96 q124 -25 139 -100h-1q5 -15 5 -32q0 -75 -141 -103q-141 28 -141 113zM760 601l28 -28h198l28 28v10q-80 282 -113 282h-28q-43 0 -113 -282v-10zM807 629q66 198 84 198q66 -165 66 -207l-9 -9h-122zM1040 1669h2v-90q66 -103 179 -103q178 19 178 131v42h-2v25 q0 89 -131 122h-66q-160 -28 -160 -122v-5zM1080 1636q5 9 9 18h-7q55 104 137 104q96 0 140 -109h-2q2 -6 5 -13q0 -94 -151 -113q-131 33 -131 113zM1098 1401h29v28h-29v-28z" />
<glyph unicode="&#xc6;" horiz-adv-x="2944" d="M-6 71v132q0 104 150 104q52 0 142 301v75l-29 94q245 249 245 291q117 330 179 330h1946q118 0 207 -132q47 -19 47 -94v-536q0 -94 -75 -94v-19q75 -71 75 -132v-517q0 -75 -75 -75h-1665q-37 0 -84 47h-19q-33 -47 -94 -47h-705q-80 0 -217 169q-28 0 -28 103zM50 -4 h781v226l-132 47l-18 38q0 84 112 94h188q132 0 132 -85q0 -75 -141 -75v-245h1702v565h-470v-113q0 -207 -207 -207h-273q-103 0 -103 94v169q0 85 66 85q75 0 141 -123h216v452h-235q-9 -104 -85 -104h-28q-84 0 -84 66v113q0 94 75 94h348q136 0 169 -179v-159h470v592 h-1993q-29 -9 -160 -338l-217 -236q38 -75 38 -131q-94 -386 -254 -386h-38v-254zM88 71v104l141 75q122 188 151 339v66l-10 112q174 104 329 527l47 9h1862l29 -28v-461l-29 -28h-329l-28 28v113q-47 198 -160 198h-442q-84 0 -84 -113v-160q0 -85 159 -85h29q56 0 103 94 l38 10h75l28 -28v-311l-28 -28h-94q-85 132 -179 132h-28q-94 -14 -94 -94v-217q0 -80 75 -122h414q150 0 188 207v85l28 28h329l29 -28v-424l-29 -28h-1570l-28 28v104q0 19 122 56l19 38v75q0 80 -94 94h-320q-85 0 -94 -113v-56q38 -75 141 -75l9 -47v-76l-28 -28h-649z M756 598l28 -28h197l29 28v10q-80 282 -113 282h-28q-43 0 -113 -282v-10zM803 626q66 198 84 198q66 -165 66 -207l-9 -9h-122zM1818 297h85v19l-66 66h-19v-85z" />
<glyph unicode="&#xc8;" horiz-adv-x="2127" d="M-5 79v85q0 132 113 132l37 47v122q0 47 -112 198q112 164 112 225v47q0 43 -141 179l-9 56v141q0 95 94 95h602v18q-207 76 -252 216l-10 47q0 132 179 169q136 0 412 -356q80 -94 122 -94h687q89 0 207 -170l9 -47v-545q0 -94 -75 -94v-19q75 -71 75 -113v-527 q0 -84 -84 -84h-1721q-80 0 -217 169q-28 0 -28 103zM51 4h1797v565h-471v-85q0 -235 -216 -235h-263q-113 0 -113 113v150q0 85 66 85q131 -28 131 -123h226v452h-235q0 -104 -75 -104h-38q-84 0 -84 66v113q0 94 75 94h348q155 0 178 -226v-112h471v601h-1797v-235 q123 0 151 -159v-19q0 -137 -122 -273q122 -146 122 -273q-14 -160 -151 -160v-235zM89 79v95q141 94 141 122l10 56v113q0 94 -95 198q95 141 95 216v141q0 80 -142 150l-9 38v75l28 28h1655l29 -28v-461l-29 -28h-329l-28 28v113q-42 198 -160 198h-442q-84 0 -84 -160 v-113q0 -70 94 -85h94q56 0 112 104h113l29 -28v-311l-29 -28h-75q-56 0 -85 85l-84 37h-85q-75 -9 -75 -84v-207q14 -132 103 -132h386q146 0 188 198v94l28 28h329l29 -28v-424l-29 -28h-1655zM486 1668q0 -98 355 -187h94v19q-224 300 -308 300h-75q-43 -19 -66 -66v-66z M523 1687q0 52 76 75q70 0 205 -206v-9q-281 79 -281 140zM982 305h85v19q-47 66 -85 66v-85z" />
<glyph unicode="&#xc9;" horiz-adv-x="2134" d="M-8 77v85q0 132 113 132l38 47v122q0 47 -113 198q113 164 113 225v47q0 43 -141 179l-10 56v141q0 95 94 95h865v13l-38 47v28q263 375 404 375q122 0 292 -244l18 -66q-27 -114 -112 -149v-4h311q90 0 207 -170l10 -47v-545q0 -94 -76 -94v-19q76 -71 76 -113v-527 q0 -84 -85 -84h-1721q-80 0 -216 169q-29 0 -29 103zM49 2h1796v565h-470v-85q0 -235 -216 -235h-264q-113 0 -113 113v150q0 85 66 85q132 -28 132 -123h226v452h-235q0 -104 -76 -104h-37q-85 0 -85 66v113q0 94 75 94h348q155 0 179 -226v-112h470v601h-1796v-235 q122 0 150 -159v-19q0 -137 -122 -273q122 -146 122 -273q-14 -160 -150 -160v-235zM86 77v95q142 94 142 122l9 56v113q0 94 -94 198q94 141 94 216v141q0 80 -141 150l-10 38v75l29 28h1655l28 -28v-461l-28 -28h-329l-28 28v113q0 137 -160 207l-113 -9h-329 q-85 0 -85 -160v-113q0 -70 94 -85h94q57 0 113 104h113l28 -28v-311l-28 -28h-75q-57 0 -85 85l-85 37h-84q-76 -9 -76 -84v-207q14 -132 104 -132h385q146 0 189 198v94l28 28h329l28 -28v-424l-28 -28h-1655zM970 1474h94q357 121 357 186v85q-43 66 -94 66h-48 q-84 0 -309 -319v-18zM980 303h85v19q-47 66 -85 66v-85zM1102 1539v10q107 196 196 224q52 -9 85 -66q0 -70 -281 -168z" />
<glyph unicode="&#xca;" horiz-adv-x="2087" d="M-14 79v84q0 131 112 131l38 47v122q0 47 -112 196q112 165 112 224v47q0 42 -140 178l-10 56v140q0 94 94 94h495v18l-37 47v9q0 39 266 382l94 10h65q177 0 491 -466h356q89 0 206 -169l9 -46v-543q0 -93 -75 -93v-19q75 -72 75 -112v-524q0 -84 -84 -84h-1712 q-77 0 -215 168q-28 0 -28 103zM42 4h1787v561h-468l-9 -28l9 -84q0 -188 -215 -206h-262q-112 0 -112 113v149q0 84 65 84q131 -28 131 -121h225v449h-234q0 -103 -75 -103h-37q-85 0 -85 65v113q0 93 75 93h346q157 0 178 -224v-113h468v599h-1787v-234q121 0 150 -159 v-19q0 -134 -122 -271q122 -146 122 -271q-16 -159 -150 -159v-234zM80 79v94q140 95 140 121l9 56v113q0 91 -93 196q93 141 93 215v140q0 80 -140 150l-9 37v75l28 28h1646l28 -28v-458l-28 -28h-328l-28 28v112q-43 196 -159 196h-439q-84 0 -84 -159v-112q0 -71 93 -84 h94q57 0 112 103h112l28 -28v-309l-28 -28h-75q-55 0 -84 84l-84 38h-84q-75 0 -75 -103v-187q15 -131 103 -131h383q147 0 187 196v94l28 28h328l28 -28v-421l-28 -28h-1646zM585 1472h84q29 0 257 111h9q211 -111 258 -111h74q0 54 -248 336h-187q-43 -39 -247 -317v-19z M678 1529v9q156 232 220 232h56q59 0 229 -232h-18q-202 92 -239 92h-28zM968 304h84v18q-46 66 -84 66v-84zM1034 1398h93v9q-15 37 -65 37l-28 -37v-9z" />
<glyph unicode="&#xcb;" horiz-adv-x="2092" d="M-17 73v84q0 131 112 131l38 47v122q0 47 -112 196q112 165 112 224v47q0 42 -141 178l-9 56v140q0 94 94 94h533v18q-141 121 -141 215q0 168 253 206q96 0 252 -140h10q79 140 234 140q154 0 346 -271l18 -84l-18 -84h243q89 0 205 -169l10 -46v-543q0 -93 -75 -93v-19 q75 -72 75 -112v-524q0 -84 -84 -84h-1712q-77 0 -215 168q-28 0 -28 103zM39 -2h1786v561h-467v-84q0 -234 -215 -234h-262q-112 0 -112 113v149q0 84 65 84q131 -28 131 -121h224v449h-233q0 -103 -75 -103h-38q-84 0 -84 65v113q0 93 75 93h346q156 0 178 -224v-113h467 v599h-1786v-234q121 0 150 -159v-19q0 -134 -122 -271q122 -146 122 -271q-16 -159 -150 -159v-234zM77 73v94q140 95 140 121l9 56v113q0 91 -93 196q93 141 93 215v140q0 80 -140 150l-9 37v75l28 28h1646l28 -28v-458l-28 -28h-328l-28 28v112q-43 196 -159 196h-439 q-84 0 -84 -159v-112q0 -71 93 -84h94q57 0 112 103h112l28 -28v-309l-28 -28h-75q-55 0 -84 84q-80 47 -112 47q-131 0 -131 -93v-206q15 -131 103 -131h383q146 0 187 196v94l28 28h328l28 -28v-421l-28 -28h-1646zM525 1588q0 -96 178 -122q178 21 178 122v65 q-29 122 -150 122h-56q-117 0 -150 -122v-65zM563 1625q49 113 140 113q140 -29 140 -122q0 -76 -140 -103q-140 26 -140 112zM965 298h84v18q-47 66 -84 66v-84zM1021 1569q63 -103 178 -103q177 20 177 131v56q0 89 -130 122h-66q-159 -28 -159 -122v-84zM1059 1625 q54 113 140 113q97 0 140 -113q0 -95 -150 -112q-130 32 -130 112zM1077 1392h28v28h-28v-28z" />
<glyph unicode="&#xcc;" horiz-adv-x="1205" d="M-162 1682v9q0 132 178 168q141 0 478 -449l56 -18h374q89 0 205 -169l10 -46v-178q0 -94 -103 -94q-37 -32 -37 -65v-122q0 -29 112 -215q-112 -157 -112 -196v-47q159 -146 159 -215v-159q0 -84 -85 -84h-823q-77 0 -215 168q-28 0 -28 103v56q0 140 122 140 q28 24 28 57v131q0 50 -112 187q112 161 112 205v75q0 44 -150 187v206q0 75 84 75v9q-173 83 -253 281zM-105 1672q0 -96 355 -206h94v19q-221 318 -328 318h-56q-44 -21 -65 -65v-66zM-68 1691q0 40 65 75q73 0 216 -225v-9q-281 100 -281 159zM63 -2h898v215 q-168 18 -168 141v37q0 114 112 253v9q-112 143 -112 262v18q0 178 149 178v234h-879v-234q137 0 150 -187v-9q0 -119 -112 -262v-9q112 -134 112 -253v-47q0 -114 -150 -140v-206zM101 73v47q0 50 112 93q37 40 37 75v169q0 64 -84 196q84 125 84 196v141q0 103 -140 168 l-9 37v75l28 28h739l28 -28v-75q0 -52 -94 -84q-47 -62 -47 -112v-150q0 -76 94 -205q-40 0 -94 -187v-178q18 -57 159 -122v-84l-28 -28h-757z" />
<glyph unicode="&#xcd;" horiz-adv-x="1196" d="M-4 77v56q0 140 121 140q28 24 28 57v131q0 50 -112 187q112 161 112 205v75q0 44 -149 187v206q0 75 75 75h589v18l-38 47v28q276 359 416 359q121 0 290 -243l19 -65q0 -147 -285 -200l-10 -10v-19q75 -68 75 -130v-178q0 -94 -103 -94q-37 -32 -37 -65v-122 q0 -29 112 -215q-112 -157 -112 -196v-47q159 -146 159 -215v-159q0 -84 -84 -84h-823q-78 0 -215 168q-28 0 -28 103zM52 2h898v215q-169 18 -169 141v37q0 114 113 253v9q-113 143 -113 262v18q0 178 150 178v234h-879v-234q136 0 149 -187v-9q0 -119 -112 -262v-9 q112 -134 112 -253v-47q0 -114 -149 -140v-206zM89 77v47q0 50 112 93q38 40 38 75v169q0 64 -84 196q84 125 84 196v141q0 103 -140 168l-10 37v75l28 28h739l28 -28v-75q0 -52 -93 -84q-47 -62 -47 -112v-150q0 -76 93 -205q-40 0 -93 -187v-178q17 -57 159 -122v-84 l-28 -28h-758zM678 1470h94q369 106 369 173v84q-42 65 -94 65h-46q-87 0 -323 -303v-19zM809 1536v9q124 181 210 210q54 -9 84 -66q0 -71 -294 -153z" />
<glyph unicode="&#xce;" horiz-adv-x="1205" d="M-5 75v56q0 140 121 140q28 24 28 57v131q0 50 -112 187q112 161 112 205v75q0 44 -149 187v206q0 84 149 84v9q-47 28 -47 66q251 387 305 387l65 10h94q158 0 444 -481q28 -77 112 -159l9 -56v-178q0 -94 -103 -94q-37 -32 -37 -65v-122q0 -29 112 -215 q-112 -157 -112 -196v-47q159 -146 159 -215v-159q0 -84 -84 -84h-823q-78 0 -215 168q-28 0 -28 103zM41 1141q6 -37 66 -37q93 -57 93 -178v-9q0 -119 -112 -262v-9q112 -134 112 -253v-47q0 -112 -149 -140v-206h897v215q-168 18 -168 141v37q0 114 112 253v9 q-112 143 -112 262v18q0 178 150 178v234h-879v-103zM88 75v47q0 50 112 93q38 40 38 75v169q0 64 -84 196q84 125 84 196v141q0 103 -141 168l-9 37v75l28 28h739l28 -28v-75q0 -52 -94 -84q-46 -62 -46 -112v-150q0 -76 93 -205q-40 0 -93 -187v-178q17 -57 159 -122v-84 l-28 -28h-758zM154 1468h74q33 0 267 126q224 -126 257 -126h75v29q-175 249 -238 322h-187q-63 -73 -248 -322v-29zM238 1534q175 247 220 247h65q59 0 220 -247h-10l-210 107h-56q-201 -107 -229 -107zM593 1394h94v9q-5 19 -47 37q-43 -18 -47 -37v-9z" />
<glyph unicode="&#xcf;" horiz-adv-x="1185" d="M-12 78v56q0 139 121 139q28 24 28 56v131q0 50 -112 186q112 160 112 204v75q0 44 -149 186v205q0 74 74 74h84v19q-136 131 -139 204q0 177 251 214q99 0 251 -139h9q87 139 233 139q156 0 354 -279l9 -74q0 -73 -75 -149v-19q75 -68 75 -130v-177q0 -93 -103 -93 q-37 -32 -37 -65v-121q0 -29 112 -214q-112 -156 -112 -195v-47q158 -146 158 -214v-158q0 -84 -83 -84h-819q-77 0 -214 168q-28 0 -28 102zM44 4h893v214q-167 18 -167 139v37q0 114 111 252v9q-111 142 -111 260v19q0 177 148 177v232h-874v-232q135 0 149 -186v-10 q0 -118 -112 -260v-9q112 -134 112 -252v-46q0 -114 -149 -140v-204zM62 1595q30 -131 177 -131q186 0 186 159q-30 148 -139 148h-75q-149 -27 -149 -120v-56zM81 78v47q0 49 112 93q37 39 37 74v168q0 63 -84 195q84 125 84 195v140q0 103 -140 167l-9 38v74l28 28h735 l28 -28v-74q0 -53 -93 -84q-47 -62 -47 -112v-149q0 -76 93 -204q-39 0 -93 -186v-177q18 -56 159 -121v-84l-28 -28h-754zM100 1623q43 111 158 111q121 -36 121 -121q0 -81 -149 -102q-130 34 -130 112zM556 1595q32 -131 176 -131q177 21 177 121v66q0 87 -130 120h-65 q-158 -30 -158 -130v-46zM593 1613q0 91 158 121q121 -37 121 -121q0 -81 -149 -102q-130 41 -130 102zM611 1390h28v28h-28v-28z" />
<glyph unicode="&#xd2;" horiz-adv-x="2272" d="M-23 637v9q0 31 103 168q92 318 288 428q242 126 419 139v28q-135 38 -274 227l-9 55q0 135 176 168q143 0 526 -459q374 -81 493 -168q409 -339 409 -549q112 -144 112 -176q0 -21 -84 -121q-118 -323 -260 -410q-293 -223 -698 -223q-681 0 -1061 614q-24 142 -140 270 zM24 656q75 -87 177 -354q276 -344 763 -344h149q547 0 781 456q17 112 130 232q-91 107 -167 345q-243 353 -763 353h-158q-598 0 -782 -437q-28 -125 -130 -251zM89 656q84 108 121 269q193 382 828 382q633 0 819 -447q3 -71 102 -214q-58 -37 -139 -279 q-247 -372 -810 -372q-552 0 -800 400q-43 161 -121 261zM550 1682q34 -93 233 -170q124 -47 190 -66h93v19q-279 338 -386 338h-55q-75 -37 -75 -121zM597 1691q0 40 65 75q72 0 274 -245v-9q-314 112 -339 179zM750 618q0 -446 251 -446h46q206 0 242 363v176 q-36 428 -242 428h-37q-260 -67 -260 -446v-75zM787 646q38 421 223 447h19q189 0 223 -428v-37q0 -410 -232 -410q-233 0 -233 428zM992 469q5 -204 37 -204h9q139 0 158 288v158q0 105 -28 186h-27q-149 -90 -149 -372v-56z" />
<glyph unicode="&#xd3;" horiz-adv-x="2281" d="M-33 636v9q0 25 111 186q0 252 419 484q301 84 419 84l-9 65q284 388 426 388q116 0 288 -242l19 -65q0 -127 -203 -193v-9q329 -92 614 -493q43 -186 149 -316l9 -28q0 -21 -84 -121q-118 -323 -260 -410q-293 -223 -698 -223q-681 0 -1061 614q-23 142 -139 270z M13 655q76 -87 177 -354q277 -344 763 -344h149q547 0 781 456q17 112 131 232q-92 107 -168 345q-117 195 -381 288q-92 46 -391 74q-704 0 -893 -362q-73 -217 -168 -335zM78 655q71 83 131 288q212 363 781 363h28q656 0 828 -456q16 -82 103 -205q-45 -16 -159 -316 q-270 -335 -781 -335q-549 0 -800 381q-60 189 -131 280zM739 617q0 -446 251 -446h47q251 0 251 511q-46 456 -251 456h-37q-261 -67 -261 -446v-75zM776 636q39 432 224 456h18q189 0 223 -428v-37q0 -410 -232 -410q-186 0 -223 317zM962 1445h93q380 136 380 202v56 q-19 93 -93 93h-47q-89 0 -333 -332v-19zM981 468q5 -204 37 -204h9q139 0 159 288v158q0 105 -28 186h-28q-149 -90 -149 -372v-56zM1083 1511v9q169 229 231 239q35 0 74 -56v-37q-3 -45 -305 -155z" />
<glyph unicode="&#xd4;" horiz-adv-x="2260" d="M-14 638v9q0 25 112 186q0 229 363 456q104 49 204 65v28l-46 56v9q0 38 273 417l93 9h65q168 0 313 -249q195 -323 233 -335q214 -93 446 -400l103 -251q83 -87 83 -130q0 -21 -83 -121q-118 -323 -261 -410q-285 -223 -716 -223q-655 0 -1042 614q-24 142 -140 270z M33 657q75 -87 176 -354q277 -344 763 -344h149q547 0 782 456q17 112 130 232q-91 107 -167 345q-243 353 -763 353h-159q-597 0 -781 -437q-28 -125 -130 -251zM98 657q74 101 149 325q222 326 791 326q655 0 828 -456q16 -82 102 -205q-44 -16 -158 -316 q-270 -335 -782 -335q-549 0 -800 381q-60 189 -130 280zM665 1447h84q29 0 261 177h9q205 -177 251 -177h75q0 54 -239 371h-186q-44 -39 -255 -352v-19zM758 619q0 -446 252 -446h46q206 0 242 363v176q-36 428 -242 428h-37q-261 -67 -261 -446v-75zM758 1503v10 q164 267 227 267h56q58 0 164 -184l56 -83h-19q-195 158 -232 158h-28zM796 638q38 432 223 456h19q145 0 204 -270l19 -177q0 -428 -233 -428q-186 0 -223 317zM1000 470q6 -204 38 -204h9q139 0 158 288v158q0 105 -28 186h-28q-149 -90 -149 -372v-56z" />
<glyph unicode="&#xd5;" horiz-adv-x="2324" d="M-31 674v10q0 24 115 192q0 236 366 462l193 77l-10 58q58 337 308 337h10l269 -48q14 0 77 96l77 9q82 0 231 -182v-10q0 -96 -87 -279q327 -106 587 -481l97 -241q86 -91 86 -135q0 -19 -86 -125q-121 -332 -270 -423q-303 -231 -722 -231q-702 0 -1097 635 q-24 144 -144 279zM17 693q77 -91 183 -365q284 -356 789 -356h154q568 0 808 471q20 116 135 241q-96 110 -173 356q-246 375 -885 375q-703 0 -886 -481q-5 -82 -125 -241zM84 693q77 106 154 337q231 337 818 337q679 0 857 -471q14 -87 106 -212q-48 -15 -164 -327 q-279 -347 -808 -347q-568 0 -828 395q-62 192 -135 288zM681 1463h77q67 106 125 106l279 -58q198 0 241 299h-77q-68 -106 -125 -106q-183 58 -270 58h-19q-178 0 -231 -289v-10zM768 655q0 -462 260 -462h48q211 0 250 375v183q-39 443 -250 443h-39q-269 -68 -269 -462 v-77zM768 1579v19q62 115 163 115l260 -48h29q48 0 96 29v-19q-62 -116 -173 -116q-221 58 -289 58zM806 684q39 438 231 462h19q198 0 231 -443v-38q0 -424 -240 -424q-198 0 -231 337zM1018 501q5 -212 38 -212h10q144 0 164 299v163q0 111 -29 193h-29 q-154 -97 -154 -385v-58z" />
<glyph unicode="&#xd6;" horiz-adv-x="2279" d="M-6 672v10q0 23 113 188q0 249 404 480l198 56v28q-141 122 -141 217q0 169 254 206q98 0 254 -141h9q80 141 235 141t348 -272l19 -85q-10 -80 -66 -141v-19q273 -155 461 -432l94 -236q84 -89 84 -131q0 -19 -84 -122q-118 -325 -263 -414q-297 -226 -706 -226 q-686 0 -1072 621q-23 141 -141 272zM41 691q75 -89 179 -357q277 -348 771 -348h150q555 0 790 461q19 113 132 235q-94 108 -169 348q-245 357 -771 357h-160q-602 0 -790 -442q-29 -127 -132 -254zM107 691q70 85 132 292q216 367 789 367h29q663 0 837 -461 q14 -85 103 -207q-47 -14 -160 -320q-272 -338 -790 -338q-555 0 -808 385q-62 188 -132 282zM624 1613q0 -99 179 -122q178 18 178 122v66q-28 122 -150 122h-56q-118 0 -151 -122v-66zM662 1651q51 112 141 112q141 -28 141 -122q0 -75 -141 -103q-141 28 -141 113z M775 654q0 -452 253 -452h48q206 0 244 367v179q-38 432 -244 432h-38q-263 -66 -263 -451v-75zM812 682q38 428 226 451h19q193 0 225 -432v-38q0 -414 -235 -414q-192 0 -225 329zM1019 503q5 -207 38 -207h9q160 0 160 329v123q0 108 -28 188h-28q-151 -94 -151 -376v-57 zM1123 1594q65 -103 178 -103q179 18 179 131v57q0 89 -132 122h-66q-159 -28 -159 -122v-85zM1160 1651q57 112 141 112q99 0 141 -112q0 -95 -150 -113q-132 33 -132 113z" />
<glyph unicode="&#xd9;" horiz-adv-x="2166" d="M-2 1143v160q0 94 94 94h677v10q-221 122 -272 221l-18 56q0 127 178 169q137 0 375 -296q160 -160 179 -160h677q90 0 207 -169l10 -47v-197q0 -94 -104 -94q-37 -24 -37 -66v-19q0 -85 112 -226v-19l-103 -178q0 -381 -451 -555q-203 -47 -348 -47q-673 0 -997 536 l-57 244l-84 104v9q0 24 94 170l9 37v38q0 42 -132 169zM54 1096q118 0 141 -150q0 -118 -112 -263q122 -146 122 -330q66 -178 338 -300q212 -66 433 -66h104q526 0 667 385q0 165 132 329q-122 165 -122 273q0 90 150 122v254h-790v-244q146 0 179 -122v-489 q0 -207 -273 -236q-212 0 -244 264v404q4 179 178 179v244h-903v-254zM92 1181v94l28 28h762l28 -28v-103l-131 -85q-38 -38 -38 -94v-545q0 -170 235 -226h113q202 0 254 235v527q0 122 -179 169l-9 9v113l28 28h649l28 -28v-94q0 -52 -94 -85q-47 -51 -47 -94v-56 q0 -113 94 -245q-66 -61 -132 -366q-164 -311 -667 -311q-555 0 -762 339q0 174 -104 320q85 131 85 197v122q0 76 -132 141zM535 1665q0 -99 385 -192h94v18q-249 306 -338 306h-47q-94 -19 -94 -94v-38zM582 1665v19q0 56 66 75q66 0 243 -211v-10h-9q-291 85 -300 127z M985 316h85q179 28 179 141v423q0 52 -75 104h-19q0 -85 -123 -85q-47 -38 -47 -75v-508z" />
<glyph unicode="&#xda;" horiz-adv-x="2157" d="M-5 1140v160q0 94 94 94h884v19l-38 47v28q263 375 404 375q122 0 292 -244l18 -66q-27 -114 -112 -149v-10h348q90 0 207 -169l10 -47v-197q0 -94 -104 -94q-37 -24 -37 -66v-19q0 -85 112 -226v-19l-103 -178q0 -353 -395 -536q-230 -66 -376 -66q-630 0 -941 414 q-70 0 -141 366l-84 104v9q0 24 94 170l9 37v38q0 42 -132 169zM51 1093q118 0 141 -150q0 -118 -112 -263q122 -146 122 -330q66 -178 338 -300q212 -66 433 -66h104q526 0 667 385q0 165 132 329q-122 165 -122 273q0 90 150 122v254h-790v-244q146 0 179 -122v-489 q0 -207 -273 -236q-212 0 -244 264v404q4 179 178 179v244h-903v-254zM89 1178v94l28 28h762l28 -28v-103l-131 -85q-38 -38 -38 -94v-545q0 -170 235 -226h113q202 0 254 235v527q0 122 -179 169l-9 9v113l28 28h649l28 -28v-94q0 -52 -94 -85q-47 -51 -47 -94v-84 q0 -75 94 -217q-75 -75 -122 -338q-146 -339 -668 -339q-569 0 -771 339q0 174 -104 320q85 131 85 197v122q0 76 -132 141zM982 313h85q179 28 179 141v423q0 52 -75 104h-19q0 -85 -123 -85q-47 -38 -47 -75v-508zM992 1470h94q357 121 357 186v85q-43 66 -94 66h-48 q-84 0 -309 -319v-18zM1124 1535v10q107 196 196 224q52 -9 85 -66q0 -70 -281 -168z" />
<glyph unicode="&#xdb;" horiz-adv-x="2175" d="M4 1154v159q0 94 94 94h570l19 19q-17 0 -47 56q198 356 280 448l66 10h93q116 0 187 -112q58 -37 281 -412l9 -9h328q89 0 205 -169l10 -46v-197q0 -93 -103 -93q-38 -26 -38 -66v-18q0 -86 113 -225v-47q-122 -117 -122 -280q-85 -258 -280 -355q-213 -113 -496 -113 q-670 0 -991 533l-56 244l-85 102v10q0 25 94 168l9 37v38q0 42 -131 168zM60 1108q115 0 140 -150q0 -116 -112 -262q122 -145 122 -327q64 -176 336 -299q211 -66 431 -66h102q526 0 664 383q0 164 131 328q-121 162 -121 271q0 90 149 122v252h-785v-243q145 0 177 -122 v-486q0 -207 -271 -234q-212 0 -243 262v402q7 178 178 178v243h-898v-252zM98 1192v93l28 28h757l28 -28v-103l-131 -84q-37 -39 -37 -93v-543q0 -168 234 -224h112q202 0 252 234v523q0 124 -177 169l-10 9v112l28 28h646l28 -28v-93q0 -50 -94 -84q-47 -54 -47 -94v-84 q0 -74 94 -215q-73 -75 -122 -337q-147 -337 -664 -337q-568 0 -767 337q0 175 -102 318q84 130 84 196v122q0 73 -131 140zM696 1482h75q36 0 262 177q232 -177 261 -177h85v18q-209 345 -253 384h-187q-243 -349 -243 -402zM780 1547q173 299 215 299h66q69 0 224 -308 l-224 168h-28q-38 0 -234 -159h-19zM986 331h84q178 30 178 141v420q0 50 -75 103h-19q0 -84 -121 -84q-47 -36 -47 -75v-505zM1136 1407h93v9q-19 38 -47 38q-42 -19 -46 -38v-9z" />
<glyph unicode="&#xdc;" horiz-adv-x="2166" d="M-12 1150v159q0 94 94 94h589v19q-141 120 -141 215q0 167 253 205q96 0 252 -140h10q79 140 233 140q155 0 347 -271l18 -84l-18 -84h243q89 0 205 -169l10 -46v-197q0 -93 -103 -93q-38 -26 -38 -66v-18q0 -86 113 -225v-47q-122 -117 -122 -280q-85 -258 -280 -355 q-213 -113 -496 -113q-670 0 -991 533l-56 244l-85 102v10q0 25 94 168l9 37v38q0 42 -131 168zM44 1104q115 0 140 -150q0 -116 -112 -262q122 -145 122 -327q64 -176 336 -299q211 -66 431 -66h102q526 0 664 383q0 164 131 328q-121 162 -121 271q0 90 149 122v252h-785 v-243q145 0 177 -122v-486q0 -207 -271 -234q-212 0 -243 262v402q7 178 178 178v243h-898v-252zM82 1188v93l28 28h757l28 -28v-103l-131 -84q-37 -39 -37 -93v-543q0 -168 234 -224h112q202 0 252 234v523q0 124 -177 169l-10 9v112l28 28h646l28 -28v-93q0 -50 -94 -84 q-47 -54 -47 -94v-84q0 -74 94 -215q-73 -75 -122 -337q-147 -337 -664 -337q-568 0 -767 337q0 175 -102 318q84 130 84 196v122q0 73 -131 140zM586 1599q0 -96 178 -121q187 22 187 140q-22 168 -149 168h-66q-117 0 -150 -121v-66zM624 1637q49 112 140 112 q140 -29 140 -122q0 -76 -140 -103q-140 26 -140 113zM970 327h84q178 30 178 141v420q0 50 -75 103h-19q0 -84 -121 -84q-47 -36 -47 -75v-505zM1082 1580q63 -102 178 -102q177 20 177 131v56q0 88 -130 121h-85q-140 -38 -140 -121v-85zM1120 1637q54 112 140 112 q97 0 140 -112q0 -96 -150 -113q-130 32 -130 113zM1138 1403h28v28h-28v-28z" />
<glyph unicode="&#xe0;" horiz-adv-x="1745" d="M-2 266q0 136 178 272q-122 129 -122 215q0 189 365 280v9q-290 222 -290 328q0 142 178 168q135 0 533 -458q24 -41 271 -94q421 -241 421 -486l103 -150v-56q-29 -34 -29 -65q103 -74 103 -150v-9q0 -278 -364 -318h-28q-113 0 -281 103h-9q-270 -94 -459 -94 q-329 0 -551 393zM54 210q0 -170 234 -234l112 -9h56q230 0 430 94q150 -113 290 -113q337 0 337 272v28h-66q-44 -56 -74 -56q-47 15 -47 56q0 50 112 224v9q-121 131 -121 272q-167 233 -477 233h-328q-352 0 -411 -233v-10q0 -159 224 -159h38q196 0 196 197 q33 28 112 28q148 0 206 -150q0 -84 -93 -84q-569 0 -646 -131q-84 -64 -84 -150v-84zM92 257q0 235 476 271h253q93 0 93 94v56q-43 168 -187 168h-131q-93 0 -93 -150q-35 -65 -150 -65h-18q-187 0 -187 122q69 196 458 196h159q415 -17 514 -253q0 -79 94 -233 q-94 -139 -94 -215v-10q13 -93 94 -93h9l75 28v-10q-48 -168 -271 -168h-19q-117 0 -253 112h-28q-276 -103 -448 -103q-337 28 -337 216zM176 1360q0 -102 467 -289h103v18q-334 393 -421 393h-56q-87 0 -93 -122zM222 1379q33 66 75 66q69 0 328 -309v-9 q-403 181 -403 252zM494 257q37 -131 159 -131h102q111 0 169 94v168q-32 65 -112 65h-85q-166 0 -233 -112v-84zM531 294q47 122 243 122q112 0 112 -103v-19q0 -131 -196 -131q-159 29 -159 131z" />
<glyph unicode="&#xe1;" horiz-adv-x="1732" d="M-16 275q0 136 178 272q-122 129 -122 215q0 249 561 299q0 56 412 449l121 37q121 0 290 -243l19 -65q0 -130 -290 -253v-28q145 -58 318 -281q69 -246 150 -318v-56q-29 -34 -29 -65q103 -74 103 -150v-9q0 -278 -364 -318h-28q-113 0 -281 103h-9q-270 -94 -459 -94 q-329 0 -551 393zM40 219q0 -170 234 -234l112 -9h56q230 0 430 94q150 -113 290 -113q337 0 337 272v28h-66q-44 -56 -74 -56q-47 15 -47 56q0 50 112 224v9q-121 131 -121 272q-167 233 -477 233h-328q-352 0 -411 -233v-10q0 -159 224 -159h38q196 0 196 197 q33 28 112 28q148 0 206 -150q0 -84 -93 -84q-569 0 -646 -131q-84 -64 -84 -150v-84zM78 266q0 235 476 271h253q93 0 93 94v56q-43 168 -187 168h-131q-93 0 -93 -150q-35 -65 -150 -65h-18q-187 0 -187 122q69 196 458 196h159q415 -17 514 -253q0 -79 94 -233 q-94 -139 -94 -215v-10q13 -93 94 -93h9l75 28v-10q-48 -168 -271 -168h-19q-117 0 -253 112h-28q-276 -103 -448 -103q-337 28 -337 216zM480 266q37 -131 159 -131h102q111 0 169 94v168q-32 65 -112 65h-85q-166 0 -233 -112v-84zM517 303q47 122 243 122q112 0 112 -103 v-19q0 -131 -196 -131q-159 29 -159 131zM667 1080h103q467 183 467 289v29q-21 102 -112 102q-108 0 -458 -402v-18zM788 1136v9q271 309 337 309q65 -19 65 -75q-5 -68 -402 -243z" />
<glyph unicode="&#xe2;" horiz-adv-x="1745" d="M-17 275q0 136 178 272q-122 129 -122 215q0 167 290 261l-19 57q240 448 318 448h112q175 0 328 -299q177 -254 196 -336q253 -204 253 -384l103 -150v-56q-29 -34 -29 -65q103 -74 103 -150v-9q0 -278 -364 -318h-28q-113 0 -281 103h-9q-270 -94 -459 -94 q-329 0 -551 393zM39 219q0 -170 234 -234l112 -9h56q230 0 430 94q150 -113 290 -113q337 0 337 272v28h-66q-44 -56 -74 -56q-47 15 -47 56q0 50 112 224v9q-121 131 -121 272q-167 233 -477 233h-328q-352 0 -411 -233v-10q0 -159 224 -159h38q196 0 196 197 q33 28 112 28q148 0 206 -150q0 -84 -93 -84q-569 0 -646 -131q-84 -64 -84 -150v-84zM77 266q0 235 476 271h253q93 0 93 94v56q0 148 -243 177q-159 0 -159 -102q0 -122 -159 -122h-18q-187 0 -187 122q69 196 458 196h178q345 0 495 -243q0 -91 94 -243 q-94 -139 -94 -215v-10q13 -93 94 -93h9l75 28v-10q-48 -168 -271 -168h-19q-117 0 -253 112h-28q-276 -103 -448 -103q-337 28 -337 216zM366 1080h85q33 0 243 168h9l224 -168h113v18q-228 373 -243 374h-187q-113 -122 -244 -392zM451 1136q164 299 205 299h75 q59 0 168 -215l57 -84h-19q-197 159 -234 159h-28l-215 -159h-9zM479 266q37 -131 159 -131h102q111 0 169 94v168q-32 65 -112 65h-85q-166 0 -233 -112v-84zM516 303q47 122 243 122q112 0 112 -103v-19q0 -131 -196 -131q-159 29 -159 131z" />
<glyph unicode="&#xe3;" horiz-adv-x="1750" d="M-28 296q0 135 177 270q-121 130 -121 215q0 171 280 252l-10 75q65 327 299 327l271 -56l65 84l75 18q90 0 215 -158q18 0 18 -47q0 -104 -112 -262v-18q374 -245 374 -467l102 -149v-56q-28 -34 -28 -66q103 -74 103 -149v-9q0 -278 -364 -318h-28q-112 0 -280 103h-9 q-269 -93 -458 -93q-328 0 -551 392zM28 240q0 -170 233 -234l112 -9h56q229 0 430 93q149 -112 289 -112q336 0 336 271v28h-65q-44 -56 -75 -56q-47 15 -47 56q0 51 112 224v9q-121 131 -121 271q-166 233 -476 233h-327q-351 0 -411 -233v-9q0 -159 224 -159h38 q196 0 196 196q32 28 112 28q148 0 205 -149q-12 -84 -46 -84q-551 0 -635 -84q-140 -95 -140 -196v-84zM65 286q0 235 476 271h252q94 0 94 93v56q-43 168 -187 168h-131q-93 0 -93 -149q-35 -65 -150 -65h-18q-187 0 -187 121q70 196 457 196h159q414 -17 514 -252 q0 -79 93 -233q-93 -139 -93 -215v-9q12 -94 93 -94h9l75 28v-9q-48 -168 -271 -168h-18q-106 0 -262 112h-18q-275 -103 -458 -103q-327 28 -327 224zM345 1098h75q62 94 121 94l224 -47h84q140 0 196 280h-93q0 -66 -93 -102q-187 56 -252 56h-47q-163 0 -215 -271v-10z M420 1201q68 140 168 140q205 -56 261 -56h19q49 0 84 28h9v-9q-60 -121 -168 -121q-216 56 -280 56zM466 286q38 -130 159 -130h103q110 0 168 93v168q-32 65 -112 65h-84q-166 0 -234 -112v-84zM504 324q46 121 243 121q112 0 112 -103v-18q0 -131 -196 -131 q-159 28 -159 131z" />
<glyph unicode="&#xe4;" horiz-adv-x="1791" d="M-30 292q0 135 178 270q-122 130 -122 215q0 161 299 271q-108 126 -112 187q0 181 252 214q106 0 252 -140h10q75 140 233 140q159 0 345 -270l19 -75q0 -85 -84 -168v-28q261 -193 261 -383l103 -149v-56q-28 -34 -28 -66q103 -74 103 -149v-9q0 -278 -364 -318h-28 q-113 0 -280 103h-10q-274 -93 -438 -93q-354 0 -570 392zM26 236q0 -170 234 -234l112 -9h56q229 0 429 93q150 -112 290 -112q336 0 336 280v19h-66q-43 -56 -74 -56q-47 15 -47 56q0 51 112 224v9q-121 131 -121 271q-166 233 -476 233h-327q-352 0 -411 -233v-9 q0 -159 224 -159h38q196 0 196 196q32 28 112 28q147 0 205 -149q0 -84 -93 -84q-568 0 -645 -131q-84 -63 -84 -149v-84zM64 282q0 235 476 271h252q93 0 93 93v56q-43 168 -186 168h-131q-93 0 -93 -149q-35 -65 -150 -65h-18q-187 0 -187 121q69 196 457 196h159 q414 -17 513 -252q0 -79 94 -233q-94 -132 -94 -234q0 -68 94 -84h9l75 28v-9q-48 -168 -271 -168h-19q-116 0 -252 112h-28q-276 -103 -448 -103q-336 28 -336 215zM269 1216q29 -122 150 -122h65q149 19 149 150q-23 149 -149 149h-65q-117 0 -150 -121v-56zM307 1244 q44 112 149 112q131 -25 131 -121q0 -77 -140 -103q-101 0 -140 112zM465 282q38 -130 159 -130h103q110 0 168 93v168q-32 65 -112 65h-84q-166 0 -234 -112v-84zM503 320q46 121 242 121q112 0 112 -103v-18q0 -131 -196 -131q-158 28 -158 131zM764 1216 q32 -122 149 -122h66q140 24 140 113v65q0 100 -140 121h-75q-140 -30 -140 -140v-37zM801 1235q0 86 150 121q130 -25 130 -121q0 -77 -140 -103q-80 0 -140 103z" />
<glyph unicode="&#xe6;" horiz-adv-x="2455" d="M-34 291q0 135 177 270q-121 132 -121 206q0 242 485 289h280q184 0 327 -75q161 75 327 75h112q493 0 784 -551l28 -130l-28 -112l9 -28q-173 -467 -681 -467h-65q-508 19 -561 93l-28 19q-286 -93 -429 -93h-75q-277 0 -513 364zM22 235q44 -252 336 -252h47 q235 0 448 102q102 -112 523 -112l121 -9q481 0 644 383v37h-411l-74 -121q-53 -56 -140 -56q-138 0 -178 186q0 47 84 47h710l28 28v93q0 163 -262 364q-154 84 -420 84q-203 0 -392 -84q-47 84 -429 84q-588 0 -588 -242q0 -159 224 -159h37q196 0 196 187q36 28 84 28h19 q214 -31 214 -140q0 -84 -74 -84q-572 0 -644 -112q-103 -78 -103 -168v-84zM59 281q0 231 458 271h270q94 0 94 93v66q-52 149 -187 149h-159q-46 0 -74 -159q-44 -46 -140 -46h-19q-187 0 -187 121q80 187 402 187h252q171 0 326 -84h38q125 84 317 84h84q453 0 579 -411 l9 -37q-9 -38 -56 -38h-718q-56 -28 -56 -84q36 -224 186 -224h94q124 0 177 168l47 10h261l19 -19q-172 -317 -560 -317h-66q-532 18 -532 102l-65 19q-260 -103 -420 -103h-56q-232 0 -299 168zM451 319q30 -168 168 -168h103q106 0 168 93v177q-29 56 -103 56h-130 q-206 -28 -206 -158zM498 328q0 84 233 112q122 0 122 -84v-37q0 -131 -187 -131q-168 22 -168 140zM1310 655q0 -66 75 -66h233q75 0 75 66v18q0 132 -149 159h-75q-159 -30 -159 -159v-18zM1357 645v47q57 103 149 103q104 0 140 -122v-28l-46 -9h-196z" />
<glyph unicode="&#xe8;" horiz-adv-x="1678" d="M-57 457v9q0 26 112 178q0 136 281 336l186 65v28q-81 0 -317 280l-9 56v10q0 133 168 158q143 0 494 -410q76 -121 280 -159q100 0 411 -374q59 -94 84 -242q-37 -249 -130 -364q-246 -243 -570 -243h-84q-472 0 -784 485q0 48 -122 187zM-10 476q112 -146 159 -271 q199 -224 607 -224q476 0 644 364l9 56h-429q-59 -187 -187 -187q-146 0 -187 196q13 47 66 47h700q56 0 56 56v56q-120 448 -588 448h-168q-389 0 -560 -345q0 -37 -122 -196zM55 476q59 74 150 270q196 234 560 234q510 0 625 -439q-9 -37 -56 -37h-672q-102 0 -102 -84 v-19q0 -185 205 -224h56q125 0 205 177l38 10h261l19 -19q-173 -317 -560 -317h-75q-379 0 -551 270q-14 61 -103 178zM242 1400q0 -100 402 -261q21 -29 65 -29h103v19q-341 392 -430 392h-74q-40 0 -66 -93v-28zM289 1409v10q0 43 65 65q72 0 336 -308v-9 q-396 177 -401 242zM569 672q15 -56 65 -56h290l37 37v47q0 114 -168 149h-37q-187 -32 -187 -177zM616 681q34 121 177 121q121 -30 121 -121q-9 -28 -56 -28h-186q-34 0 -56 28z" />
<glyph unicode="&#xe9;" horiz-adv-x="1745" d="M-31 453v9q0 26 112 178q0 136 280 336q121 56 308 93q0 91 140 196q243 308 383 308q121 0 290 -242l18 -66q0 -135 -299 -252v-19q458 -343 458 -606q-37 -249 -131 -364q-245 -243 -569 -243h-84q-472 0 -784 485q0 48 -122 187zM16 472q108 -146 159 -271 q199 -224 606 -224q477 0 645 364l9 56h-430q-48 -177 -177 -177q-196 15 -196 186q13 47 65 47h701q56 0 56 56v56q0 152 -224 345q-161 112 -486 112q-444 0 -616 -373q0 -30 -112 -177zM81 472q59 74 150 270q195 234 560 234q449 0 597 -346l28 -112l-28 -18h-700 q-103 0 -103 -84v-19q0 -185 206 -224h28q174 0 224 177l46 10h262l19 -19q-174 -317 -561 -317h-74q-380 0 -551 270q-14 61 -103 178zM595 668q14 -56 65 -56h289l38 37v47q-29 149 -196 149h-10q-186 -32 -186 -177zM641 677q35 121 178 121q121 -30 121 -121 q-9 -28 -56 -28h-187q-33 0 -56 28zM725 1106h103q467 183 467 290v28q-26 93 -65 93h-75q-81 0 -430 -392v-19zM847 1163v9q270 308 336 308q65 -19 65 -75q-5 -68 -401 -242z" />
<glyph unicode="&#xea;" horiz-adv-x="1707" d="M-68 461v9q0 27 114 181q0 139 267 324l86 58v9l-57 67v9q158 317 286 458l86 9h66q178 0 334 -305q190 -263 190 -352q353 -309 353 -534q-38 -254 -133 -372q-251 -247 -582 -247h-86q-481 0 -800 495q0 49 -124 191zM-20 480q114 -149 162 -276q203 -229 619 -229 q486 0 658 371l9 58h-438q-60 -191 -191 -191q-149 0 -190 200q13 48 66 48h715q57 0 57 57v57q0 187 -286 391q-179 76 -447 76q-440 0 -620 -381q0 -31 -114 -181zM46 480q60 75 153 276q200 239 572 239q520 0 638 -448q-9 -39 -57 -39h-686q-105 0 -105 -85v-19 q0 -189 210 -229h57q127 0 210 181l38 10h267l19 -20q-177 -324 -572 -324h-76q-388 0 -563 277q-14 62 -105 181zM399 1128h86q34 0 248 172h9l229 -172h114v19q-231 380 -248 381h-190q-115 -124 -248 -400zM485 1185q167 305 209 305h77q60 0 171 -219l57 -86h-19 q-200 162 -238 162h-28l-220 -162h-9zM571 680q14 -57 66 -57h296l38 38v48q-29 152 -200 152h-10q-190 -33 -190 -181zM618 690q35 123 181 123q124 -31 124 -123q-9 -29 -57 -29h-191q-34 0 -57 29z" />
<glyph unicode="&#xeb;" horiz-adv-x="1705" d="M-73 466v9q0 27 114 181q0 148 305 353l86 29v28q-133 125 -143 210q0 185 257 219q108 0 258 -143h9q77 143 248 143q148 0 343 -276l19 -76q0 -105 -114 -191v-19q343 -322 343 -534q-38 -254 -133 -372q-251 -247 -582 -247h-86q-481 0 -800 495q0 49 -124 191z M-25 485q114 -149 162 -276q203 -229 619 -229q486 0 658 371l9 58h-438q-60 -191 -191 -191q-149 0 -190 200q13 48 66 48h715q57 0 57 57v57q-122 458 -600 458h-172q-397 0 -571 -353q0 -37 -124 -200zM41 485q60 75 153 276q200 239 572 239q520 0 638 -448 q-9 -39 -57 -39h-686q-105 0 -105 -85v-19q0 -189 210 -229h57q127 0 210 181l38 10h267l19 -20q-177 -324 -572 -324h-76q-388 0 -563 277q-14 62 -105 181zM346 1257q30 -124 153 -124h67q152 19 152 152q-24 153 -152 153h-67q-120 0 -153 -124v-57zM384 1285 q46 115 153 115q133 -25 133 -124q0 -78 -143 -105q-102 0 -143 114zM566 685q14 -57 66 -57h296l38 38v48q-29 152 -200 152h-10q-190 -33 -190 -181zM613 695q35 123 181 123q124 -31 124 -123q-9 -29 -57 -29h-191q-34 0 -57 29zM851 1257q34 -124 153 -124h67 q143 24 143 114v67q0 102 -143 124h-77q-143 -31 -143 -143v-38zM890 1276q0 89 152 124q134 -25 134 -124q0 -78 -143 -105q-83 0 -143 105z" />
<glyph unicode="&#xec;" horiz-adv-x="1045" d="M-362 1393v29q0 145 181 171q139 0 534 -457q60 -76 105 -76h181q90 0 228 -191l10 -76v-133q0 -76 114 -220v-47q-114 -123 -114 -210q114 -128 114 -172v-123q0 -86 -85 -86h-649q-91 0 -238 200l-9 48v85q0 89 105 124l9 10v400q-124 114 -124 181v124l19 76 q-254 124 -381 343zM-314 1412q0 -104 476 -295h105v19q-344 400 -429 400h-57q-89 0 -95 -124zM-267 1431q34 67 77 67q70 0 333 -314v-10q-410 185 -410 257zM57 802q102 0 115 -133v-372q0 -83 -96 -114l-9 -10v-171h724v162l-114 95v48q0 118 114 257q-124 152 -124 315 v114l-19 19h-572l-19 -19v-191zM95 888v48l29 28h477l28 -28v-153q0 -75 95 -219q-95 -138 -95 -219v-86q0 -59 115 -124v-57l-29 -28h-581l-29 28v29q0 54 67 66q47 41 47 105v410q0 101 -114 162z" />
<glyph unicode="&#xed;" horiz-adv-x="1054" d="M-7 844v124q12 86 86 86h429l-10 67q389 466 534 466q123 0 305 -257l9 -47q0 -166 -438 -334q-3 -19 -57 -29v-9l19 -124v-133q0 -76 114 -220v-47q-114 -123 -114 -210q114 -128 114 -172v-123q0 -86 -86 -86h-648q-91 0 -238 200l-9 48v85q0 89 104 124l10 10v400 q-124 114 -124 181zM50 796q102 0 115 -133v-372q0 -83 -96 -114l-9 -10v-171h724v162l-114 95v48q0 118 114 257q-124 152 -124 315v114l-19 19h-572l-19 -19v-191zM88 882v48l29 28h476l29 -28v-153q0 -75 95 -219q-95 -138 -95 -219v-86q0 -59 114 -124v-57l-28 -28h-582 l-28 28v29q0 54 67 66q47 41 47 105v410q0 101 -114 162zM565 1111h105q467 198 467 267v86q-22 44 -67 66h-76q-92 0 -429 -400v-19zM679 1168v10q278 314 343 314q41 0 77 -67q0 -76 -420 -257z" />
<glyph unicode="&#xee;" horiz-adv-x="1022" d="M-51 1120q247 448 305 448l67 9h66q187 0 372 -362q143 -206 143 -248q-13 -39 -48 -57l10 -143v-104q0 -76 114 -220v-47q-114 -123 -114 -210q114 -128 114 -172v-123q0 -86 -85 -86h-649q-91 0 -238 200l-9 48v85q0 89 104 124l10 10v371q0 34 -124 172v152 q3 67 19 67zM6 1120h86q27 0 257 172l229 -172h114v19q-205 341 -247 381h-191q-133 -156 -248 -400zM44 805q102 0 115 -133v-372q0 -83 -96 -114l-9 -10v-171h724v162q-114 76 -114 105l-10 9q0 130 124 286q-124 152 -124 315v114l-19 19h-572l-19 -19v-191zM82 891v48 l29 28h477l28 -28v-153q0 -75 95 -219q-95 -138 -95 -219v-86q0 -59 115 -124v-57l-29 -28h-581l-29 28v29q0 54 67 66q47 41 47 105v410q0 101 -114 162zM92 1177q176 305 200 305h86q60 0 162 -200l67 -105h-10l-219 162h-57z" />
<glyph unicode="&#xef;" horiz-adv-x="1022" d="M-87 1220q0 169 238 202q113 0 238 -128h18q95 128 238 128q148 0 329 -257l19 -73q0 -164 -165 -210h-9l18 -119v-129q0 -72 110 -210v-46q-110 -117 -110 -201q110 -123 110 -165v-119q0 -82 -82 -82h-623q-88 0 -229 192l-9 46v82q0 86 101 119l9 9v385 q-119 109 -119 174v119q0 27 37 82q-119 120 -119 201zM-42 1202q0 -92 138 -128h91q128 28 128 137v9q0 156 -192 156q-148 0 -165 -174zM4 1229q0 79 147 101q97 0 119 -128q-46 -92 -138 -92q-128 30 -128 119zM41 781q119 -35 119 -128v-366q0 -81 -92 -110l-9 -9v-165 h696v155q-110 74 -110 101l-9 37q7 98 119 247q-119 152 -119 284v128l-19 18h-549l-18 -18v-110zM86 854v46l28 27h458l27 -27v-147q0 -72 92 -210q-92 -133 -92 -211v-82q0 -57 110 -119v-55l-28 -27h-558l-27 27v28q0 52 64 64q45 39 45 100v394q0 97 -109 156zM443 1202 q0 -89 138 -128h91q128 28 128 137v28q-37 128 -128 128h-91q-110 0 -138 -147v-18zM489 1229q41 101 147 101q97 0 119 -128q-46 -92 -138 -92q-128 30 -128 119z" />
<glyph unicode="&#xf2;" horiz-adv-x="1895" d="M5 482v28q98 111 147 265q102 172 375 266l-137 128q-119 114 -119 183q0 139 174 165q123 0 521 -440q402 -64 531 -201q257 -248 257 -376q100 -106 100 -146v-27q-95 -106 -183 -293q-270 -257 -622 -257h-83q-478 0 -833 495q-11 63 -128 210zM51 491 q110 -131 137 -238q230 -283 678 -283q500 0 686 338q0 50 110 183q-88 102 -156 284q-190 247 -604 247h-100q-516 0 -650 -357q0 -28 -101 -174zM115 491v9q58 64 137 266q198 220 614 220q506 0 640 -339q18 -59 92 -156q-67 -82 -137 -247q-242 -229 -559 -229h-64 q-453 0 -641 339q0 39 -82 137zM316 1343q0 -101 458 -284h101v18q-327 385 -412 385h-55q-86 0 -92 -119zM362 1361q32 64 73 64q67 0 321 -302v-9q-394 177 -394 247zM619 491q0 -276 164 -329l46 -9h55q174 0 201 265v137q0 264 -238 293q-161 0 -219 -238zM664 455v64 q0 248 202 284q183 -51 183 -321q0 -284 -183 -284h-19q-158 0 -183 257zM857 363l9 -119h9q119 21 119 174v165l-18 18h-19q-100 -59 -100 -238z" />
<glyph unicode="&#xf3;" horiz-adv-x="1913" d="M-2 492v28q97 111 146 265q219 284 522 284q126 0 183 110q363 393 458 393h27q137 0 302 -256l9 -55q0 -147 -293 -265v-10q394 -297 394 -476q101 -106 101 -146v-27q-95 -106 -183 -293q-271 -257 -623 -257h-82q-479 0 -833 495q-11 63 -128 210zM43 501 q110 -131 138 -238q229 -283 677 -283q500 0 687 338q0 50 109 183q-88 102 -155 284q-191 247 -604 247h-101q-516 0 -650 -357q0 -28 -101 -174zM107 501v9q58 65 129 248q182 238 613 238q460 0 631 -284q31 -113 110 -211q-67 -82 -137 -247q-242 -229 -558 -229h-83 q-428 0 -622 339q0 39 -83 137zM611 501q0 -276 165 -329l45 -9h55q173 0 202 265v137q-39 293 -211 293q-256 0 -256 -357zM657 465v64q0 248 201 284q183 -51 183 -321q0 -284 -183 -284h-18q-159 0 -183 257zM831 1069h109q504 208 504 284v73q-18 91 -92 91h-64 q-86 0 -457 -430v-18zM849 364l9 -110h9q119 21 119 174v165l-18 18h-18q-101 -56 -101 -247zM940 1115v9q299 357 385 357q50 0 82 -83q0 -80 -467 -283z" />
<glyph unicode="&#xf4;" horiz-adv-x="1908" d="M5 491v28q97 111 146 265q103 162 321 247v19l-10 9v9q238 430 293 430l64 9h92q150 0 458 -540q156 -77 338 -320q36 -134 147 -266v-45q-95 -106 -183 -293q-270 -257 -623 -257h-82q-479 0 -833 495q-11 63 -128 210zM51 500q109 -131 137 -238q230 -283 677 -283 q500 0 687 338q0 50 110 183q-88 102 -156 284q-190 247 -604 247h-101q-516 0 -650 -357q0 -28 -100 -174zM115 500v9q58 65 128 248q182 238 613 238q461 0 632 -284q30 -113 109 -211q-67 -82 -137 -247q-241 -229 -558 -229h-83q-428 0 -622 339q0 39 -82 137zM517 1068 h83q29 0 247 165q218 -165 247 -165h82q-126 254 -238 384h-183q-112 -130 -238 -384zM600 1123q157 293 219 293h55q62 0 220 -293h-9l-211 155h-55q-198 -155 -219 -155zM618 473q0 -311 238 -311h27q175 0 202 265v137q-39 293 -211 293q-256 0 -256 -357v-27zM664 464 v64q0 248 201 284q183 -51 183 -321q0 -284 -183 -284h-18q-158 0 -183 257zM856 345l9 -92h9q119 21 119 174v165l-18 18h-18q-101 -50 -101 -265z" />
<glyph unicode="&#xf5;" horiz-adv-x="1881" d="M7 487v28q97 111 146 265q103 162 321 247q39 366 293 366l265 -55l64 83l73 18q88 0 211 -155q18 0 18 -46q-17 -124 -82 -220v-9q163 -108 293 -238q136 -159 155 -275q92 -99 92 -137q0 -25 -110 -174q0 -142 -320 -320q-211 -83 -376 -83h-82q-478 0 -833 495 q-11 63 -128 210zM53 496q109 -131 137 -238q230 -283 677 -283q500 0 687 338q0 50 110 183q-90 114 -174 312q-214 219 -559 219h-174q-453 0 -604 -357q0 -28 -100 -174zM117 496v9q58 65 128 248q183 238 613 238q461 0 632 -284q30 -113 110 -211q-84 -102 -119 -219 q-229 -257 -577 -257h-82q-428 0 -623 339q0 39 -82 137zM520 1064h73q60 91 119 91l219 -45h83q137 0 192 274h-92q0 -64 -91 -100q-183 54 -247 54h-46q-160 0 -210 -265v-9zM593 1165q66 137 164 137q202 -55 257 -55h18q48 0 82 27h10v-9q-60 -119 -165 -119 q-213 55 -275 55zM620 505q0 -277 156 -338l55 -9h55q174 0 201 265v137q-38 284 -192 284h-64q-146 0 -202 -229zM666 460v64q0 248 201 284q183 -51 183 -321q0 -284 -183 -284h-18q-158 0 -183 257zM858 359l9 -110h9q119 21 119 174v165l-18 18h-18q-101 -56 -101 -247z " />
<glyph unicode="&#xf6;" horiz-adv-x="1967" d="M-9 488v28q99 114 149 271q105 165 327 252l9 10v9q-76 74 -93 159q0 181 252 214q106 0 252 -140h10q75 140 233 140q159 0 345 -270l19 -75q0 -58 -47 -131v-9q327 -288 327 -439q103 -109 103 -149v-28q-97 -108 -187 -299q-275 -261 -635 -261h-84q-488 0 -849 504 q-12 64 -131 214zM38 498q112 -134 140 -243q234 -289 691 -289q509 0 700 345q0 51 112 187q-90 103 -159 289q-194 252 -616 252h-103q-526 0 -663 -364q0 -28 -102 -177zM103 498v9q59 66 131 252q186 243 625 243q470 0 644 -289q31 -115 112 -215q-74 -90 -140 -252 q-246 -234 -569 -234h-84q-437 0 -635 346q0 39 -84 140zM439 1198q29 -121 149 -121h66q149 18 149 149q0 159 -196 159q-128 0 -168 -131v-56zM476 1226q45 112 150 112q131 -25 131 -121q0 -77 -141 -103q-100 0 -140 112zM616 498q0 -346 243 -346h28q176 0 206 271v140 q0 269 -243 299q-164 0 -224 -243zM663 460v66q0 253 206 289q186 -51 186 -327q0 -289 -186 -289h-19q-162 0 -187 261zM859 358l10 -112h9q121 21 121 177v168l-18 19h-19q-103 -58 -103 -252zM934 1198q32 -121 149 -121h66q140 24 140 112v65q0 100 -140 121h-75 q-140 -30 -140 -140v-37zM971 1217q0 86 150 121q130 -25 130 -121q0 -77 -140 -103q-80 0 -140 103z" />
<glyph unicode="&#xf9;" horiz-adv-x="1791" d="M0 805v122q0 102 84 102h392v10q-346 227 -346 354q0 142 178 168q134 0 560 -485q36 -47 75 -47h410q89 0 224 -186q0 -262 113 -355l18 -38q-121 -180 -121 -224l112 -130l19 -75v-75q0 -140 -103 -140h-476q-38 0 -122 47q-158 -75 -289 -75h-19q-285 0 -569 392 q-28 76 -28 140v336q0 34 -112 159zM56 796q112 -32 112 -103v-439q0 -194 327 -270l74 -10q140 0 355 94q22 -66 37 -66h532l19 19v187q-121 0 -121 140q0 100 112 233v9q-112 144 -112 262v103l-28 28h-523l-28 -28v-140q0 -16 112 -56q28 -35 28 -66v-327 q0 -140 -177 -140q-159 19 -159 140v598l-19 19h-523l-18 -19v-168zM93 852v56l28 28h430l28 -28v-598q0 -113 205 -130q215 0 215 196v327q-12 121 -122 121l-18 56v28l28 28h429l28 -28v-93q0 -57 93 -243q-93 -93 -93 -224q0 -157 121 -178l10 -46v-47l-28 -28h-439 l-65 65h-19q-260 -93 -308 -93h-37q-364 53 -364 243l-10 56v439zM177 1384q0 -103 467 -289h103v18q-334 392 -420 392h-56q-88 0 -94 -121zM224 1403q33 65 75 65q68 0 326 -308v-9q-401 181 -401 252zM821 282q84 0 84 84v252q0 52 -65 94h-19v-430z" />
<glyph unicode="&#xfa;" horiz-adv-x="1773" d="M1 805v122q0 102 84 102h541l9 -9h10l9 9l-28 47v9q0 56 383 420q59 51 140 56q120 0 289 -242l19 -66q0 -102 -196 -214v-10h93q89 0 224 -186q0 -262 112 -355l19 -38q-121 -180 -121 -224l112 -130l18 -75v-75q0 -140 -102 -140h-477q-37 0 -121 47q-158 -75 -289 -75 h-19q-285 0 -569 392q-28 76 -28 140v336q0 34 -112 159zM57 796q112 -32 112 -103v-439q0 -194 326 -270l75 -10q139 0 355 94q22 -66 37 -66h532l19 19v187q-121 0 -121 140q0 100 112 233v9q-112 144 -112 262v103l-28 28h-523l-28 -28v-140q0 -16 112 -56q28 -35 28 -66 v-327q0 -140 -178 -140q-158 17 -158 140v598l-19 19h-523l-18 -19v-168zM94 852v56l28 28h429l28 -28v-598q0 -113 206 -130q214 0 214 196v327q-11 121 -121 121l-19 56v28l28 28h430l28 -28v-93q0 -57 93 -243q-93 -93 -93 -224q0 -157 121 -178l10 -46v-47l-28 -28h-439 l-66 65h-18q-260 -93 -308 -93h-56q-355 48 -355 299v439zM682 1095h103q467 183 467 289v28q-26 93 -66 93h-75q-80 0 -429 -392v-18zM803 1151v9q270 308 336 308q66 -19 66 -75q-5 -67 -402 -242zM822 282q84 0 84 84v252q0 52 -65 94h-19v-430z" />
<glyph unicode="&#xfb;" horiz-adv-x="1773" d="M-3 809v122q0 102 84 102h261v19l-18 28v9q149 299 280 448l84 10h65q173 0 336 -308l140 -206h122q88 0 224 -186q0 -262 112 -355l18 -38q-121 -180 -121 -224l112 -130l19 -75v-75q0 -140 -103 -140h-476q-38 0 -121 47q-159 -75 -290 -75h-19q-285 0 -569 392 q-28 76 -28 140v336q0 34 -112 159zM53 800q112 -32 112 -103v-439q0 -194 327 -270l74 -10q140 0 355 94q22 -66 38 -66h532l18 19v187q-121 0 -121 140q0 100 112 233v9q-112 144 -112 262v103l-28 28h-523l-28 -28v-140q0 -16 112 -56q28 -35 28 -66v-327 q0 -140 -177 -140q-159 17 -159 140v598l-19 19h-522l-19 -19v-168zM90 856v56l28 28h430l28 -28v-598q0 -113 205 -130q215 0 215 196v327q-11 121 -121 121l-19 56v28l28 28h429l28 -28v-93q0 -57 94 -243q-94 -93 -94 -224q0 -157 122 -178l9 -46v-47l-28 -28h-439 l-65 65h-19q-260 -93 -308 -93h-56q-355 48 -355 299v439zM380 1099h84q33 0 242 168h10l224 -168h112v18q-227 372 -243 374h-187q-64 -50 -242 -383v-9zM464 1155q170 298 196 298h84q59 0 168 -214l56 -84h-19q-196 158 -233 158h-28l-215 -158h-9zM725 959l9 -28h29v46 h-29v-18h-9zM819 286q84 0 84 84v252q0 52 -66 94h-18v-430zM837 1033h47v10l-19 18h-9l-19 -18v-10z" />
<glyph unicode="&#xfc;" horiz-adv-x="1777" d="M-2 809v122q0 102 84 102h290v19q-122 119 -122 187q0 181 253 214q105 0 252 -140h9q75 140 243 140q145 0 336 -270l18 -75l-9 -75q88 0 224 -186q0 -262 112 -355l19 -38q-122 -180 -122 -224l112 -130l19 -75v-75q0 -140 -103 -140h-476q-37 0 -121 47 q-158 -75 -289 -75h-19q-285 0 -570 392q-28 76 -28 140v336q0 34 -112 159zM54 800q112 -32 112 -103v-439q0 -194 327 -270l75 -10q139 0 355 94q22 -66 37 -66h532l19 19v187q-122 0 -122 140q0 100 112 233v9q-112 144 -112 262v103l-28 28h-522l-28 -28v-140 q0 -16 112 -56q28 -35 28 -66v-327q0 -140 -178 -140q-158 17 -158 140v598l-19 19h-523l-19 -19v-168zM92 856v56l28 28h429l28 -28v-598q0 -113 206 -130q214 0 214 196v327q-11 121 -121 121l-19 56v28l28 28h430l28 -28v-93q0 -57 93 -243q-93 -93 -93 -224 q0 -157 121 -178l9 -46v-47l-28 -28h-438l-66 65h-18q-261 -93 -308 -93h-56q-355 48 -355 299v439zM306 1220q0 -88 131 -121h84q140 24 140 112v65q0 100 -140 121h-65q-117 0 -150 -121v-56zM344 1248q44 112 149 112q131 -25 131 -121q0 -80 -149 -103q-90 0 -131 112z M801 1220q33 -121 150 -121h65q140 24 140 112v65q-31 121 -140 121h-65q-150 -23 -150 -140v-37zM820 286q84 0 84 84v252q0 52 -65 94h-19v-430zM839 1239q0 86 149 121q131 -28 131 -121q0 -77 -140 -103q-81 0 -140 103z" />
<glyph unicode="&#x2000;" horiz-adv-x="970" />
<glyph unicode="&#x2001;" horiz-adv-x="1940" />
<glyph unicode="&#x2002;" horiz-adv-x="970" />
<glyph unicode="&#x2003;" horiz-adv-x="1940" />
<glyph unicode="&#x2004;" horiz-adv-x="646" />
<glyph unicode="&#x2005;" horiz-adv-x="485" />
<glyph unicode="&#x2006;" horiz-adv-x="323" />
<glyph unicode="&#x2007;" horiz-adv-x="323" />
<glyph unicode="&#x2008;" horiz-adv-x="242" />
<glyph unicode="&#x2009;" horiz-adv-x="388" />
<glyph unicode="&#x200a;" horiz-adv-x="107" />
<glyph unicode="&#x2010;" d="M-2 439v246q0 85 85 85h643q63 0 208 -189v-303q0 -75 -76 -75h-624q-89 0 -227 189zM45 401h681v322h-681v-322zM93 477v170l28 28h539l28 -28v-170l-28 -28h-539z" />
<glyph unicode="&#x2011;" d="M-2 439v246q0 85 85 85h643q63 0 208 -189v-303q0 -75 -76 -75h-624q-89 0 -227 189zM45 401h681v322h-681v-322zM93 477v170l28 28h539l28 -28v-170l-28 -28h-539z" />
<glyph unicode="&#x2012;" d="M-2 439v246q0 85 85 85h643q63 0 208 -189v-303q0 -75 -76 -75h-624q-89 0 -227 189zM45 401h681v322h-681v-322zM93 477v170l28 28h539l28 -28v-170l-28 -28h-539z" />
<glyph unicode="&#x2013;" horiz-adv-x="1083" d="M-2 439v246q0 85 93 85h703q69 0 228 -189v-303q0 -75 -83 -75h-683q-97 0 -248 189zM49 401h745v322h-745v-322zM102 477v170l31 28h589l31 -28v-170l-31 -28h-589z" />
<glyph unicode="&#x2014;" horiz-adv-x="2107" d="M-2 439v246q0 85 186 85h1407q138 0 455 -189v-303q0 -75 -166 -75h-1366q-194 0 -496 189zM101 401h1490v322h-1490v-322zM206 477v170l61 28h1179l62 -28v-170l-62 -28h-1179z" />
<glyph unicode="&#x2018;" horiz-adv-x="828" d="M-4 1273q0 220 293 384l156 18q73 0 201 -174l9 -45v-64q0 -52 -82 -92q146 -155 146 -229v-27q-47 -257 -293 -257q-179 0 -403 330zM51 1199q48 -219 210 -219h46q220 45 220 201v18q0 125 -201 174v9q0 62 137 147v91h-110q-193 0 -302 -302v-119zM88 1263 q0 177 247 312l64 9l9 -9v-19q-128 -91 -128 -155v-46q0 -24 137 -64q64 -40 64 -110q0 -125 -210 -156q-183 41 -183 238z" />
<glyph unicode="&#x2019;" horiz-adv-x="813" d="M2 1396q0 191 266 256h37q225 0 411 -348l10 -91v-37q0 -254 -302 -393l-74 -10h-45q-88 0 -229 193l-9 45v19q0 84 91 110v18q-156 147 -156 238zM57 1359q0 -91 202 -146q0 -58 -138 -156v-91h110q185 0 302 302v73q0 232 -219 265h-19q-204 0 -238 -192v-55zM94 1387 q0 137 192 174h19q156 0 183 -229v-28q0 -169 -248 -293h-54l-19 19v9q138 57 138 183q0 23 -165 92z" />
<glyph unicode="&#x201a;" horiz-adv-x="818" d="M6 173q0 191 265 257h37q218 0 403 -330l18 -119v-27q0 -268 -330 -403h-91q-88 0 -229 192l-9 46v18q0 92 73 92l28 27q0 20 -119 128q-31 34 -46 119zM61 137q0 -89 201 -147v-18q0 -30 -137 -137v-92h110q188 0 302 311v65q0 231 -220 265h-18q-205 0 -238 -192v-55z M97 164q0 134 193 174h18q156 0 183 -229v-27q0 -168 -247 -293h-55l-18 18v9q137 58 137 184q0 25 -165 91z" />
<glyph unicode="&#x201c;" horiz-adv-x="1438" d="M-4 1261q0 239 302 403l82 9h64q96 0 211 -183l9 -27h9q149 210 330 210h73q61 0 201 -183v-91q0 -52 -82 -92q146 -150 146 -256q0 -202 -293 -266q-129 0 -311 202h-27q-90 -202 -284 -202q-161 0 -384 302q-46 105 -46 174zM51 1206q45 -219 201 -219h73 q202 45 202 192v46q0 100 -202 155v19q79 119 138 119v109h-64q-246 0 -348 -302v-119zM87 1252q0 204 257 330h55l18 -19v-9q-137 -69 -137 -155v-37q4 -19 164 -82q37 -39 37 -74v-9q0 -140 -201 -174q-149 0 -193 229zM582 1289l18 -19h18v55h-18l-18 -18v-18zM664 1243 q29 -256 201 -256h74q201 45 201 183v64q0 87 -201 155q73 129 137 129v109h-73q-272 0 -339 -366v-18zM710 1252q0 196 229 321l73 9l18 -19q-137 -95 -137 -183v-9q0 -27 155 -82q55 -58 55 -92q0 -125 -201 -174q-166 0 -192 229z" />
<glyph unicode="&#x201d;" horiz-adv-x="1424" d="M11 1393q0 208 293 256h9q152 0 311 -183h9q110 183 293 183h9q199 0 394 -320l28 -156q0 -209 -275 -384l-110 -19h-46q-87 0 -229 193v27h-9q-157 -220 -329 -220h-46q-76 0 -211 165q-27 0 -27 82q0 110 92 110v28q-156 140 -156 238zM66 1329q8 -55 201 -128 q0 -58 -137 -147v-91h110q195 0 302 320v55q0 232 -220 265h-18q-191 0 -238 -174v-100zM102 1393q0 122 193 165h18q156 0 183 -229q0 -218 -256 -321h-46l-18 19v9q137 56 137 174v9q-12 30 -174 91q-37 42 -37 83zM679 1374q0 -109 165 -155q37 0 37 -18q0 -65 -138 -147 v-91h110q200 0 302 311v110q-48 219 -210 219h-46q-175 0 -220 -192v-37zM716 1384q0 131 201 174h18q184 -41 184 -238q-86 -312 -303 -312l-18 19v9q128 57 128 165v27q0 15 -164 82q-37 35 -37 74h-9zM734 1118h28l18 18v19l-28 27h-18v-64z" />
<glyph unicode="&#x201e;" horiz-adv-x="1366" d="M-21 211q0 212 299 261h9q155 0 317 -186h10q112 186 299 186h9q193 0 392 -308q37 -101 37 -168q0 -235 -298 -411l-94 -9h-46q-90 0 -234 196v28h-9q-160 -224 -336 -224h-47q-78 0 -215 168q-28 0 -28 84q0 90 75 112l19 19q-150 163 -150 205zM35 145q6 -53 205 -130 q0 -56 -140 -150v-93h112q197 0 308 327v56q0 236 -224 271h-18q-194 0 -243 -178v-103zM72 211q0 124 196 168h19q160 0 187 -234q0 -229 -271 -326h-37l-19 18v10q140 61 140 177v9q0 27 -177 94q-38 42 -38 84zM660 192q0 -117 206 -168v-28q-27 -58 -140 -131v-93h112 q194 0 308 308v121q-51 225 -215 225h-46q-179 0 -225 -197v-37zM698 201q0 135 205 178h19q187 -41 187 -243q-88 -317 -308 -317l-19 18v10q131 67 131 168v28q0 16 -168 84q-38 35 -38 74h-9zM717 -4v-65h28l18 18v19l-28 28h-18z" />
<glyph unicode="&#x2026;" horiz-adv-x="1885" d="M5 194q41 224 280 224h37q125 0 262 -112h9q98 112 252 112h28q132 0 262 -112q127 112 261 112h28q207 0 411 -299l9 -75q0 -200 -289 -233h-10q-143 0 -261 121h-19q-112 -121 -261 -121h-9q-150 0 -262 121h-18q-116 -121 -271 -121q-173 0 -364 224q-75 63 -75 159z M52 184q0 -153 224 -177h28q233 28 233 149v66q0 121 -233 149h-19q-233 -27 -233 -168v-19zM98 194q0 96 178 131h18q176 0 206 -141q-37 -130 -206 -130q-196 17 -196 140zM602 194q0 -130 178 -187h75q233 28 233 149v66q0 128 -243 149h-9q-234 -24 -234 -177zM649 203 q56 122 178 122h18q206 -21 206 -141q-38 -130 -206 -130h-18q-178 27 -178 149zM1163 156q43 -149 224 -149h9q252 0 252 187q0 114 -149 168l-103 9q-162 0 -233 -121v-94zM1200 203q45 122 205 122h19q177 -30 177 -141q0 -107 -196 -130h-28q-177 31 -177 149z" />
<glyph unicode="&#x202f;" horiz-adv-x="388" />
<glyph unicode="&#x205f;" horiz-adv-x="485" />
<glyph unicode="&#x2122;" horiz-adv-x="2695" d="M-1 1301v233q0 93 93 93h878l159 -9l140 9h345q68 0 205 -149h28q25 149 150 149h429q89 0 224 -186l10 -75q0 -99 -84 -140v-37l65 -140l-65 -103q0 -40 84 -121l9 -56v-28q0 -122 -93 -122h-402q-58 0 -103 47h-28q0 -47 -84 -47h-93q-58 0 -103 47h-9q-48 -47 -84 -47 h-345q-61 0 -224 206v84q0 93 74 93l10 9v38l-19 18h-177l-66 -121q103 -111 103 -168v-84q0 -75 -75 -75h-467q-60 0 -224 206v84q0 81 84 112v46h-112q-88 0 -224 187zM46 1263h261v75q0 72 47 93h18q22 0 28 -65q0 -54 -65 -159q65 -91 65 -158q0 -50 -93 -112v-112h523 v121q-93 0 -103 121q0 40 56 159q-56 72 -56 131v28l10 46h9q75 0 75 -121v-47h252v308h-1027v-308zM92 1338v168l28 28h887l28 -28v-168l-28 -28h-121q-28 0 -28 103l-9 9q-28 56 -84 56h-38q-47 -24 -47 -75v-65q0 -57 47 -121q-47 -76 -47 -131v-47q0 -86 94 -130l9 -28 l-28 -19h-373l-28 28q84 85 84 121v84q0 54 -38 103l38 131v102q-19 47 -66 47h-18q-94 0 -94 -159l-9 -9h-131zM1147 825h402v112q-94 42 -94 121v187l10 46h9q23 -20 196 -466h177l196 466h10l9 -46v-206q0 -46 -75 -102v-112h477v112q-94 46 -94 112q0 31 66 149 q-61 90 -66 149q0 63 84 112v112h-513q-19 0 -140 -326h-10l-149 326h-495v-112q84 -46 84 -121q0 -54 -65 -168q65 -51 65 -149q0 -35 -84 -84v-112zM1185 1515l28 19h354q66 0 84 -112q90 -214 122 -233h37q21 10 168 345h411l28 -28l-65 -65l-19 -56v-66q21 -121 47 -121 q-47 -70 -47 -121v-94l93 -93l-28 -28h-345l-28 28l75 84v336l-38 37h-28q-37 0 -205 -466l-28 -19h-75q-33 16 -205 467l-47 9h-28l-28 -28v-308q0 -53 84 -103v-18l-28 -19h-252l-28 28l65 65l19 56v38q0 61 -47 130v10q47 69 47 130v38q0 83 -84 130z" />
<glyph unicode="&#x25fc;" horiz-adv-x="1014" d="M0 0v1015h1015v-1015h-1015z" />
</font>
</defs>
</svg>
