<?xml version="1.0" standalone="no"?>
<!DOCTYPE svg PUBLIC "-//W3C//DTD SVG 1.1//EN" "http://www.w3.org/Graphics/SVG/1.1/DTD/svg11.dtd" >
<svg xmlns="http://www.w3.org/2000/svg" xmlns:xlink="http://www.w3.org/1999/xlink" version="1.1">
<metadata></metadata>
<defs>
<font id="tabontabon" horiz-adv-x="1325" >
<font-face units-per-em="2048" ascent="1536" descent="-512" />
<missing-glyph horiz-adv-x="436" />
<glyph horiz-adv-x="0" />
<glyph unicode="&#xd;" horiz-adv-x="436" />
<glyph unicode=" "  horiz-adv-x="436" />
<glyph unicode="&#x09;" horiz-adv-x="436" />
<glyph unicode="&#xa0;" horiz-adv-x="436" />
<glyph unicode="!" horiz-adv-x="546" d="M0 0v166h381v-166h-381zM0 334v1202h381v-1202h-381z" />
<glyph unicode="&#x26;" horiz-adv-x="1492" d="M0 0v573l453 207l-353 181v575h1094v-575l-354 -181l452 -209v-233h-452v-172h653v-166h-201v-166h-452v166h-840zM461 166h379v524h-379v-524zM461 858h379v510h-379v-510z" />
<glyph unicode="*" horiz-adv-x="167" d="M-125 690v168h293v-858h-168v690h-125z" />
<glyph unicode="," horiz-adv-x="1705" />
<glyph unicode="." horiz-adv-x="589" d="M0 0v340h420v-340h-420z" />
<glyph unicode="0" horiz-adv-x="1112" d="M0 0v1534h969v-1534h-969zM379 166h205v1204h-205v-1204z" />
<glyph unicode="1" horiz-adv-x="702" d="M-2 1368l2 2v166h524v-1536h-381v1368h-145z" />
<glyph unicode="2" horiz-adv-x="1310" d="M0 0v858h762v510h-381v-311h-381v479h1147v-846h-766v-524h381v307h385v-473h-1147z" />
<glyph unicode="3" horiz-adv-x="1511" d="M0 690v168h958v510h-378v-311h-379v479h1136v-578l-383 -178l383 -200v-580h-1136v473h379v-307h378v524h-958z" />
<glyph unicode="4" horiz-adv-x="1300" d="M0 690v846h379v-678h381v678h385v-1536h-385v690h-760z" />
<glyph unicode="5" horiz-adv-x="1300" d="M0 0v473h379v-309h381v526h-760v844h1145v-166h-766v-510h766v-858h-1145z" />
<glyph unicode="6" horiz-adv-x="1314" d="M0 0v1536h1145v-168h-766v-510h766v-858h-1145zM379 166h381v524h-381v-524z" />
<glyph unicode="7" d="M0 -2l760 1368h-760v168h1147v-168l-766 -1368h-381z" />
<glyph unicode="8" horiz-adv-x="1302" d="M0 0v578l381 202l-381 178v578h1135v-578l-381 -178l381 -202v-578h-1135zM383 166h377v524h-377v-524zM383 860h377v508h-377v-508z" />
<glyph unicode="9" horiz-adv-x="1323" d="M2 0v473h379v-307h381v524h-760v846h1145v-1536h-1145zM381 858h381v510h-381v-510z" />
<glyph unicode=":" horiz-adv-x="614" d="M0 0v340h420v-340h-420zM0 510v348h420v-348h-420z" />
<glyph unicode=";" horiz-adv-x="606" d="M0 0v340h420v-512h-217v172h-203zM0 510v348h420v-348h-420z" />
<glyph unicode="?" horiz-adv-x="1169" d="M0 2v166h424v-166h-424zM0 338v522h713v510h-289v-311h-424v479h1016v-846h-592v-354h-424z" />
<glyph unicode="@" horiz-adv-x="2119" d="M0 2v1536h1942v-1098h-789v527h-289v-357h144v-170h-566v693h1016v-523h266v725h-1511v-1130h1294v-203h-1507z" />
<glyph unicode="A" horiz-adv-x="1343" d="M0 -2v1536h1147v-676h201v-168h-201v-692h-385v692h-383v-692h-379zM379 858h383v508h-383v-508z" />
<glyph unicode="B" horiz-adv-x="1337" d="M0 0v1536h1135v-578l-381 -178l381 -202v-578h-1135zM381 166h379v524h-379v-524zM381 858h379v510h-379v-510z" />
<glyph unicode="C" horiz-adv-x="1314" d="M-8 0v1536h1145v-479h-381v311h-385v-1202h385v307h381v-473h-1145z" />
<glyph unicode="D" horiz-adv-x="1300" d="M0 0v1536h762l381 -201v-1161l-379 -174h-193v166h191v1202h-381v-1368h-381z" />
<glyph unicode="E" horiz-adv-x="1337" d="M0 0v1536h1143v-479h-381v311h-383v-510h962v-168h-962v-524h383v307h381v-473h-1143z" />
<glyph unicode="F" horiz-adv-x="1316" d="M0 2v1536h1143v-479h-381v311h-383v-512h964v-168h-962v-688h-381z" />
<glyph unicode="G" horiz-adv-x="1300" d="M0 0v1536h1139v-479h-379v311h-381v-1202h381v524h-201v168h580v-858h-1139z" />
<glyph unicode="H" horiz-adv-x="1337" d="M2 0v1536h379v-678h383v678h379v-678h198v-168h-200l2 -690h-379l-2 690h-383l2 -690h-379z" />
<glyph unicode="I" horiz-adv-x="559" d="M0 0v1536h381v-1536h-381z" />
<glyph unicode="J" horiz-adv-x="1288" d="M0 0v858h381v-692h221v1202h-190v168l759 -2v-166h-188v-1368h-983z" />
<glyph unicode="K" horiz-adv-x="1302" d="M-2 0v1536h381v-678h381v678h381v-578l-379 -178l379 -202v-578h-381v690h-381v-690h-381z" />
<glyph unicode="L" horiz-adv-x="1329" d="M0 0v1536h571v-168h-190v-1202h385v307h377v-473h-1143z" />
<glyph unicode="M" horiz-adv-x="1746" d="M0 2v1536h1548v-680h201v-168h-201v-688h-383v1368h-200v-1368h-383v1368h-203v-1368h-379z" />
<glyph unicode="N" horiz-adv-x="1345" d="M0 -2v1536h1147v-676h201v-168h-201v-692h-383v1368h-385v-1368h-379z" />
<glyph unicode="O" d="M0 2v1536h1139v-680h200v-168h-200v-688h-1139zM379 168h379v1202h-379v-1202z" />
<glyph unicode="P" horiz-adv-x="1316" d="M0 0v1536h1141v-846h-572v168h191v510h-381v-1368h-379z" />
<glyph unicode="Q" horiz-adv-x="1286" d="M2 0v1536h1143v-1536h-371v-166h-201v334h191v1202h-383v-1370h-379z" />
<glyph unicode="R" horiz-adv-x="1312" d="M0 2v1536h1147v-577l-387 -179l387 -202v-578h-379l-2 688h-385v-688h-381zM381 858h385v512h-385v-512z" />
<glyph unicode="S" horiz-adv-x="1335" d="M0 0v473h379v-307h381v524h-760v846h1141v-479h-381v311h-381v-510h762v-858h-1141z" />
<glyph unicode="T" horiz-adv-x="1722" d="M0 690v842h1544v-842h-383v674h-200v-1368h-381v1368h-201v-674h-379z" />
<glyph unicode="U" horiz-adv-x="1343" d="M-2 1534h383v-1370h383v1370h379v-676h200v-168h-200v-694h-1141z" />
<glyph unicode="V" horiz-adv-x="1320" d="M0 168v1370h381v-1370h381v1370h383v-680h201v-168h-201v-522l-383 -168h-385z" />
<glyph unicode="W" horiz-adv-x="1736" d="M0 160v1374h383v-1370h201v1370h385v-1370h200v1370h379v-1370l-374 -166h-797z" />
<glyph unicode="X" horiz-adv-x="1310" d="M0 0v602l375 178l-375 199v557h381v-678h381v678h381v-578l-379 -178l379 -202v-578h-381v690h-381v-690h-381z" />
<glyph unicode="Y" horiz-adv-x="1304" d="M0 690v844h379v-676h385v676h373v-844h-373v-692h-385v692h-379z" />
<glyph unicode="Z" horiz-adv-x="1253" d="M-2 -2v473l762 895h-381v-311h-381v479h1147v-479l-766 -891h381v307h385v-473h-1147z" />
<glyph unicode="[" horiz-adv-x="880" d="M-2 690v168h201v678h522v-166h-143v-1419h143v-164h-522v903h-201z" />
<glyph unicode="]" horiz-adv-x="722" d="M0 -49h143v1417h-143v168h522v-678h201v-168h-201v-903h-522v164z" />
<glyph unicode="a" d="M0 0v858h1014v-692h143v-166h-446v690h-289v-524h145v-166h-567z" />
<glyph unicode="b" horiz-adv-x="1331" d="M0 1366v168h565v-676h592v-860h-448v166h145v524h-289v-690h-422v1368h-143z" />
<glyph unicode="c" horiz-adv-x="1202" d="M0 0v858h1016v-405h-305v237h-291v-524h596v-166h-1016z" />
<glyph unicode="d" horiz-adv-x="1308" d="M0 -2v860h711v510h-144v166h447v-1370h143v-168l-446 2v690h-289v-524h145v-166h-567z" />
<glyph unicode="e" horiz-adv-x="1189" d="M0 0v858h1016v-522h-449v168h144v186h-291v-524h596v-166h-1016z" />
<glyph unicode="f" horiz-adv-x="872" d="M2 -2v166h148v1370h563v-168h-142v-508h142v-170h-142v-690h-569z" />
<glyph unicode="g" horiz-adv-x="1306" d="M2 2l2 856h1157l-2 -166h-143v-1333h-1014v397h422v-229h289v1165h-289v-524h143v-166h-565z" />
<glyph unicode="h" horiz-adv-x="1312" d="M-143 1368v168h567v-678h594v-692h141v-166h-444v690h-291v-690h-422v1368h-145z" />
<glyph unicode="i" horiz-adv-x="737" d="M0 690h143v-690h422v858h-565v-168zM143 1028v168h422v-168h-422z" />
<glyph unicode="j" horiz-adv-x="606" d="M-295 -471v-166h717v1495h-567v-168h145v-1161h-295zM0 1028v164h424v-164h-424z" />
<glyph unicode="k" horiz-adv-x="1327" d="M-143 1368v168h567v-678h289v510h303v-510l-303 -80l303 -88v-524h143v-166h-446v690h-289v-690h-424v1368h-143z" />
<glyph unicode="l" horiz-adv-x="901" d="M0 1368v168h563v-1370h148v-166h-566v1368h-145z" />
<glyph unicode="m" horiz-adv-x="1601" d="M0 -2v860h1436v-860h-412v166h106v524h-202v-690h-412v166h107v524h-201v-690h-422z" />
<glyph unicode="n" horiz-adv-x="1482" d="M0 690v168h1159v-692h144v-166h-447v690h-289v-690h-424v690h-143z" />
<glyph unicode="o" horiz-adv-x="1187" d="M-2 0l2 858h1014v-858h-1016zM422 166h289v524h-289v-524z" />
<glyph unicode="p" horiz-adv-x="1329" d="M0 690v168h1157v-858h-446v166h145v524h-289v-1177h144v-156h-568v1333h-143z" />
<glyph unicode="q" horiz-adv-x="1167" d="M2 0v858h1016v-1501h-303v643h-713zM424 166h291v524h-291v-524z" />
<glyph unicode="r" horiz-adv-x="1179" d="M-2 0v858h1016v-420h-303v252h-289v-690h-424z" />
<glyph unicode="s" horiz-adv-x="1159" d="M0 2v166h713v170h-713v520h1016v-168h-592v-184h592v-504h-1016z" />
<glyph unicode="t" horiz-adv-x="757" d="M0 0v1534l420 2v-512h147v-166h-147v-692h147v-166h-567z" />
<glyph unicode="u" horiz-adv-x="1327" d="M-2 0v858h422v-692h289v692h303v-692h143v-166h-1157z" />
<glyph unicode="v" horiz-adv-x="1308" d="M-141 690v168h567v-692h289v692h446v-168h-143v-690h-1018v690h-141z" />
<glyph unicode="w" horiz-adv-x="1724" d="M-137 690v168h563v-692h207v692h301v-692h211l-2 692h448v-168h-143v-692l-1444 2v690h-141z" />
<glyph unicode="x" horiz-adv-x="1173" d="M0 0v340v518h424v-354h289v354h303v-354l-285 -84l285 -84v-336h-303v336h-289v-336h-424zM0 340l412 76l-412 88v-164z" />
<glyph unicode="y" horiz-adv-x="1167" d="M-137 690l2 168h557l2 -692h299l-4 692h297v-1495h-1014v379h418v-219h299v477h-717v690h-139z" />
<glyph unicode="z" horiz-adv-x="1167" d="M0 0v166l477 524h-477v168h1016v-168l-449 -524h449v-166h-1016z" />
<glyph unicode="&#xa1;" horiz-adv-x="546" d="M0 -547v1237h391v-1237h-391zM0 858v172h391v-172h-391z" />
<glyph unicode="&#xb4;" horiz-adv-x="1705" d="M350 1028l422 168v-168h-422z" />
<glyph unicode="&#xbf;" horiz-adv-x="1185" d="M0 379h610v362h434v-536h-731v-527h297v322h434v-492h-1044v871zM610 918v172h434v-172h-434z" />
<glyph unicode="&#xe0;" />
<glyph unicode="&#xe1;" d="M0 0h567v166h-145v524h289v-690h446v166h-143v692h-1014v-858zM385 1028l422 168v-168h-422z" />
<glyph unicode="&#xe9;" horiz-adv-x="1189" d="M0 0v858h1016v-522h-449v168h144v186h-291v-524h596v-166h-1016zM338 1028l422 168v-168h-422z" />
<glyph unicode="&#xed;" horiz-adv-x="737" d="M0 690h143v-690h422v858h-565v-168zM141 1028l424 168v-168h-424z" />
<glyph unicode="&#xf1;" horiz-adv-x="1482" d="M0 690v168h1159v-692h144v-166h-449v690h-287v-690h-424v690h-143zM494 1028v168h421v-168h-421z" />
<glyph unicode="&#xf3;" horiz-adv-x="1187" d="M-2 0l2 858h1014v-858h-1016zM356 1028l422 168v-168h-422zM422 166h289v524h-289v-524z" />
<glyph unicode="&#xfa;" horiz-adv-x="1327" d="M-2 0h1157v166h-143v692h-303v-692h-289v692h-422v-858zM365 1028l421 168v-168h-421z" />
<glyph unicode="&#xfd;" horiz-adv-x="1167" d="M-137 690l2 168h557l2 -692h299l-4 692h297v-1495h-1014v379h418v-219h299v477h-717v690h-139zM352 1028l422 168v-168h-422z" />
<glyph unicode="&#x2000;" horiz-adv-x="769" />
<glyph unicode="&#x2001;" horiz-adv-x="1538" />
<glyph unicode="&#x2002;" horiz-adv-x="769" />
<glyph unicode="&#x2003;" horiz-adv-x="1538" />
<glyph unicode="&#x2004;" horiz-adv-x="512" />
<glyph unicode="&#x2005;" horiz-adv-x="384" />
<glyph unicode="&#x2006;" horiz-adv-x="256" />
<glyph unicode="&#x2007;" horiz-adv-x="256" />
<glyph unicode="&#x2008;" horiz-adv-x="192" />
<glyph unicode="&#x2009;" horiz-adv-x="307" />
<glyph unicode="&#x200a;" horiz-adv-x="85" />
<glyph unicode="&#x202f;" horiz-adv-x="307" />
<glyph unicode="&#x205f;" horiz-adv-x="384" />
<glyph unicode="&#x25fc;" horiz-adv-x="860" d="M0 0v860h860v-860h-860z" />
</font>
</defs>
</svg>
